SplineFontDB: 3.2
FontName: Sinhala-Web
FullName: Sinhalaweb
FamilyName: Sinhalaweb
Weight: Regular
Copyright: Copyright 2021 The Yaldevi Project Authors (https://github.com/mooniak/yaldevi-font)
Version: 1.100
ItalicAngle: 0
UnderlinePosition: -141
UnderlineWidth: 50
Ascent: 800
Descent: 200
InvalidEm: 0
sfntRevision: 0x0001199a
LayerCount: 2
Layer: 0 0 "Back" 1
Layer: 1 0 "Fore" 0
XUID: [1021 514 1519779735 19896]
StyleMap: 0x0040
FSType: 0
OS2Version: 4
OS2_WeightWidthSlopeOnly: 0
OS2_UseTypoMetrics: 1
CreationTime: 1624853673
ModificationTime: 1674752253
PfmFamily: 81
TTFWeight: 400
TTFWidth: 5
LineGap: 0
VLineGap: 0
Panose: 0 0 0 0 0 0 0 0 0 0
OS2TypoAscent: 1060
OS2TypoAOffset: 0
OS2TypoDescent: -256
OS2TypoDOffset: 0
OS2TypoLinegap: 0
OS2WinAscent: 1110
OS2WinAOffset: 0
OS2WinDescent: 450
OS2WinDOffset: 0
HheadAscent: 1060
HheadAOffset: 0
HheadDescent: -256
HheadDOffset: 0
OS2SubXSize: 650
OS2SubYSize: 600
OS2SubXOff: 0
OS2SubYOff: 75
OS2SupXSize: 650
OS2SupYSize: 600
OS2SupXOff: 0
OS2SupYOff: 350
OS2StrikeYSize: 50
OS2StrikeYPos: 342
OS2CapHeight: 769
OS2XHeight: 570
OS2Vendor: 'MNIK'
OS2CodePages: 20000093.00000000
OS2UnicodeRanges: 00000007.00000000.00000200.00000000
Lookup: 1 0 0 "'aalt' Access All Alternates in Sinhala lookup 0" { "'aalt' Access All Alternates in Sinhala lookup 0 subtable"  } ['aalt' ('DFLT' <'dflt' > 'sinh' <'dflt' > ) ]
Lookup: 4 0 0 "'akhn' Akhand in Sinhala lookup 1" { "'akhn' Akhand in Sinhala lookup 1 subtable"  } ['akhn' ('sinh' <'dflt' > ) ]
Lookup: 4 0 0 "'rphf' Reph Form in Sinhala lookup 2" { "'rphf' Reph Form in Sinhala lookup 2 subtable"  } ['rphf' ('sinh' <'dflt' > ) ]
Lookup: 4 0 0 "'abvs' Above Base Substitutions in Sinhala lookup 3" { "'abvs' Above Base Substitutions in Sinhala lookup 3 subtable"  } ['abvs' ('sinh' <'dflt' > ) ]
Lookup: 4 0 0 "'abvs' Above Base Substitutions in Sinhala lookup 4" { "'abvs' Above Base Substitutions in Sinhala lookup 4 subtable"  } ['abvs' ('sinh' <'dflt' > ) ]

StartChar: .notdef
Encoding: 0 -1 0
Width: 719
GlyphClass: 1
Flags: W
LayerCount: 2
Fore
SplineSet
661 -105 m 1
 661 858 l 1
 57 858 l 1
 57 -105 l 1
 661 -105 l 1
301 101 m 0
 301 91 304.5 82.5 311.5 75.5 c 0
 318.5 68.5 327 65 337 65 c 0
 346.333007812 65 354.5 68.5 361.5 75.5 c 0
 368.5 82.5 372 91 372 101 c 0
 372 111 368.5 119.5 361.5 126.5 c 0
 354.5 133.5 346.333007812 137 337 137 c 0
 327 137 318.5 133.5 311.5 126.5 c 0
 304.5 119.5 301 111 301 101 c 0
594 790 m 1
 594 -40 l 1
 123 -40 l 1
 123 790 l 1
 594 790 l 1
245 516 m 1
 251 524 258.333007812 532.499023438 267 541.499023438 c 0
 275.666992188 550.499023438 286.833984375 558.33203125 300.500976562 564.999023438 c 0
 314.16796875 571.666015625 330.66796875 574.999023438 350.000976562 574.999023438 c 0
 371.333984375 574.999023438 390.000976562 569.999023438 406.000976562 559.999023438 c 0
 422.000976562 549.999023438 434.16796875 536.83203125 442.500976562 520.499023438 c 0
 450.833984375 504.166015625 455.000976562 486.333007812 455.000976562 467 c 0
 455.000976562 426.333007812 442.16796875 398.333007812 416.500976562 383 c 0
 390.833984375 367.666992188 354.333984375 359.666992188 307.000976562 359 c 1
 307.000976562 169 l 1
 366.000976562 169 l 1
 366.000976562 307 l 1
 380.000976562 307 395.66796875 310.166992188 413.000976562 316.5 c 0
 430.333984375 322.833007812 446.666992188 332.5 462 345.5 c 0
 477.333007812 358.5 489.833007812 375.333007812 499.5 396 c 0
 509.166992188 416.666992188 514 441.666992188 514 471 c 0
 512.666992188 517 498 554.833007812 470 584.5 c 0
 442 614.166992188 403 629 353 629 c 0
 327.666992188 629 305.333984375 624.833007812 286.000976562 616.5 c 0
 266.66796875 608.166992188 250.66796875 598 238.000976562 586 c 0
 225.333984375 574 214.666992188 563 206 553 c 1
 245 516 l 1
EndSplineSet
Validated: 9
EndChar

StartChar: exclam
Encoding: 4 33 4
Width: 277
GlyphClass: 1
Flags: HW
LayerCount: 2
Back
SplineSet
970 192 m 5
 908 192 l 5
 895 798 l 5
 983 798 l 5
 970 192 l 5
939 -9 m 4
 923.666992188 -9 910.999023438 -3.66699218775 900.999023438 7 c 4
 890.999023438 17.6669921875 885.999023438 32.6669921875 885.999023438 52 c 4
 885.999023438 70 890.999023437 84.1669921879 900.999023438 94.5 c 4
 910.999023438 104.833007812 923.666015625 110 938.999023438 110 c 4
 954.999023438 110 967.999023438 104.833007812 977.999023438 94.5 c 4
 987.999023438 84.1669921875 992.999023438 70 992.999023438 52 c 4
 992.999023438 33.3330078125 987.83203125 18.4999999996 977.499023438 7.5 c 4
 967.166015625 -3.5 954.333007812 -9 939 -9 c 4
EndSplineSet
Fore
SplineSet
164 166 m 5
 108 166 l 5
 97 687 l 5
 175 687 l 5
 164 166 l 5
136.075195312 -11 m 4
 114.648367756 -11 91.0244140625 2.87895476647 91.0244140625 40.8505859375 c 4
 91.0244140625 74.8062636415 112.982983267 90.150390625 136.07421875 90.150390625 c 4
 161.081581547 90.150390625 181.973632812 73.9923901114 181.973632812 40.8505859375 c 4
 181.973632812 5.84140861522 159.402229427 -11 136.075195312 -11 c 4
EndSplineSet
Validated: 1
EndChar

StartChar: quotedbl
Encoding: 5 34 5
Width: 336
GlyphClass: 1
Flags: HW
LayerCount: 2
Back
SplineSet
117 594 m 1
 64 594 l 1
 51 830 l 1
 130 830 l 1
 117 594 l 1
274 594 m 1
 221 594 l 1
 208 830 l 1
 287 830 l 1
 274 594 l 1
EndSplineSet
Fore
SplineSet
117 594 m 5
 64 594 l 5
 51 830 l 5
 130 830 l 5
 117 594 l 5
274 594 m 5
 221 594 l 5
 208 830 l 5
 287 830 l 5
 274 594 l 5
EndSplineSet
Validated: 1
EndChar

StartChar: numbersign
Encoding: 6 35 6
Width: 744
GlyphClass: 1
Flags: HW
LayerCount: 2
Back
SplineSet
391 768 m 1
 169 0 l 1
 102 0 l 1
 325 768 l 1
 391 768 l 1
634 768 m 1
 414 0 l 1
 346 0 l 1
 568 768 l 1
 634 768 l 1
722 559 m 1
 722 504 l 1
 100 504 l 1
 100 559 l 1
 722 559 l 1
643 283 m 1
 643 230 l 1
 22 229 l 1
 22 283 l 1
 643 283 l 1
EndSplineSet
Fore
SplineSet
391 768 m 1
 169 0 l 1
 102 0 l 1
 325 768 l 1
 391 768 l 1
634 768 m 1
 414 0 l 1
 346 0 l 1
 568 768 l 1
 634 768 l 1
722 559 m 1
 722 504 l 1
 100 504 l 1
 100 559 l 1
 722 559 l 1
643 283 m 1
 643 230 l 1
 22 229 l 1
 22 283 l 1
 643 283 l 1
EndSplineSet
Validated: 5
EndChar

StartChar: dollar
Encoding: 7 36 7
Width: 590
GlyphClass: 1
Flags: HW
LayerCount: 2
Back
SplineSet
1733.00097656 -11 m 0
 1699.00097656 -11 1664.5 -5.3339843751 1629.5 5.9990234375 c 0
 1594.5 17.33203125 1561.33300781 33.9990234375 1530 55.9990234375 c 1
 1565 112.999023438 l 1
 1593 93.6660156247 1621.5 79.3330078125 1650.5 70 c 0
 1679.5 60.6669921875 1708.33300781 56 1737 56 c 0
 1777.66699219 56 1810.66699219 67.1669921873 1836 89.5 c 0
 1861.33300781 111.833007812 1874 144.333007812 1874 187 c 0
 1874 213 1868 234.833007812 1856 252.5 c 0
 1844 270.166992188 1828.33300781 285.333984375 1809 298.000976562 c 0
 1789.66699219 310.667968751 1768.5 322.16796875 1745.5 332.500976562 c 0
 1722.5 342.833984375 1699.33300781 353.666992188 1676 365 c 0
 1652.66699219 376.333007812 1631.33398437 389.666015625 1612.00097656 404.999023438 c 0
 1592.66796875 420.33203125 1577.00097656 439.665039062 1565.00097656 462.998046875 c 0
 1553.00097656 486.331054688 1547.00097656 514.6640625 1547.00097656 547.997070312 c 0
 1547.00097656 589.997070312 1557.66796875 625.330078125 1579.00097656 653.997070312 c 0
 1600.33398437 682.664062501 1627.50097656 704.497070312 1660.50097656 719.497070312 c 0
 1693.50097656 734.497070312 1728.33398437 741.997070312 1765.00097656 741.997070312 c 0
 1792.33398437 741.997070312 1818.50097656 737.997070312 1843.50097656 729.997070312 c 0
 1868.50097656 721.997070312 1890.66796875 709.830078125 1910.00097656 693.497070312 c 0
 1929.33398437 677.1640625 1944.00097656 656.331054688 1954.00097656 630.998046875 c 1
 1895.00097656 599.998046875 l 1
 1881.66796875 625.998046875 1863.00097656 645.165039062 1839.00097656 657.498046875 c 0
 1815.00097656 669.831054688 1788.66796875 675.998046875 1760.00097656 675.998046875 c 0
 1736.66796875 675.998046875 1714.50097656 671.165039062 1693.50097656 661.498046875 c 0
 1672.50097656 651.831054688 1655.83398437 637.831054688 1643.50097656 619.498046875 c 0
 1631.16796875 601.165039062 1625.00097656 578.33203125 1625.00097656 550.999023438 c 0
 1625.00097656 522.332031249 1632.83398437 498.83203125 1648.50097656 480.499023438 c 0
 1664.16796875 462.166015624 1684.50097656 446.666015625 1709.50097656 433.999023438 c 0
 1734.50097656 421.332031249 1761.00097656 408.83203125 1789.00097656 396.499023438 c 0
 1817.00097656 384.166015624 1843.50097656 369.666015625 1868.50097656 352.999023438 c 0
 1893.50097656 336.332031249 1913.83398437 315.33203125 1929.50097656 289.999023438 c 0
 1945.16796875 264.666015624 1953.00097656 231.999023438 1953.00097656 191.999023438 c 0
 1953.00097656 147.999023438 1943.00097656 110.83203125 1923.00097656 80.4990234375 c 0
 1903.00097656 50.166015625 1876.50097656 27.3330078125 1843.50097656 12 c 0
 1810.50097656 -3.3330078125 1773.66796875 -11 1733.00097656 -11 c 0
1722 -102.000976562 m 1
 1722 19.9990234375 l 1
 1777 19.9990234375 l 1
 1777 -102.000976562 l 1
 1722 -102.000976562 l 1
1722 712.999023438 m 1
 1722 833.999023438 l 1
 1777 833.999023438 l 1
 1777 712.999023438 l 1
 1722 712.999023438 l 1
EndSplineSet
Fore
SplineSet
288 -11 m 0
 257.556101423 -11 173.930338461 -6.4427613484 84.9990234375 55.9990234375 c 1
 119.999023438 112.999023438 l 1
 163.186744717 83.1794322626 221.816811978 56 291.999023438 56 c 0
 351.277865513 56 428.999023438 82.929480848 428.999023438 187 c 0
 428.999023438 204.625809736 428.999023437 255.412958175 363.999023438 298.000976562 c 0
 349.839292605 307.278436209 349.839292606 307.278436211 230.999023438 365 c 0
 123.894118577 417.021613896 102 482.212615348 102 547.997070312 c 0
 102 685.763174218 226.764593447 741.997070312 320 741.997070312 c 0
 386.440728729 741.997070312 534 707 534 567 c 1
 534 567 457 567 457 566 c 1
 457 620 403.437124034 675.998046875 315 675.998046875 c 0
 266.483959013 675.998046875 180 650.432278905 180 550.999023438 c 0
 180 530.879390257 180.000000001 476.813457033 264.5 433.999023438 c 0
 420.762939472 354.823766095 420.762939472 354.823766095 423.5 352.999023438 c 0
 445.451772382 338.364222686 508 296.664589843 508 191.999023438 c 0
 508 52.1369514011 400.920924634 -11 288 -11 c 0
276.999023438 -102.000976562 m 1
 276.999023438 19.9990234375 l 1
 331.999023438 19.9990234375 l 1
 331.999023438 -102.000976562 l 1
 276.999023438 -102.000976562 l 1
276.999023438 712.999023438 m 1
 276.999023438 833.999023438 l 1
 331.999023438 833.999023438 l 1
 331.999023438 712.999023438 l 1
 276.999023438 712.999023438 l 1
EndSplineSet
Validated: 5
EndChar

StartChar: percent
Encoding: 8 37 8
Width: 934
GlyphClass: 1
Flags: HW
LayerCount: 2
Back
SplineSet
338 609 m 0
 338 661.666992188 327.833007812 702.5 307.5 731.5 c 0
 287.166992188 760.5 258 775 220 775 c 0
 180.666992188 775 150.5 760.666992188 129.5 732 c 0
 108.5 703.333007812 98 663 98 611 c 0
 98 559 109 518 131 488 c 0
 153 458 182.333007812 443 219 443 c 0
 253.666992188 443 282.166992188 458 304.5 488 c 0
 326.833007812 518 338 558.333007812 338 609 c 0
405 610 m 0
 405 566.666992188 397.166992188 528.33203125 381.5 494.999023438 c 0
 365.833007812 461.666015625 343.833007812 435.833007812 315.5 417.5 c 0
 287.166992188 399.166992188 254.666992188 390 218 390 c 0
 179.333007812 390 146 399 118 417 c 0
 90 435 68.5 460.5 53.5 493.5 c 0
 38.5 526.5 31 565 31 609 c 0
 31 677 48 730.833007812 82 770.5 c 0
 116 810.166992188 162.333007812 830 221 830 c 0
 279 830 324.166992188 810.666992188 356.5 772 c 0
 388.833007812 733.333007812 405 679.333007812 405 610 c 0
835 208.998046875 m 0
 835 261.665039062 824.833007812 302.6640625 804.5 331.997070312 c 0
 784.166992188 361.330078125 755 375.997070312 717 375.997070312 c 0
 677.666992188 375.997070312 647.5 361.497070312 626.5 332.497070312 c 0
 605.5 303.497070312 595 262.6640625 595 209.997070312 c 0
 595 158.6640625 606 117.831054688 628 87.498046875 c 0
 650 57.1650390625 679.333007812 41.998046875 716 41.998046875 c 0
 750.666992188 41.998046875 779.166992188 57.1650390625 801.5 87.498046875 c 0
 823.833007812 117.831054688 835 158.331054688 835 208.998046875 c 0
902 209.997070312 m 0
 902 166.6640625 894 128.49609375 878 95.49609375 c 0
 862 62.49609375 840 36.49609375 812 17.49609375 c 0
 784 -1.50390625 751.666992188 -11.00390625 715 -11.00390625 c 0
 676.333007812 -11.00390625 643 -1.8369140625 615 16.49609375 c 0
 587 34.8291015625 565.5 60.49609375 550.5 93.49609375 c 0
 535.5 126.49609375 528 164.99609375 528 208.99609375 c 0
 528 276.99609375 545 330.663085938 579 369.99609375 c 0
 613 409.329101562 659.333007812 428.99609375 718 428.99609375 c 0
 776 428.99609375 821.166992188 409.829101562 853.5 371.49609375 c 0
 885.833007812 333.163085938 902 279.330078125 902 209.997070312 c 0
738 835.99609375 m 1
 668 835.99609375 l 1
 193 -11.00390625 l 1
 266 -13.00390625 l 1
 738 835.99609375 l 1
EndSplineSet
Fore
SplineSet
338 609 m 0
 338 661.666992188 327.833007812 702.5 307.5 731.5 c 0
 287.166992188 760.5 258 775 220 775 c 0
 180.666992188 775 150.5 760.666992188 129.5 732 c 0
 108.5 703.333007812 98 663 98 611 c 0
 98 559 109 518 131 488 c 0
 153 458 182.333007812 443 219 443 c 0
 253.666992188 443 282.166992188 458 304.5 488 c 0
 326.833007812 518 338 558.333007812 338 609 c 0
405 610 m 0
 405 566.666992188 397.166992188 528.33203125 381.5 494.999023438 c 0
 365.833007812 461.666015625 343.833007812 435.833007812 315.5 417.5 c 0
 287.166992188 399.166992188 254.666992188 390 218 390 c 0
 179.333007812 390 146 399 118 417 c 0
 90 435 68.5 460.5 53.5 493.5 c 0
 38.5 526.5 31 565 31 609 c 0
 31 677 48 730.833007812 82 770.5 c 0
 116 810.166992188 162.333007812 830 221 830 c 0
 279 830 324.166992188 810.666992188 356.5 772 c 0
 388.833007812 733.333007812 405 679.333007812 405 610 c 0
835 208.998046875 m 0
 835 261.665039062 824.833007812 302.6640625 804.5 331.997070312 c 0
 784.166992188 361.330078125 755 375.997070312 717 375.997070312 c 0
 677.666992188 375.997070312 647.5 361.497070312 626.5 332.497070312 c 0
 605.5 303.497070312 595 262.6640625 595 209.997070312 c 0
 595 158.6640625 606 117.831054688 628 87.498046875 c 0
 650 57.1650390625 679.333007812 41.998046875 716 41.998046875 c 0
 750.666992188 41.998046875 779.166992188 57.1650390625 801.5 87.498046875 c 0
 823.833007812 117.831054688 835 158.331054688 835 208.998046875 c 0
902 209.997070312 m 0
 902 166.6640625 894 128.49609375 878 95.49609375 c 0
 862 62.49609375 840 36.49609375 812 17.49609375 c 0
 784 -1.50390625 751.666992188 -11.00390625 715 -11.00390625 c 0
 676.333007812 -11.00390625 643 -1.8369140625 615 16.49609375 c 0
 587 34.8291015625 565.5 60.49609375 550.5 93.49609375 c 0
 535.5 126.49609375 528 164.99609375 528 208.99609375 c 0
 528 276.99609375 545 330.663085938 579 369.99609375 c 0
 613 409.329101562 659.333007812 428.99609375 718 428.99609375 c 0
 776 428.99609375 821.166992188 409.829101562 853.5 371.49609375 c 0
 885.833007812 333.163085938 902 279.330078125 902 209.997070312 c 0
738 835.99609375 m 1
 668 835.99609375 l 1
 193 -11.00390625 l 1
 266 -13.00390625 l 1
 738 835.99609375 l 1
EndSplineSet
Validated: 9
EndChar

StartChar: ampersand
Encoding: 9 38 9
Width: 746
GlyphClass: 1
Flags: HW
LayerCount: 2
Back
SplineSet
308 -11 m 0
 263.333007812 -11 222.331054688 -1.662109375 184.998046875 17.0048828125 c 0
 147.665039062 35.671875 117.83203125 62.171875 95.4990234375 96.5048828125 c 0
 73.166015625 130.837890625 61.9990234375 172.337890625 61.9990234375 221.004882812 c 0
 61.9990234375 255.004882812 69.83203125 285.837890625 85.4990234375 313.504882812 c 0
 101.166015625 341.171875 120.999023438 367.171875 144.999023438 391.504882812 c 0
 168.999023438 415.837890625 194.666015625 439.170898438 221.999023438 461.50390625 c 0
 249.33203125 483.836914062 275.165039062 506.336914062 299.498046875 529.00390625 c 0
 323.831054688 551.670898438 343.6640625 575.670898438 358.997070312 601.00390625 c 0
 374.330078125 626.336914062 381.997070312 654.00390625 381.997070312 684.00390625 c 0
 381.997070312 715.336914062 373.830078125 738.669921875 357.497070312 754.002929688 c 0
 341.1640625 769.3359375 320.997070312 777.002929688 296.997070312 777.002929688 c 0
 271.6640625 777.002929688 249.997070312 769.169921875 231.997070312 753.502929688 c 0
 213.997070312 737.8359375 204.997070312 714.668945312 204.997070312 684.001953125 c 0
 204.997070312 657.334960938 212.830078125 627.501953125 228.497070312 594.501953125 c 0
 244.1640625 561.501953125 265.331054688 526.334960938 291.998046875 489.001953125 c 0
 318.665039062 451.668945312 348.83203125 413.3359375 382.499023438 374.002929688 c 0
 416.166015625 334.669921875 451.333007812 295.669921875 488 257.002929688 c 0
 524.666992188 218.3359375 560.833984375 181.168945312 596.500976562 145.501953125 c 0
 632.16796875 109.834960938 665.000976562 76.66796875 695.000976562 46.0009765625 c 1
 645.000976562 -3.9990234375 l 1
 613.000976562 27.333984375 578.16796875 61.6669921875 540.500976562 99 c 0
 502.833984375 136.333007812 464.666992188 175.166015625 426 215.499023438 c 0
 387.333007812 255.83203125 350.166015625 296.665039062 314.499023438 337.998046875 c 0
 278.83203125 379.331054688 247.165039062 420.331054688 219.498046875 460.998046875 c 0
 191.831054688 501.665039062 169.831054688 540.665039062 153.498046875 577.998046875 c 0
 137.165039062 615.331054688 128.998046875 650.331054688 128.998046875 682.998046875 c 0
 128.998046875 716.998046875 136.831054688 745.165039062 152.498046875 767.498046875 c 0
 168.165039062 789.831054688 188.665039062 806.831054688 213.998046875 818.498046875 c 0
 239.331054688 830.165039062 266.6640625 835.998046875 295.997070312 835.998046875 c 0
 325.330078125 835.998046875 352.330078125 830.331054688 376.997070312 818.998046875 c 0
 401.6640625 807.665039062 421.497070312 790.83203125 436.497070312 768.499023438 c 0
 451.497070312 746.166015625 458.997070312 717.999023438 458.997070312 683.999023438 c 0
 458.997070312 649.999023438 451.1640625 618.83203125 435.497070312 590.499023438 c 0
 419.830078125 562.166015625 399.997070312 535.999023438 375.997070312 511.999023438 c 0
 351.997070312 487.999023438 326.330078125 464.83203125 298.997070312 442.499023438 c 0
 271.6640625 420.166015625 245.831054688 397.666015625 221.498046875 374.999023438 c 0
 197.165039062 352.33203125 177.33203125 328.499023438 161.999023438 303.499023438 c 0
 146.666015625 278.499023438 138.999023438 251.33203125 138.999023438 221.999023438 c 0
 138.999023438 185.999023438 146.999023438 155.33203125 162.999023438 129.999023438 c 0
 178.999023438 104.666015625 200.33203125 85.3330078125 226.999023438 72 c 0
 253.666015625 58.6669921875 282.666015625 52 313.999023438 52 c 0
 345.999023438 52 376.83203125 58.8330078125 406.499023438 72.5 c 0
 436.166015625 86.1669921875 462.999023438 107.333984375 486.999023438 136.000976562 c 0
 510.999023438 164.66796875 529.999023438 201.66796875 543.999023438 247.000976562 c 0
 557.999023438 292.333984375 564.999023438 346.666992188 564.999023438 410 c 1
 638.999023438 410 l 1
 638.999023438 338 629.83203125 275.666992188 611.499023438 223 c 0
 593.166015625 170.333007812 568.333007812 126.833007812 537 92.5 c 0
 505.666992188 58.1669921875 470.166992188 32.5 430.5 15.5 c 0
 390.833007812 -1.5 350 -10.3330078125 308 -11 c 0
EndSplineSet
Fore
SplineSet
308 -11 m 0
 263.333007812 -11 222.331054688 -1.662109375 184.998046875 17.0048828125 c 0
 147.665039062 35.671875 117.83203125 62.171875 95.4990234375 96.5048828125 c 0
 73.166015625 130.837890625 61.9990234375 172.337890625 61.9990234375 221.004882812 c 0
 61.9990234375 255.004882812 69.83203125 285.837890625 85.4990234375 313.504882812 c 0
 101.166015625 341.171875 120.999023438 367.171875 144.999023438 391.504882812 c 0
 168.999023438 415.837890625 194.666015625 439.170898438 221.999023438 461.50390625 c 0
 249.33203125 483.836914062 275.165039062 506.336914062 299.498046875 529.00390625 c 0
 323.831054688 551.670898438 343.6640625 575.670898438 358.997070312 601.00390625 c 0
 374.330078125 626.336914062 381.997070312 654.00390625 381.997070312 684.00390625 c 0
 381.997070312 715.336914062 373.830078125 738.669921875 357.497070312 754.002929688 c 0
 341.1640625 769.3359375 320.997070312 777.002929688 296.997070312 777.002929688 c 0
 271.6640625 777.002929688 249.997070312 769.169921875 231.997070312 753.502929688 c 0
 213.997070312 737.8359375 204.997070312 714.668945312 204.997070312 684.001953125 c 0
 204.997070312 657.334960938 212.830078125 627.501953125 228.497070312 594.501953125 c 0
 244.1640625 561.501953125 265.331054688 526.334960938 291.998046875 489.001953125 c 0
 318.665039062 451.668945312 348.83203125 413.3359375 382.499023438 374.002929688 c 0
 416.166015625 334.669921875 451.333007812 295.669921875 488 257.002929688 c 0
 524.666992188 218.3359375 560.833984375 181.168945312 596.500976562 145.501953125 c 0
 632.16796875 109.834960938 665.000976562 76.66796875 695.000976562 46.0009765625 c 1
 645.000976562 -3.9990234375 l 1
 613.000976562 27.333984375 578.16796875 61.6669921875 540.500976562 99 c 0
 502.833984375 136.333007812 464.666992188 175.166015625 426 215.499023438 c 0
 387.333007812 255.83203125 350.166015625 296.665039062 314.499023438 337.998046875 c 0
 278.83203125 379.331054688 247.165039062 420.331054688 219.498046875 460.998046875 c 0
 191.831054688 501.665039062 169.831054688 540.665039062 153.498046875 577.998046875 c 0
 137.165039062 615.331054688 128.998046875 650.331054688 128.998046875 682.998046875 c 0
 128.998046875 716.998046875 136.831054688 745.165039062 152.498046875 767.498046875 c 0
 168.165039062 789.831054688 188.665039062 806.831054688 213.998046875 818.498046875 c 0
 239.331054688 830.165039062 266.6640625 835.998046875 295.997070312 835.998046875 c 0
 325.330078125 835.998046875 352.330078125 830.331054688 376.997070312 818.998046875 c 0
 401.6640625 807.665039062 421.497070312 790.83203125 436.497070312 768.499023438 c 0
 451.497070312 746.166015625 458.997070312 717.999023438 458.997070312 683.999023438 c 0
 458.997070312 649.999023438 451.1640625 618.83203125 435.497070312 590.499023438 c 0
 419.830078125 562.166015625 399.997070312 535.999023438 375.997070312 511.999023438 c 0
 351.997070312 487.999023438 326.330078125 464.83203125 298.997070312 442.499023438 c 0
 271.6640625 420.166015625 245.831054688 397.666015625 221.498046875 374.999023438 c 0
 197.165039062 352.33203125 177.33203125 328.499023438 161.999023438 303.499023438 c 0
 146.666015625 278.499023438 138.999023438 251.33203125 138.999023438 221.999023438 c 0
 138.999023438 185.999023438 146.999023438 155.33203125 162.999023438 129.999023438 c 0
 178.999023438 104.666015625 200.33203125 85.3330078125 226.999023438 72 c 0
 253.666015625 58.6669921875 282.666015625 52 313.999023438 52 c 0
 345.999023438 52 376.83203125 58.8330078125 406.499023438 72.5 c 0
 436.166015625 86.1669921875 462.999023438 107.333984375 486.999023438 136.000976562 c 0
 510.999023438 164.66796875 529.999023438 201.66796875 543.999023438 247.000976562 c 0
 557.999023438 292.333984375 564.999023438 346.666992188 564.999023438 410 c 1
 638.999023438 410 l 1
 638.999023438 338 629.83203125 275.666992188 611.499023438 223 c 0
 593.166015625 170.333007812 568.333007812 126.833007812 537 92.5 c 0
 505.666992188 58.1669921875 470.166992188 32.5 430.5 15.5 c 0
 390.833007812 -1.5 350 -10.3330078125 308 -11 c 0
EndSplineSet
Validated: 5
EndChar

StartChar: quotesingle
Encoding: 10 39 10
Width: 178
GlyphClass: 1
Flags: HW
LayerCount: 2
Back
SplineSet
115 594 m 1
 62 594 l 1
 49 830 l 1
 128 830 l 1
 115 594 l 1
EndSplineSet
Fore
SplineSet
115 594 m 1
 62 594 l 1
 49 830 l 1
 128 830 l 1
 115 594 l 1
EndSplineSet
Validated: 1
EndChar

StartChar: parenleft
Encoding: 11 40 11
Width: 316
GlyphClass: 1
Flags: HW
LayerCount: 2
Back
SplineSet
299 -168 m 1
 237.000976562 -199.998046875 l 1
 187.000976562 -117.331054688 149.500976562 -30.8310546875 124.500976562 59.501953125 c 0
 99.5009765625 149.834960938 87.0009765625 240.66796875 87.0009765625 332.000976562 c 0
 87.0009765625 425.333984375 99.66796875 517.666992188 125.000976562 609 c 0
 150.333984375 700.333007812 187.666992188 787 237 869 c 1
 299 838 l 1
 252.333007812 762 217.333007812 681.333007812 194 596 c 0
 170.666992188 510.666992188 159 424 159 336 c 0
 159 248 170.833007812 161 194.5 75 c 0
 218.166992188 -11 253 -92 299 -168 c 1
EndSplineSet
Fore
SplineSet
299 -168 m 1
 237.000976562 -199.998046875 l 1
 187.000976562 -117.331054688 149.500976562 -30.8310546875 124.500976562 59.501953125 c 0
 99.5009765625 149.834960938 87.0009765625 240.66796875 87.0009765625 332.000976562 c 0
 87.0009765625 425.333984375 99.66796875 517.666992188 125.000976562 609 c 0
 150.333984375 700.333007812 187.666992188 787 237 869 c 1
 299 838 l 1
 252.333007812 762 217.333007812 681.333007812 194 596 c 0
 170.666992188 510.666992188 159 424 159 336 c 0
 159 248 170.833007812 161 194.5 75 c 0
 218.166992188 -11 253 -92 299 -168 c 1
EndSplineSet
Validated: 1
EndChar

StartChar: parenright
Encoding: 12 41 12
Width: 315
GlyphClass: 1
Flags: HW
LayerCount: 2
Back
SplineSet
19 849 m 1
 81 881 l 1
 131 799 168.5 712.833007812 193.5 622.5 c 0
 218.5 532.166992188 231 441 231 349 c 0
 231 255.666992188 218.5 163.5 193.5 72.5 c 0
 168.5 -18.5 131 -105.333007812 81 -188 c 1
 20 -157 l 1
 66 -81 100.666992188 -0.1669921875 124 85.5 c 0
 147.333007812 171.166992188 159 257.666992188 159 345 c 0
 159 433 147.333007812 520 124 606 c 0
 100.666992188 692 65.6669921875 773 19 849 c 1
EndSplineSet
Fore
SplineSet
19 849 m 1
 81 881 l 1
 131 799 168.5 712.833007812 193.5 622.5 c 0
 218.5 532.166992188 231 441 231 349 c 0
 231 255.666992188 218.5 163.5 193.5 72.5 c 0
 168.5 -18.5 131 -105.333007812 81 -188 c 1
 20 -157 l 1
 66 -81 100.666992188 -0.1669921875 124 85.5 c 0
 147.333007812 171.166992188 159 257.666992188 159 345 c 0
 159 433 147.333007812 520 124 606 c 0
 100.666992188 692 65.6669921875 773 19 849 c 1
EndSplineSet
Validated: 1
EndChar

StartChar: asterisk
Encoding: 13 42 13
Width: 420
GlyphClass: 1
Flags: HW
LayerCount: 2
Back
SplineSet
194 678 m 1
 172 812.999023438 l 1
 188.666992188 820.33203125 202.666992188 822.999023438 214 820.999023438 c 0
 225.333007812 818.999023438 233.5 813.33203125 238.5 803.999023438 c 0
 243.5 794.666015625 244.333007812 782.333007812 241 767 c 2
 223 678 l 1
 194 678 l 1
178 643.999023438 m 1
 41 664 l 1
 39 682.666992188 40.6669921875 697.166992188 46 707.5 c 0
 51.3330078125 717.833007812 59.3330078125 723.666015625 70 724.999023438 c 0
 80.6669921875 726.33203125 92.6669921875 722.999023438 106 714.999023438 c 2
 187 669.999023438 l 1
 178 643.999023438 l 1
203 619 m 1
 142 496.000976562 l 1
 123.333007812 500.000976562 110 506.16796875 102 514.500976562 c 0
 94 522.833984375 91 532.166992188 93 542.5 c 0
 95 552.833007812 101.666992188 563 113 573 c 2
 182 636 l 1
 203 619 l 1
237 635.000976562 m 1
 335 537.000976562 l 1
 327 520.333984375 317.833007812 509.500976562 307.5 504.500976562 c 0
 297.166992188 499.500976562 287.166992188 499.833984375 277.5 505.500976562 c 0
 267.833007812 511.16796875 260 520.66796875 254 534.000976562 c 2
 214 618.000976562 l 1
 237 635.000976562 l 1
231 671.000976562 m 1
 352.001953125 734.001953125 l 1
 365.334960938 720.001953125 372.66796875 707.168945312 374.000976562 695.501953125 c 0
 375.333984375 683.834960938 372.166992188 674.66796875 364.5 668.000976562 c 0
 356.833007812 661.333984375 345 657.333984375 329 656.000976562 c 2
 240 644.000976562 l 1
 231 671.000976562 l 1
EndSplineSet
Fore
SplineSet
194 678 m 1
 172 812.999023438 l 1
 188.666992188 820.33203125 202.666992188 822.999023438 214 820.999023438 c 0
 225.333007812 818.999023438 233.5 813.33203125 238.5 803.999023438 c 0
 243.5 794.666015625 244.333007812 782.333007812 241 767 c 2
 223 678 l 1
 194 678 l 1
178 643.999023438 m 1
 41 664 l 1
 39 682.666992188 40.6669921875 697.166992188 46 707.5 c 0
 51.3330078125 717.833007812 59.3330078125 723.666015625 70 724.999023438 c 0
 80.6669921875 726.33203125 92.6669921875 722.999023438 106 714.999023438 c 2
 187 669.999023438 l 1
 178 643.999023438 l 1
203 619 m 1
 142 496.000976562 l 1
 123.333007812 500.000976562 110 506.16796875 102 514.500976562 c 0
 94 522.833984375 91 532.166992188 93 542.5 c 0
 95 552.833007812 101.666992188 563 113 573 c 2
 182 636 l 1
 203 619 l 1
237 635.000976562 m 1
 335 537.000976562 l 1
 327 520.333984375 317.833007812 509.500976562 307.5 504.500976562 c 0
 297.166992188 499.500976562 287.166992188 499.833984375 277.5 505.500976562 c 0
 267.833007812 511.16796875 260 520.66796875 254 534.000976562 c 2
 214 618.000976562 l 1
 237 635.000976562 l 1
231 671.000976562 m 1
 352.001953125 734.001953125 l 1
 365.334960938 720.001953125 372.66796875 707.168945312 374.000976562 695.501953125 c 0
 375.333984375 683.834960938 372.166992188 674.66796875 364.5 668.000976562 c 0
 356.833007812 661.333984375 345 657.333984375 329 656.000976562 c 2
 240 644.000976562 l 1
 231 671.000976562 l 1
EndSplineSet
Validated: 33
EndChar

StartChar: plus
Encoding: 14 43 14
Width: 529
GlyphClass: 1
Flags: HW
LayerCount: 2
Back
SplineSet
229 71 m 1
 229 519 l 1
 302 519 l 1
 302 71 l 1
 229 71 l 1
32 262 m 1
 32 327 l 1
 497 327 l 1
 497 262 l 1
 32 262 l 1
EndSplineSet
Fore
SplineSet
229 71 m 1
 229 519 l 1
 302 519 l 1
 302 71 l 1
 229 71 l 1
32 262 m 1
 32 327 l 1
 497 327 l 1
 497 262 l 1
 32 262 l 1
EndSplineSet
Validated: 5
EndChar

StartChar: comma
Encoding: 15 44 15
Width: 212
GlyphClass: 1
Flags: HW
LayerCount: 2
Back
SplineSet
62 -147 m 1
 33.0009765625 -124.001953125 l 1
 40.333984375 -112.001953125 47.6669921875 -99.3349609375 55 -86.001953125 c 0
 62.3330078125 -72.6689453125 68.666015625 -59.1689453125 73.9990234375 -45.501953125 c 0
 79.33203125 -31.8349609375 82.9990234375 -19.66796875 84.9990234375 -9.0009765625 c 1
 70.33203125 -5.0009765625 59.4990234375 2.4990234375 52.4990234375 13.4990234375 c 0
 45.4990234375 24.4990234375 41.9990234375 35.9990234375 41.9990234375 47.9990234375 c 0
 41.9990234375 68.666015625 47.9990234375 84.3330078125 59.9990234375 95 c 0
 71.9990234375 105.666992188 84.9990234375 111 98.9990234375 111 c 0
 113.666015625 111 127.166015625 105.333007812 139.499023438 94 c 0
 151.83203125 82.6669921875 157.999023438 65 157.999023438 41 c 0
 157.999023438 23 153.999023438 3 145.999023438 -19 c 0
 137.999023438 -41 126.83203125 -63.1669921875 112.499023438 -85.5 c 0
 98.166015625 -107.833007812 81.3330078125 -128.333007812 62 -147 c 1
EndSplineSet
Fore
SplineSet
62 -147 m 1
 33.0009765625 -124.001953125 l 1
 40.333984375 -112.001953125 47.6669921875 -99.3349609375 55 -86.001953125 c 0
 62.3330078125 -72.6689453125 68.666015625 -59.1689453125 73.9990234375 -45.501953125 c 0
 79.33203125 -31.8349609375 82.9990234375 -19.66796875 84.9990234375 -9.0009765625 c 1
 70.33203125 -5.0009765625 59.4990234375 2.4990234375 52.4990234375 13.4990234375 c 0
 45.4990234375 24.4990234375 41.9990234375 35.9990234375 41.9990234375 47.9990234375 c 0
 41.9990234375 68.666015625 47.9990234375 84.3330078125 59.9990234375 95 c 0
 71.9990234375 105.666992188 84.9990234375 111 98.9990234375 111 c 0
 113.666015625 111 127.166015625 105.333007812 139.499023438 94 c 0
 151.83203125 82.6669921875 157.999023438 65 157.999023438 41 c 0
 157.999023438 23 153.999023438 3 145.999023438 -19 c 0
 137.999023438 -41 126.83203125 -63.1669921875 112.499023438 -85.5 c 0
 98.166015625 -107.833007812 81.3330078125 -128.333007812 62 -147 c 1
EndSplineSet
Validated: 1
EndChar

StartChar: hyphen
Encoding: 16 45 16
Width: 372
GlyphClass: 1
Flags: HW
LayerCount: 2
Back
SplineSet
320 335 m 1
 320 275 l 1
 51 275 l 1
 51 335 l 1
 320 335 l 1
EndSplineSet
Fore
SplineSet
320 335 m 1
 320 275 l 1
 51 275 l 1
 51 335 l 1
 320 335 l 1
EndSplineSet
Validated: 1
EndChar

StartChar: period
Encoding: 17 46 17
Width: 227
GlyphClass: 1
Flags: HW
LayerCount: 2
Back
SplineSet
113 -9 m 0
 97.6669921875 -9 84.9990234375 -3.6669921875 74.9990234375 7 c 0
 64.9990234375 17.6669921875 59.9990234375 32.6669921875 59.9990234375 52 c 0
 59.9990234375 70 64.9990234375 84.1669921875 74.9990234375 94.5 c 0
 84.9990234375 104.833007812 97.666015625 110 112.999023438 110 c 0
 128.999023438 110 141.999023438 104.833007812 151.999023438 94.5 c 0
 161.999023438 84.1669921875 166.999023438 70 166.999023438 52 c 0
 166.999023438 33.3330078125 161.83203125 18.5 151.499023438 7.5 c 0
 141.166015625 -3.5 128.333007812 -9 113 -9 c 0
EndSplineSet
Fore
SplineSet
113 -9 m 0
 87.7919402588 -9 59.9990234375 7.32799756167 59.9990234375 52 c 0
 59.9990234375 91.9480143849 85.8327462673 110 112.999023438 110 c 0
 142.41982583 110 166.999023438 90.990512321 166.999023438 52 c 0
 166.999023438 10.8131979987 140.444007477 -9 113 -9 c 0
EndSplineSet
Validated: 1
EndChar

StartChar: slash
Encoding: 18 47 18
Width: 442
GlyphClass: 1
Flags: HW
LayerCount: 2
Back
SplineSet
424 825 m 1
 99 -80 l 1
 29 -79 l 1
 357 825 l 1
 424 825 l 1
EndSplineSet
Fore
SplineSet
394 737.002929688 m 1
 132 0 l 1
 62 1 l 1
 327 737.002929688 l 1
 394 737.002929688 l 1
EndSplineSet
Validated: 1
EndChar

StartChar: zero
Encoding: 19 48 19
Width: 534
GlyphClass: 1
Flags: HW
LayerCount: 2
Back
SplineSet
427 344 m 0
 427 410.666992188 420.833984375 464.66796875 408.500976562 506.000976562 c 0
 396.16796875 547.333984375 379.16796875 577.833984375 357.500976562 597.500976562 c 0
 335.833984375 617.16796875 310.666992188 627.000976562 282 627.000976562 c 0
 252.666992188 627.000976562 227 617.16796875 205 597.500976562 c 0
 183 577.833984375 165.833007812 547.000976562 153.5 505.000976562 c 0
 141.166992188 463.000976562 135 408.333984375 135 341.000976562 c 0
 135 271.66796875 141.333007812 215.500976562 154 172.500976562 c 0
 166.666992188 129.500976562 184 98.0009765625 206 78.0009765625 c 0
 228 58.0009765625 252.333007812 48.0009765625 279 48.0009765625 c 0
 305.666992188 48.0009765625 330.166992188 57.833984375 352.5 77.5009765625 c 0
 374.833007812 97.16796875 392.833007812 128.66796875 406.5 172.000976562 c 0
 420.166992188 215.333984375 427 272.666992188 427 344 c 0
496.000976562 346.000976562 m 0
 496.000976562 264.000976562 487 196.833984375 469 144.500976562 c 0
 451 92.16796875 425.666992188 53.5009765625 393 28.5009765625 c 0
 360.333007812 3.5009765625 322 -8.9990234375 278 -8.9990234375 c 0
 212.666992188 -8.9990234375 160.833984375 19.16796875 122.500976562 75.5009765625 c 0
 84.16796875 131.833984375 65.0009765625 219.000976562 65.0009765625 337.000976562 c 0
 65.0009765625 457.000976562 84.5009765625 544.833984375 123.500976562 600.500976562 c 0
 162.500976562 656.16796875 216.000976562 684.000976562 284.000976562 684.000976562 c 0
 351.333984375 684.000976562 403.500976562 656.66796875 440.500976562 602.000976562 c 0
 477.500976562 547.333984375 496.000976562 462.000976562 496.000976562 346.000976562 c 0
EndSplineSet
Fore
SplineSet
108 324 m 4
 108 188.784179688 147.75 67 267 67 c 4
 386.25 67 426 188.784179688 426 324 c 4
 426 459.215820312 386.25 581 267 581 c 4
 147.75 581 108 459.215820312 108 324 c 4
40 324 m 4
 40 507.965820312 98.5517578125 648 267 648 c 4
 435.448242188 648 494 507.965820312 494 324 c 4
 494 140.034179688 435.448242188 0 267 0 c 4
 98.5517578125 0 40 140.034179688 40 324 c 4
EndSplineSet
Validated: 1
Substitution2: "'onum' Oldstyle Figures in Sinhala lookup 22 subtable" zero.osf
EndChar

StartChar: one
Encoding: 20 49 20
Width: 293
GlyphClass: 1
Flags: HW
LayerCount: 2
Back
SplineSet
209 614 m 1
 189 636 l 1
 189 0 l 1
 256 0 l 1
 256 675 l 1
 198 675 l 1
 33 585 l 1
 54 529 l 1
 209 614 l 1
76 0 m 1
 354 0 l 1
 354 52 l 1
 76 52 l 1
 76 0 l 1
EndSplineSet
Fore
SplineSet
196 579 m 5
 175 601 l 5
 175 0 l 1
 243 0 l 1
 243 640 l 5
 184 640 l 5
 184 640 97 576 40 576 c 5
 40 562 40 522 40 514 c 5
 106 515 196 579 196 579 c 5
EndSplineSet
Validated: 5
Substitution2: "'onum' Oldstyle Figures in Sinhala lookup 22 subtable" one.osf
Substitution2: "'sups' Superscript in Sinhala lookup 17 subtable" uni00B9
Substitution2: "'aalt' Access All Alternates in Sinhala lookup 0 subtable" uni00B9
EndChar

StartChar: two
Encoding: 21 50 21
Width: 476
GlyphClass: 1
Flags: HW
LayerCount: 2
Back
SplineSet
41 1 m 1
 41.0029296875 37.0009765625 l 1
 186.002929688 253.000976562 l 2
 199.3359375 273.000976562 213.668945312 294.000976562 229.001953125 316.000976562 c 0
 244.334960938 338.000976562 258.834960938 360.500976562 272.501953125 383.500976562 c 0
 286.168945312 406.500976562 297.3359375 429.000976562 306.002929688 451.000976562 c 0
 314.669921875 473.000976562 319.002929688 494.000976562 319.002929688 514.000976562 c 0
 319.002929688 538.66796875 313.669921875 559.16796875 303.002929688 575.500976562 c 0
 292.3359375 591.833984375 278.668945312 604.166992188 262.001953125 612.5 c 0
 245.334960938 620.833007812 227.334960938 625 208.001953125 625 c 0
 187.334960938 625 166.66796875 619.666992188 146.000976562 609 c 0
 125.333984375 598.333007812 108.000976562 582.666015625 94.0009765625 561.999023438 c 1
 39.0009765625 586.999023438 l 1
 51.66796875 608.999023438 67.16796875 627.166015625 85.5009765625 641.499023438 c 0
 103.833984375 655.83203125 123.666992188 666.499023438 145 673.499023438 c 0
 166.333007812 680.499023438 188 683.999023438 210 683.999023438 c 0
 240.666992188 683.999023438 269.5 677.499023438 296.5 664.499023438 c 0
 323.5 651.499023438 345.5 632.83203125 362.5 608.499023438 c 0
 379.5 584.166015625 388 553.999023438 388 517.999023438 c 0
 388 492.666015625 382.833007812 466.833007812 372.5 440.5 c 0
 362.166992188 414.166992188 348.833984375 388 332.500976562 362 c 0
 316.16796875 336 299.16796875 310.5 281.500976562 285.5 c 0
 263.833984375 260.5 247.666992188 236.666992188 233 214 c 2
 127 46 l 1
 120 59 l 1
 395 59 l 1
 395 1 l 1
 41 1 l 1
EndSplineSet
Fore
SplineSet
40 0 m 5
 40 55 l 5
 144 157 178 189 243 255 c 4
 319.572265625 332.750976562 367 363.5625 367 448 c 4
 367 532.759765625 302.146484375 572 233.001953125 572 c 4
 218.330078125 572 117.001953125 570.7890625 117.001953125 497 c 5
 49.001953125 497 49.001953125 497 49.001953125 497 c 5
 49.001953125 572.075195312 127.543945312 640 233.001953125 640 c 4
 320.668945312 640 435 581.938476562 435 448 c 4
 435 333 389.573242188 300.076171875 290 205 c 4
 241.5078125 158.697265625 221.836914062 140.825195312 135 54 c 5
 127 67 l 5
 127 67 436 67 436 68 c 5
 436 1 l 5
 436 0 40 0 40 0 c 5
EndSplineSet
Validated: 5
Substitution2: "'onum' Oldstyle Figures in Sinhala lookup 22 subtable" two.osf
Substitution2: "'sups' Superscript in Sinhala lookup 17 subtable" uni00B2
Substitution2: "'aalt' Access All Alternates in Sinhala lookup 0 subtable" uni00B2
EndChar

StartChar: three
Encoding: 22 51 22
Width: 476
GlyphClass: 1
Flags: HW
LayerCount: 2
Back
SplineSet
204 -9 m 0
 174.666992188 -9 145.169921875 -3.833984375 115.502929688 6.4990234375 c 0
 85.8359375 16.83203125 57.6689453125 32.9990234375 31.001953125 54.9990234375 c 1
 71.001953125 101.999023438 l 1
 91.6689453125 84.666015625 113.3359375 71.666015625 136.002929688 62.9990234375 c 0
 158.669921875 54.33203125 181.002929688 49.9990234375 203.002929688 49.9990234375 c 0
 229.002929688 49.9990234375 252.669921875 55.666015625 274.002929688 66.9990234375 c 0
 295.3359375 78.33203125 312.668945312 94.6650390625 326.001953125 115.998046875 c 0
 339.334960938 137.331054688 346.001953125 163.331054688 346.001953125 193.998046875 c 0
 346.001953125 217.998046875 340.668945312 240.331054688 330.001953125 260.998046875 c 0
 319.334960938 281.665039062 303.501953125 298.33203125 282.501953125 310.999023438 c 0
 261.501953125 323.666015625 235.334960938 329.999023438 204.001953125 329.999023438 c 2
 145.001953125 329.999023438 l 1
 145.001953125 384.999023438 l 1
 183.001953125 384.999023438 l 2
 213.668945312 384.999023438 239.168945312 390.999023438 259.501953125 402.999023438 c 0
 279.834960938 414.999023438 295.16796875 430.83203125 305.500976562 450.499023438 c 0
 315.833984375 470.166015625 321.000976562 490.999023438 321.000976562 512.999023438 c 0
 321.000976562 537.666015625 315.833984375 558.333007812 305.500976562 575 c 0
 295.16796875 591.666992188 281.66796875 604.5 265.000976562 613.5 c 0
 248.333984375 622.5 230.666992188 627 212 627 c 0
 192 627 172.166992188 621.666992188 152.5 611 c 0
 132.833007812 600.333007812 116.666015625 584 103.999023438 562 c 1
 50.9990234375 591 l 1
 69.666015625 623.666992188 93.8330078125 647.333984375 123.5 662.000976562 c 0
 153.166992188 676.66796875 183.333984375 684.000976562 214.000976562 684.000976562 c 0
 244.66796875 684.000976562 273.16796875 677.66796875 299.500976562 665.000976562 c 0
 325.833984375 652.333984375 347.500976562 633.833984375 364.500976562 609.500976562 c 0
 381.500976562 585.16796875 390.000976562 555.66796875 390.000976562 521.000976562 c 0
 390.000976562 493.000976562 383.500976562 466.16796875 370.500976562 440.500976562 c 0
 357.500976562 414.833984375 338.500976562 394.166992188 313.500976562 378.5 c 0
 288.500976562 362.833007812 258.000976562 355 222.000976562 355 c 1
 222.000976562 371 l 1
 265.333984375 371 301.166992188 362.833007812 329.5 346.5 c 0
 357.833007812 330.166992188 379.333007812 308.5 394 281.5 c 0
 408.666992188 254.5 416 226 416 196 c 0
 416 152.666992188 406 115.666992188 386 85 c 0
 366 54.3330078125 340 31 308 15 c 0
 276 -1 241.333007812 -9 204 -9 c 0
EndSplineSet
Fore
SplineSet
239 -10 m 4
 138.963867188 -10 40 37.9482421875 40 160 c 5
 108 160 l 5
 108 87.443359375 180.317382812 58 239 58 c 4
 303.846679688 58 368 98.5400390625 368 179 c 4
 368 234.174804688 324.505859375 307 194 307 c 4
 156 307 l 5
 156 362 l 5
 194 362 l 4
 319.689453125 362 354 432.991210938 354 476 c 4
 354 546.927734375 283.982421875 572 237 572 c 4
 156.623046875 572 117 529.921875 117 497 c 5
 49 497 l 5
 49 560.427734375 100.2734375 640 237 640 c 4
 326.643554688 640 422 585.3203125 422 476 c 4
 422 416.418945312 381.095703125 332.000976562 268 332.000976562 c 5
 268 348.000976562 l 5
 404.611328125 348.000976562 436 235.842773438 436 179 c 4
 436 50.994140625 334.814453125 -10 239 -10 c 4
EndSplineSet
Validated: 5
Substitution2: "'onum' Oldstyle Figures in Sinhala lookup 22 subtable" three.osf
Substitution2: "'sups' Superscript in Sinhala lookup 17 subtable" uni00B3
Substitution2: "'aalt' Access All Alternates in Sinhala lookup 0 subtable" uni00B3
EndChar

StartChar: four
Encoding: 23 52 23
Width: 514
GlyphClass: 1
Flags: HW
LayerCount: 2
Back
SplineSet
325 0 m 1
 325 602 l 1
 348 602 l 1
 94 214 l 1
 84 228 l 1
 488 228 l 1
 488 171 l 1
 42 170 l 1
 32 219 l 1
 331 675 l 1
 392 675 l 1
 392 0 l 1
 325 0 l 1
EndSplineSet
Fore
SplineSet
316 0 m 1
 316 567 l 1
 339 567 l 1
 74 227 l 1
 63 241 l 1
 474 241 l 1
 474 176 l 1
 5 177 l 1
 5 232 l 1
 315 640 l 1
 384 640 l 1
 384 0 l 1
 316 0 l 1
EndSplineSet
Validated: 5
Substitution2: "'onum' Oldstyle Figures in Sinhala lookup 22 subtable" four.osf
EndChar

StartChar: five
Encoding: 24 53 24
Width: 476
GlyphClass: 1
Flags: HW
LayerCount: 2
Back
SplineSet
197 -9 m 0
 172.333007812 -9 147.1640625 -5.3310546875 121.497070312 2.001953125 c 0
 95.830078125 9.3349609375 70.9970703125 20.66796875 46.9970703125 36.0009765625 c 1
 79.9970703125 87.0009765625 l 1
 99.330078125 74.333984375 118.830078125 65.0009765625 138.497070312 59.0009765625 c 0
 158.1640625 53.0009765625 176.6640625 50.0009765625 193.997070312 50.0009765625 c 0
 226.6640625 50.0009765625 254.1640625 57.833984375 276.497070312 73.5009765625 c 0
 298.830078125 89.16796875 315.997070312 109.66796875 327.997070312 135.000976562 c 0
 339.997070312 160.333984375 345.997070312 187.666992188 345.997070312 217 c 0
 345.997070312 244.333007812 339.830078125 270.166015625 327.497070312 294.499023438 c 0
 315.1640625 318.83203125 296.497070312 338.83203125 271.497070312 354.499023438 c 0
 246.497070312 370.166015625 214.330078125 377.999023438 174.997070312 377.999023438 c 0
 160.997070312 377.999023438 146.330078125 376.83203125 130.997070312 374.499023438 c 0
 115.6640625 372.166015625 100.331054688 368.333007812 84.998046875 363 c 1
 84.998046875 675 l 1
 374.998046875 675 l 1
 374.998046875 618 l 1
 151.998046875 618 l 1
 151.998046875 427 l 1
 160.665039062 429 169.33203125 430.333007812 177.999023438 431 c 0
 186.666015625 431.666992188 194.999023438 432 202.999023438 432 c 0
 250.999023438 432 290.83203125 421.666992188 322.499023438 401 c 0
 354.166015625 380.333007812 377.833007812 353.833007812 393.5 321.5 c 0
 409.166992188 289.166992188 417 254.666992188 417 218 c 0
 417 181.333007812 409 145.5 393 110.5 c 0
 377 75.5 352.666992188 46.8330078125 320 24.5 c 0
 287.333007812 2.1669921875 246.333007812 -9 197 -9 c 0
EndSplineSet
Fore
SplineSet
368 204 m 0
 368 264.318359375 344.591796875 360 230 360 c 0
 176.315429688 360 142.5 336.534179688 130 328 c 1
 109 328 89.1875 328 64 328 c 1
 64 640 l 1
 409 640 l 1
 409 573 l 1
 132 573 l 1
 132 394 l 1
 149.8671875 404.63671875 178.245117188 420.000976562 235 420.000976562 c 0
 391.844726562 420.000976562 436 300.14453125 436 204 c 0
 436 69.7197265625 342 -10 236 -10 c 0
 137.471679688 -10 40 37.9482421875 40 160 c 1
 108 160 l 1
 108 87.443359375 178.661132812 58 236 58 c 0
 311 58 368 117.624023438 368 204 c 0
EndSplineSet
Validated: 1
Substitution2: "'onum' Oldstyle Figures in Sinhala lookup 22 subtable" five.osf
EndChar

StartChar: six
Encoding: 25 54 25
Width: 497
GlyphClass: 1
Flags: HW
LayerCount: 2
Back
SplineSet
271 -9 m 0
 223.666992188 -9 184.669921875 4.3330078125 154.002929688 31 c 0
 123.3359375 57.6669921875 100.3359375 94.6669921875 85.0029296875 142 c 0
 69.669921875 189.333007812 62.0029296875 244 62.0029296875 306 c 0
 62.0029296875 353.333007812 66.5029296875 399.5 75.5029296875 444.5 c 0
 84.5029296875 489.5 98.669921875 530 118.002929688 566 c 0
 137.3359375 602 162.168945312 630.666992188 192.501953125 652 c 0
 222.834960938 673.333007812 259.334960938 684 302.001953125 684 c 0
 334.001953125 684 363.668945312 677.666992188 391.001953125 665 c 0
 418.334960938 652.333007812 441.334960938 633.666015625 460.001953125 608.999023438 c 1
 415.001953125 572.999023438 l 1
 400.334960938 590.999023438 383.16796875 604.499023438 363.500976562 613.499023438 c 0
 343.833984375 622.499023438 323.333984375 626.999023438 302.000976562 626.999023438 c 0
 268.000976562 626.999023438 239.66796875 617.33203125 217.000976562 597.999023438 c 0
 194.333984375 578.666015625 176.666992188 553.333007812 164 522 c 0
 151.333007812 490.666992188 142.5 456.166992188 137.5 418.5 c 0
 132.5 380.833007812 130.333007812 343.333007812 131 306 c 1
 114 306 l 1
 131.333007812 350.666992188 156.333007812 383.333984375 189 404.000976562 c 0
 221.666992188 424.66796875 255 435.000976562 289 435.000976562 c 0
 321.666992188 435.000976562 352.333984375 426.16796875 381.000976562 408.500976562 c 0
 409.66796875 390.833984375 433.16796875 366.166992188 451.500976562 334.5 c 0
 469.833984375 302.833007812 479.000976562 265 479.000976562 221 c 0
 479.000976562 181 470.833984375 143.5 454.500976562 108.5 c 0
 438.16796875 73.5 414.66796875 45.1669921875 384.000976562 23.5 c 0
 353.333984375 1.8330078125 315.666992188 -9 271 -9 c 0
275.002929688 48 m 0
 297.002929688 48 318.3359375 54.1640625 339.002929688 66.4970703125 c 0
 359.669921875 78.830078125 376.669921875 97.330078125 390.002929688 121.997070312 c 0
 403.3359375 146.6640625 410.002929688 177.6640625 410.002929688 214.997070312 c 0
 410.002929688 249.6640625 404.002929688 279.331054688 392.002929688 303.998046875 c 0
 380.002929688 328.665039062 363.8359375 347.33203125 343.502929688 359.999023438 c 0
 323.169921875 372.666015625 301.002929688 378.999023438 277.002929688 378.999023438 c 0
 254.3359375 378.999023438 232.3359375 373.166015625 211.002929688 361.499023438 c 0
 189.669921875 349.83203125 172.169921875 331.999023438 158.502929688 307.999023438 c 0
 144.8359375 283.999023438 138.002929688 253.33203125 138.002929688 215.999023438 c 0
 138.002929688 180.666015625 144.669921875 150.333007812 158.002929688 125 c 0
 171.3359375 99.6669921875 188.3359375 80.5 209.002929688 67.5 c 0
 229.669921875 54.5 251.669921875 48 275.002929688 48 c 0
EndSplineSet
Fore
SplineSet
248.999023438 -9 m 4
 121.858345627 -9 40 76 40 301 c 4
 40 540 116 640 263 640 c 4
 373 640 442 569 442 497 c 5
 374 497 l 5
 374 531.091514409 324.990077819 572 263 572 c 4
 125.608251739 572 100 423.119876675 100 316 c 5
 88 316 l 5
 98.6048324106 341.823865715 131 440 265 440 c 4
 346.654091748 440 457 377.059463499 457 216 c 4
 457 118.905150709 393 -9 248.999023438 -9 c 4
251 57 m 4
 311.318818693 57 387.999023438 101.829142338 387.999023438 211 c 4
 387.999023438 353.051077455 296.7785366 379.000976562 254.999023438 379.000976562 c 4
 244.571749256 379.000976562 115.999023438 375.721791899 115.999023438 214.000976562 c 4
 115.999023438 105.778173065 192.190336299 57 251 57 c 4
EndSplineSet
Validated: 5
Substitution2: "'onum' Oldstyle Figures in Sinhala lookup 22 subtable" six.osf
EndChar

StartChar: seven
Encoding: 26 55 26
Width: 483
GlyphClass: 1
Flags: HW
LayerCount: 2
Back
SplineSet
179 -4 m 1
 108 3.998046875 l 1
 137.333007812 110.665039062 171.5 215.33203125 210.5 317.999023438 c 0
 249.5 420.666015625 292 524.333007812 338 629 c 1
 340 610 l 1
 29 610 l 1
 29 675 l 1
 405 675 l 1
 405 627 l 1
 355 513.666992188 311.5 405 274.5 301 c 0
 237.5 197 205.666992188 95.3330078125 179 -4 c 1
EndSplineSet
Fore
SplineSet
139 0 m 5
 71 0 l 5
 71 44.2373046875 71 82.4658203125 71 117 c 4
 71 187 80.1015625 237.150390625 121 277 c 4
 160 315 318 490 349 523 c 4
 382.818359375 559 394 572 413 590 c 5
 413 575 l 5
 40 575 l 5
 40 640 l 5
 478 640 l 5
 478 570 l 5
 433 515 441.758789062 527 379 462 c 4
 349.57421875 431.5234375 220 282 181 242 c 4
 139.900390625 199.846679688 139 162 139 117 c 4
 139 83.259765625 139 46.7587890625 139 0 c 5
EndSplineSet
Validated: 5
Substitution2: "'onum' Oldstyle Figures in Sinhala lookup 22 subtable" seven.osf
EndChar

StartChar: eight
Encoding: 27 56 27
Width: 478
GlyphClass: 1
Flags: HW
LayerCount: 2
Back
SplineSet
260 -9 m 0
 220 -9 184.499023438 -0.9990234375 153.499023438 15.0009765625 c 0
 122.499023438 31.0009765625 98.4990234375 53.0009765625 81.4990234375 81.0009765625 c 0
 64.4990234375 109.000976562 55.9990234375 141.333984375 55.9990234375 178.000976562 c 0
 55.9990234375 208.66796875 61.666015625 236.16796875 72.9990234375 260.500976562 c 0
 84.33203125 284.833984375 99.4990234375 305.500976562 118.499023438 322.500976562 c 0
 137.499023438 339.500976562 157.999023438 352.000976562 179.999023438 360.000976562 c 1
 161.999023438 367.333984375 145.499023438 378.166992188 130.499023438 392.5 c 0
 115.499023438 406.833007812 103.33203125 424 93.9990234375 444 c 0
 84.666015625 464 79.9990234375 486.333007812 79.9990234375 511 c 0
 79.9990234375 547 88.33203125 578 104.999023438 604 c 0
 121.666015625 630 144.333007812 649.833007812 173 663.5 c 0
 201.666992188 677.166992188 233.666992188 684 269 684 c 0
 304.333007812 684 335.5 677.166992188 362.5 663.5 c 0
 389.5 649.833007812 410.5 630.5 425.5 605.5 c 0
 440.5 580.5 448 550.666992188 448 516 c 0
 448 478 438.333007812 445.166992188 419 417.5 c 0
 399.666992188 389.833007812 374.333984375 370.333007812 343.000976562 359 c 1
 367.000976562 353 388.66796875 341.833007812 408.000976562 325.5 c 0
 427.333984375 309.166992188 442.666992188 288.666992188 454 264 c 0
 465.333007812 239.333007812 471 211 471 179 c 0
 471 143 461.833007812 110.666992188 443.5 82 c 0
 425.166992188 53.3330078125 400 31 368 15 c 0
 336 -1 300 -9 260 -9 c 0
263.999023438 48.0009765625 m 0
 290.666015625 48.0009765625 314.499023438 53.8359375 335.499023438 65.5029296875 c 0
 356.499023438 77.169921875 372.999023438 93.169921875 384.999023438 113.502929688 c 0
 396.999023438 133.8359375 402.999023438 156.668945312 402.999023438 182.001953125 c 0
 402.999023438 213.334960938 396.83203125 240.001953125 384.499023438 262.001953125 c 0
 372.166015625 284.001953125 355.499023438 301.001953125 334.499023438 313.001953125 c 0
 313.499023438 325.001953125 289.666015625 331.001953125 262.999023438 331.001953125 c 0
 236.33203125 331.001953125 212.33203125 325.001953125 190.999023438 313.001953125 c 0
 169.666015625 301.001953125 152.999023438 284.001953125 140.999023438 262.001953125 c 0
 128.999023438 240.001953125 122.999023438 214.001953125 122.999023438 184.001953125 c 0
 122.999023438 158.001953125 128.999023438 134.668945312 140.999023438 114.001953125 c 0
 152.999023438 93.3349609375 169.499023438 77.16796875 190.499023438 65.5009765625 c 0
 211.499023438 53.833984375 235.999023438 48.0009765625 263.999023438 48.0009765625 c 0
265.999023438 384.002929688 m 0
 301.33203125 384.002929688 329.83203125 395.336914062 351.499023438 418.00390625 c 0
 373.166015625 440.670898438 383.999023438 471.670898438 383.999023438 511.00390625 c 0
 383.999023438 548.336914062 373.166015625 577.169921875 351.499023438 597.502929688 c 0
 329.83203125 617.8359375 301.665039062 628.002929688 266.998046875 628.002929688 c 0
 231.665039062 628.002929688 202.83203125 617.669921875 180.499023438 597.002929688 c 0
 158.166015625 576.3359375 146.999023438 547.002929688 146.999023438 509.002929688 c 0
 146.999023438 470.3359375 158.33203125 439.8359375 180.999023438 417.502929688 c 0
 203.666015625 395.169921875 231.999023438 384.002929688 265.999023438 384.002929688 c 0
EndSplineSet
Fore
SplineSet
239 307 m 4
 146.159179688 307 108 234.174804688 108 179 c 4
 108 98.5400390625 174.153320312 58 239 58 c 4
 303.846679688 58 370 98.5400390625 370 179 c 4
 370 234.174804688 331.840820312 307 239 307 c 4
239 572 m 4
 192.017578125 572 122 546.927734375 122 476 c 4
 122 432.991210938 144.733398438 362 239 362 c 4
 333.266601562 362 356 432.991210938 356 476 c 4
 356 546.927734375 285.982421875 572 239 572 c 4
239 -10 m 4
 143.185546875 -10 40 50.994140625 40 179 c 4
 40 235.842773438 71.388671875 348.000976562 208 348.000976562 c 5
 208 332.000976562 l 5
 94.904296875 332.000976562 54 416.418945312 54 476 c 4
 54 585.3203125 149.356445312 640 239 640 c 4
 328.643554688 640 424 585.3203125 424 476 c 4
 424 416.418945312 383.095703125 332.000976562 270 332.000976562 c 5
 270 348.000976562 l 5
 406.611328125 348.000976562 438 235.842773438 438 179 c 4
 438 50.994140625 334.814453125 -10 239 -10 c 4
EndSplineSet
Validated: 5
Substitution2: "'onum' Oldstyle Figures in Sinhala lookup 22 subtable" eight.osf
EndChar

StartChar: nine
Encoding: 28 57 28
Width: 497
GlyphClass: 1
Flags: HW
LayerCount: 2
Back
SplineSet
260 684 m 0
 308 684 347.33203125 671.172851562 377.999023438 645.505859375 c 0
 408.666015625 619.838867188 431.333007812 583.671875 446 537.004882812 c 0
 460.666992188 490.337890625 468 435.670898438 468 373.00390625 c 0
 468 322.336914062 463.166992188 274.169921875 453.5 228.502929688 c 0
 443.833007812 182.8359375 429.333007812 142.168945312 410 106.501953125 c 0
 390.666992188 70.8349609375 366 42.66796875 336 22.0009765625 c 0
 306 1.333984375 271 -8.9990234375 231 -8.9990234375 c 0
 199.666992188 -8.9990234375 170 -2.4990234375 142 10.5009765625 c 0
 114 23.5009765625 90.3330078125 43.0009765625 71 69.0009765625 c 1
 114 104.000976562 l 1
 129.333007812 85.333984375 147.5 71.333984375 168.5 62.0009765625 c 0
 189.5 52.66796875 210.333007812 48.0009765625 231 48.0009765625 c 0
 263.666992188 48.0009765625 291.166992188 57.333984375 313.5 76.0009765625 c 0
 335.833007812 94.66796875 353.333007812 119.66796875 366 151.000976562 c 0
 378.666992188 182.333984375 387.5 217.000976562 392.5 255.000976562 c 0
 397.5 293.000976562 399.333007812 331.333984375 398 370.000976562 c 1
 414 370.000976562 l 1
 396.666992188 326.000976562 371.833984375 293.500976562 339.500976562 272.500976562 c 0
 307.16796875 251.500976562 274.000976562 241.000976562 240.000976562 241.000976562 c 0
 207.333984375 241.000976562 176.666992188 249.833984375 148 267.500976562 c 0
 119.333007812 285.16796875 96 310.16796875 78 342.500976562 c 0
 60 374.833984375 51 413.000976562 51 457.000976562 c 0
 51 496.333984375 59 533.166992188 75 567.5 c 0
 91 601.833007812 114.5 629.833007812 145.5 651.5 c 0
 176.5 673.166992188 214.666992188 684 260 684 c 0
255.999023438 627.005859375 m 0
 233.999023438 627.005859375 212.666992188 621.341796875 192 610.008789062 c 0
 171.333007812 598.67578125 154.333007812 581.008789062 141 557.008789062 c 0
 127.666992188 533.008789062 121 501.67578125 121 463.008789062 c 0
 121 425.67578125 127.333007812 394.67578125 140 370.008789062 c 0
 152.666992188 345.341796875 169.166992188 327.174804688 189.5 315.5078125 c 0
 209.833007812 303.840820312 231 298.0078125 253 298.0078125 c 0
 276.333007812 298.0078125 298.5 304.0078125 319.5 316.0078125 c 0
 340.5 328.0078125 357.666992188 346.174804688 371 370.5078125 c 0
 384.333007812 394.840820312 391 425.673828125 391 463.006835938 c 0
 391 499.006835938 384.666992188 529.173828125 372 553.506835938 c 0
 359.333007812 577.83984375 342.666015625 596.172851562 321.999023438 608.505859375 c 0
 301.33203125 620.838867188 279.33203125 627.005859375 255.999023438 627.005859375 c 0
EndSplineSet
Fore
SplineSet
248.000976562 640 m 0
 375.141654373 640 457 555 457 330 c 0
 457 91 381 -9 234 -9 c 0
 124 -9 55 62 55 134 c 1
 123 134 l 1
 123 99.908485591 172.009922181 59 234 59 c 0
 371.391748261 59 397 207.880123325 397 315 c 1
 409 315 l 1
 398.395167589 289.176134285 366 191 232 191 c 0
 150.345908252 191 40 253.940536501 40 415 c 0
 40 512.094849291 104 640 248.000976562 640 c 0
246 574 m 0
 185.681181307 574 109.000976562 529.170857662 109.000976562 420 c 0
 109.000976562 277.948922545 200.2214634 251.999023438 242.000976562 251.999023438 c 0
 252.428250744 251.999023438 381.000976562 255.278208101 381.000976562 416.999023438 c 0
 381.000976562 525.221826935 304.809663701 574 246 574 c 0
EndSplineSet
Validated: 5
Substitution2: "'onum' Oldstyle Figures in Sinhala lookup 22 subtable" nine.osf
EndChar

StartChar: colon
Encoding: 29 58 29
Width: 251
GlyphClass: 1
Flags: HW
LayerCount: 2
Back
SplineSet
126 333 m 0
 110.666992188 333 97.9990234375 338.333007812 87.9990234375 349 c 0
 77.9990234375 359.666992188 72.9990234375 374.666992188 72.9990234375 394 c 0
 72.9990234375 412 77.9990234375 426.166992188 87.9990234375 436.5 c 0
 97.9990234375 446.833007812 110.666015625 452 125.999023438 452 c 0
 141.999023438 452 154.999023438 446.833007812 164.999023438 436.5 c 0
 174.999023438 426.166992188 179.999023438 412 179.999023438 394 c 0
 179.999023438 375.333007812 174.83203125 360.5 164.499023438 349.5 c 0
 154.166015625 338.5 141.333007812 333 126 333 c 0
125.999023438 -9 m 0
 110.666015625 -9 97.998046875 -3.6669921875 87.998046875 7 c 0
 77.998046875 17.6669921875 72.998046875 32.6669921875 72.998046875 52 c 0
 72.998046875 70 77.998046875 84.1669921875 87.998046875 94.5 c 0
 97.998046875 104.833007812 110.665039062 110 125.998046875 110 c 0
 141.998046875 110 154.998046875 104.833007812 164.998046875 94.5 c 0
 174.998046875 84.1669921875 179.998046875 70 179.998046875 52 c 0
 179.998046875 33.3330078125 174.831054688 18.5 164.498046875 7.5 c 0
 154.165039062 -3.5 141.33203125 -9 125.999023438 -9 c 0
EndSplineSet
Fore
SplineSet
126 333 m 0
 110.666992188 333 97.9990234375 338.333007812 87.9990234375 349 c 0
 77.9990234375 359.666992188 72.9990234375 374.666992188 72.9990234375 394 c 0
 72.9990234375 412 77.9990234375 426.166992188 87.9990234375 436.5 c 0
 97.9990234375 446.833007812 110.666015625 452 125.999023438 452 c 0
 141.999023438 452 154.999023438 446.833007812 164.999023438 436.5 c 0
 174.999023438 426.166992188 179.999023438 412 179.999023438 394 c 0
 179.999023438 375.333007812 174.83203125 360.5 164.499023438 349.5 c 0
 154.166015625 338.5 141.333007812 333 126 333 c 0
125.999023438 -9 m 0
 110.666015625 -9 97.998046875 -3.6669921875 87.998046875 7 c 0
 77.998046875 17.6669921875 72.998046875 32.6669921875 72.998046875 52 c 0
 72.998046875 70 77.998046875 84.1669921875 87.998046875 94.5 c 0
 97.998046875 104.833007812 110.665039062 110 125.998046875 110 c 0
 141.998046875 110 154.998046875 104.833007812 164.998046875 94.5 c 0
 174.998046875 84.1669921875 179.998046875 70 179.998046875 52 c 0
 179.998046875 33.3330078125 174.831054688 18.5 164.498046875 7.5 c 0
 154.165039062 -3.5 141.33203125 -9 125.999023438 -9 c 0
EndSplineSet
Validated: 1
EndChar

StartChar: semicolon
Encoding: 30 59 30
Width: 249
GlyphClass: 1
Flags: HW
LayerCount: 2
Back
SplineSet
88 -137 m 1
 60.0009765625 -115.001953125 l 1
 67.333984375 -103.668945312 74.6669921875 -91.6689453125 82 -79.001953125 c 0
 89.3330078125 -66.3349609375 95.5 -53.3349609375 100.5 -40.001953125 c 0
 105.5 -26.6689453125 108.666992188 -14.6689453125 110 -4.001953125 c 1
 96 -0.001953125 85.6669921875 7.1650390625 79 17.498046875 c 0
 72.3330078125 27.8310546875 69 38.998046875 69 50.998046875 c 0
 69 68.3310546875 74.3330078125 82.498046875 85 93.498046875 c 0
 95.6669921875 104.498046875 108.666992188 109.998046875 124 109.998046875 c 0
 140 109.998046875 153.333007812 104.331054688 164 92.998046875 c 0
 174.666992188 81.6650390625 180 65.33203125 180 43.9990234375 c 0
 180 17.33203125 171.666992188 -12.66796875 155 -46.0009765625 c 0
 138.333007812 -79.333984375 116 -109.666992188 88 -137 c 1
123.000976562 312.998046875 m 0
 107.66796875 312.998046875 95 318.331054688 85 328.998046875 c 0
 75 339.665039062 70 354.665039062 70 373.998046875 c 0
 70 391.998046875 75 406.165039062 85 416.498046875 c 0
 95 426.831054688 107.666992188 431.998046875 123 431.998046875 c 0
 139 431.998046875 152 426.831054688 162 416.498046875 c 0
 172 406.165039062 177 391.998046875 177 373.998046875 c 0
 177 355.331054688 171.833007812 340.498046875 161.5 329.498046875 c 0
 151.166992188 318.498046875 138.333984375 312.998046875 123.000976562 312.998046875 c 0
EndSplineSet
Fore
SplineSet
88 -137 m 1
 60.0009765625 -115.001953125 l 1
 67.333984375 -103.668945312 74.6669921875 -91.6689453125 82 -79.001953125 c 0
 89.3330078125 -66.3349609375 95.5 -53.3349609375 100.5 -40.001953125 c 0
 105.5 -26.6689453125 108.666992188 -14.6689453125 110 -4.001953125 c 1
 96 -0.001953125 85.6669921875 7.1650390625 79 17.498046875 c 0
 72.3330078125 27.8310546875 69 38.998046875 69 50.998046875 c 0
 69 68.3310546875 74.3330078125 82.498046875 85 93.498046875 c 0
 95.6669921875 104.498046875 108.666992188 109.998046875 124 109.998046875 c 0
 140 109.998046875 153.333007812 104.331054688 164 92.998046875 c 0
 174.666992188 81.6650390625 180 65.33203125 180 43.9990234375 c 0
 180 17.33203125 171.666992188 -12.66796875 155 -46.0009765625 c 0
 138.333007812 -79.333984375 116 -109.666992188 88 -137 c 1
123.000976562 312.998046875 m 0
 107.66796875 312.998046875 95 318.331054688 85 328.998046875 c 0
 75 339.665039062 70 354.665039062 70 373.998046875 c 0
 70 391.998046875 75 406.165039062 85 416.498046875 c 0
 95 426.831054688 107.666992188 431.998046875 123 431.998046875 c 0
 139 431.998046875 152 426.831054688 162 416.498046875 c 0
 172 406.165039062 177 391.998046875 177 373.998046875 c 0
 177 355.331054688 171.833007812 340.498046875 161.5 329.498046875 c 0
 151.166992188 318.498046875 138.333984375 312.998046875 123.000976562 312.998046875 c 0
EndSplineSet
Validated: 1
EndChar

StartChar: less
Encoding: 31 60 31
Width: 485
GlyphClass: 1
Flags: HW
LayerCount: 2
Back
SplineSet
354 588 m 1
 406 541 l 1
 147 282 l 1
 406 33 l 1
 355 -18 l 1
 52 281 l 1
 354 588 l 1
EndSplineSet
Fore
SplineSet
354 588 m 1
 406 541 l 1
 147 282 l 1
 406 33 l 1
 355 -18 l 1
 52 281 l 1
 354 588 l 1
EndSplineSet
Validated: 1
EndChar

StartChar: equal
Encoding: 32 61 32
Width: 629
GlyphClass: 1
Flags: HW
LayerCount: 2
Back
SplineSet
80 341 m 1
 80 405 l 1
 548 405 l 1
 548 341 l 1
 80 341 l 1
80 180 m 1
 80 245 l 1
 548 245 l 1
 548 180 l 1
 80 180 l 1
EndSplineSet
Fore
SplineSet
80 341 m 1
 80 405 l 1
 548 405 l 1
 548 341 l 1
 80 341 l 1
80 180 m 1
 80 245 l 1
 548 245 l 1
 548 180 l 1
 80 180 l 1
EndSplineSet
Validated: 1
EndChar

StartChar: greater
Encoding: 33 62 33
Width: 491
GlyphClass: 1
Flags: HW
LayerCount: 2
Back
SplineSet
131 -18 m 1
 79 29 l 1
 338 288 l 1
 78 537 l 1
 130 588 l 1
 432 289 l 1
 131 -18 l 1
EndSplineSet
Fore
SplineSet
131 -18 m 1
 79 29 l 1
 338 288 l 1
 78 537 l 1
 130 588 l 1
 432 289 l 1
 131 -18 l 1
EndSplineSet
Validated: 1
EndChar

StartChar: question
Encoding: 34 63 34
Width: 503
GlyphClass: 1
Flags: HW
LayerCount: 2
Back
SplineSet
1645 181.001953125 m 1
 1641.66699219 193.668945313 1639.5 204.333984375 1638.5 213.000976562 c 0
 1637.5 221.667968749 1637 229.667968749 1637 237.000976562 c 0
 1637 273.667968749 1643.16699219 304.500976562 1655.5 329.500976562 c 0
 1667.83300781 354.500976562 1683.83300781 375.833984375 1703.5 393.500976562 c 0
 1723.16699219 411.167968749 1743.83398438 427.500976563 1765.50097656 442.500976562 c 0
 1787.16796875 457.500976562 1807.66796875 472.667968751 1827.00097656 488.000976562 c 0
 1846.33398438 503.333984374 1862.33398437 521.000976563 1875.00097656 541.000976562 c 0
 1887.66796875 561.000976562 1894.00097656 585.667968749 1894.00097656 615.000976562 c 0
 1894.00097656 647.000976562 1887.16796875 674.167968749 1873.50097656 696.500976562 c 0
 1859.83398438 718.833984374 1842.16699219 736.000976562 1820.5 748.000976562 c 0
 1798.83300781 760.000976562 1776 766.000976562 1752 766.000976562 c 0
 1728 766.000976562 1704.16699219 759.333984375 1680.5 746.000976562 c 0
 1656.83300781 732.667968749 1638.66601562 711.667968749 1625.99902344 683.000976562 c 1
 1560.99902344 710.000976562 l 1
 1574.99902344 737.333984374 1592.49902344 760.000976562 1613.49902344 778.000976562 c 0
 1634.49902344 796.000976562 1657.33203125 809.333984375 1681.99902344 818.000976562 c 0
 1706.66601562 826.667968749 1731.66601562 831.000976562 1756.99902344 831.000976562 c 0
 1792.99902344 831.000976562 1827.33203125 822.500976563 1859.99902344 805.500976562 c 0
 1892.66601562 788.500976562 1919.33300781 764.16796875 1940 732.500976562 c 0
 1960.66699219 700.833984375 1971 662.666992187 1971 618 c 0
 1971 584.666992187 1964.66699219 556 1952 532 c 0
 1939.33300781 508 1923 486.666992187 1903 468 c 0
 1883 449.333007813 1861.5 431.833007813 1838.5 415.5 c 0
 1815.5 399.166992187 1794 382.5 1774 365.5 c 0
 1754 348.5 1737.66699219 329.666992187 1725 309 c 0
 1712.33300781 288.333007813 1706 264 1706 236 c 0
 1706 230.666992187 1706.5 224.333984375 1707.5 217.000976562 c 0
 1708.5 209.66796875 1710.33300781 200.334960937 1713 189.001953125 c 1
 1645 181.001953125 l 1
1688 0 m 0
 1672.66699219 0 1659.99902344 5.33300781227 1649.99902344 16 c 0
 1639.99902344 26.6669921875 1634.99902344 41.6669921875 1634.99902344 61 c 0
 1634.99902344 79 1639.99902344 93.1669921874 1649.99902344 103.5 c 0
 1659.99902344 113.833007813 1672.66601562 119 1687.99902344 119 c 0
 1703.99902344 119 1716.99902344 113.833007813 1726.99902344 103.5 c 0
 1736.99902344 93.1669921875 1741.99902344 79 1741.99902344 61 c 0
 1741.99902344 42.3330078125 1736.83203125 27.4999999996 1726.49902344 16.5 c 0
 1716.16601562 5.5 1703.33300781 0 1688 0 c 0
EndSplineSet
Fore
SplineSet
138.000976562 -11 m 0
 116.574149006 -11 92.9501953125 2.87895476647 92.9501953125 40.8505859375 c 0
 92.9501953125 74.8062636415 114.908764517 90.150390625 138 90.150390625 c 0
 163.007362797 90.150390625 183.899414062 73.9923901114 183.899414062 40.8505859375 c 0
 183.899414062 5.84140861522 161.328010677 -11 138.000976562 -11 c 0
101 168 m 1
 101 193 101 208.929681786 101 224.999023438 c 0
 101 400.445981055 309 384.058273951 309 524 c 0
 309 600.42806006 242.327606778 632 192 632 c 0
 122 632 88.9990234375 591 88.9990234375 548.000976562 c 1
 20 548.000976562 l 1
 20 612.00390625 85.2521979979 697 196.999023438 697 c 0
 276.789360398 697 378 641.558726042 378 524 c 0
 378 356 169 346 169 223.998046875 c 0
 169 208.873298385 169 190.90186641 169 168 c 1
 101 168 l 1
EndSplineSet
Validated: 1
EndChar

StartChar: at
Encoding: 35 64 35
Width: 878
GlyphClass: 1
Flags: HW
LayerCount: 2
Back
SplineSet
442 -64 m 0
 380.666992188 -64 326.330078125 -53.9951171875 278.997070312 -33.9951171875 c 0
 231.6640625 -13.9951171875 192.1640625 14.671875 160.497070312 52.0048828125 c 0
 128.830078125 89.337890625 104.830078125 134.337890625 88.4970703125 187.004882812 c 0
 72.1640625 239.671875 63.9970703125 298.004882812 63.9970703125 362.004882812 c 0
 63.9970703125 420.004882812 73.4970703125 474.004882812 92.4970703125 524.004882812 c 0
 111.497070312 574.004882812 138.1640625 617.837890625 172.497070312 655.504882812 c 0
 206.830078125 693.171875 248.163085938 722.504882812 296.49609375 743.504882812 c 0
 344.829101562 764.504882812 398.329101562 774.671875 456.99609375 774.004882812 c 0
 509.663085938 774.004882812 557.99609375 765.504882812 601.99609375 748.504882812 c 0
 645.99609375 731.504882812 684.163085938 707.171875 716.49609375 675.504882812 c 0
 748.829101562 643.837890625 774.162109375 605.170898438 792.495117188 559.50390625 c 0
 810.828125 513.836914062 819.995117188 462.336914062 819.995117188 405.00390625 c 0
 819.995117188 343.00390625 811.828125 290.670898438 795.495117188 248.00390625 c 0
 779.162109375 205.336914062 756.329101562 173.169921875 726.99609375 151.502929688 c 0
 697.663085938 129.8359375 662.99609375 119.002929688 622.99609375 119.002929688 c 0
 586.99609375 119.002929688 561.163085938 127.3359375 545.49609375 144.002929688 c 0
 529.829101562 160.669921875 521.99609375 186.336914062 521.99609375 221.00390625 c 1
 541.99609375 218.00390625 l 1
 529.99609375 184.670898438 510.49609375 159.837890625 483.49609375 143.504882812 c 0
 456.49609375 127.171875 428.99609375 119.004882812 400.99609375 119.004882812 c 0
 376.99609375 119.004882812 354.49609375 124.171875 333.49609375 134.504882812 c 0
 312.49609375 144.837890625 295.829101562 160.170898438 283.49609375 180.50390625 c 0
 271.163085938 200.836914062 264.99609375 226.00390625 264.99609375 256.00390625 c 0
 264.99609375 298.670898438 281.49609375 332.50390625 314.49609375 357.50390625 c 0
 347.49609375 382.50390625 394.663085938 395.00390625 455.99609375 395.00390625 c 0
 469.99609375 395.00390625 484.829101562 394.50390625 500.49609375 393.50390625 c 0
 516.163085938 392.50390625 530.330078125 391.336914062 542.997070312 390.00390625 c 1
 542.997070312 343.00390625 l 1
 529.6640625 345.00390625 515.831054688 346.50390625 501.498046875 347.50390625 c 0
 487.165039062 348.50390625 472.33203125 349.00390625 456.999023438 349.00390625 c 0
 425.666015625 349.00390625 401.166015625 345.00390625 383.499023438 337.00390625 c 0
 365.83203125 329.00390625 353.165039062 318.170898438 345.498046875 304.50390625 c 0
 337.831054688 290.836914062 333.998046875 275.00390625 333.998046875 257.00390625 c 0
 333.998046875 227.00390625 341.831054688 205.336914062 357.498046875 192.00390625 c 0
 373.165039062 178.670898438 391.33203125 172.00390625 411.999023438 172.00390625 c 0
 430.666015625 172.00390625 447.833007812 176.00390625 463.5 184.00390625 c 0
 479.166992188 192.00390625 491.833984375 204.336914062 501.500976562 221.00390625 c 0
 511.16796875 237.670898438 516.000976562 258.00390625 516.000976562 282.00390625 c 2
 516.000976562 451.00390625 l 2
 516.000976562 482.336914062 508.000976562 505.00390625 492.000976562 519.00390625 c 0
 476.000976562 533.00390625 455.000976562 540.00390625 429.000976562 540.00390625 c 0
 409.66796875 540.00390625 389.16796875 536.670898438 367.500976562 530.00390625 c 0
 345.833984375 523.336914062 325.333984375 514.00390625 306.000976562 502.00390625 c 1
 282.000976562 550.00390625 l 1
 305.333984375 564.00390625 331.000976562 574.836914062 359.000976562 582.50390625 c 0
 387.000976562 590.170898438 413.333984375 594.00390625 438.000976562 594.00390625 c 0
 478.000976562 594.00390625 512.000976562 582.670898438 540.000976562 560.00390625 c 0
 568.000976562 537.336914062 582.000976562 502.00390625 582.000976562 454.00390625 c 2
 582.000976562 231.00390625 l 2
 582.000976562 209.670898438 585.66796875 194.50390625 593.000976562 185.50390625 c 0
 600.333984375 176.50390625 612.666992188 172.00390625 630 172.00390625 c 0
 675.333007812 172.00390625 707 192.670898438 725 234.00390625 c 0
 743 275.336914062 752 332.00390625 752 404.00390625 c 0
 752 469.336914062 739.333007812 525.50390625 714 572.50390625 c 0
 688.666992188 619.50390625 653.833984375 655.670898438 609.500976562 681.00390625 c 0
 565.16796875 706.336914062 514.334960938 719.00390625 457.001953125 719.00390625 c 0
 407.668945312 719.00390625 363.3359375 710.170898438 324.002929688 692.50390625 c 0
 284.669921875 674.836914062 250.669921875 649.836914062 222.002929688 617.50390625 c 0
 193.3359375 585.170898438 171.3359375 547.170898438 156.002929688 503.50390625 c 0
 140.669921875 459.836914062 133.002929688 412.669921875 133.002929688 362.002929688 c 0
 133.002929688 305.3359375 139.669921875 254.168945312 153.002929688 208.501953125 c 0
 166.3359375 162.834960938 186.168945312 124.001953125 212.501953125 92.001953125 c 0
 238.834960938 60.001953125 271.66796875 35.501953125 311.000976562 18.501953125 c 0
 350.333984375 1.501953125 395.666992188 -6.998046875 447 -6.998046875 c 0
 475.666992188 -6.998046875 505.5 -4.3310546875 536.5 1.001953125 c 0
 567.5 6.3349609375 597 14.66796875 625 26.0009765625 c 1
 646 -24.9990234375 l 1
 614.666992188 -37.666015625 581.166992188 -47.3330078125 545.5 -54 c 0
 509.833007812 -60.6669921875 475.333007812 -64 442 -64 c 0
EndSplineSet
Fore
SplineSet
442 -64 m 0
 380.666992188 -64 326.330078125 -53.9951171875 278.997070312 -33.9951171875 c 0
 231.6640625 -13.9951171875 192.1640625 14.671875 160.497070312 52.0048828125 c 0
 128.830078125 89.337890625 104.830078125 134.337890625 88.4970703125 187.004882812 c 0
 72.1640625 239.671875 63.9970703125 298.004882812 63.9970703125 362.004882812 c 0
 63.9970703125 420.004882812 73.4970703125 474.004882812 92.4970703125 524.004882812 c 0
 111.497070312 574.004882812 138.1640625 617.837890625 172.497070312 655.504882812 c 0
 206.830078125 693.171875 248.163085938 722.504882812 296.49609375 743.504882812 c 0
 344.829101562 764.504882812 398.329101562 774.671875 456.99609375 774.004882812 c 0
 509.663085938 774.004882812 557.99609375 765.504882812 601.99609375 748.504882812 c 0
 645.99609375 731.504882812 684.163085938 707.171875 716.49609375 675.504882812 c 0
 748.829101562 643.837890625 774.162109375 605.170898438 792.495117188 559.50390625 c 0
 810.828125 513.836914062 819.995117188 462.336914062 819.995117188 405.00390625 c 0
 819.995117188 343.00390625 811.828125 290.670898438 795.495117188 248.00390625 c 0
 779.162109375 205.336914062 756.329101562 173.169921875 726.99609375 151.502929688 c 0
 697.663085938 129.8359375 662.99609375 119.002929688 622.99609375 119.002929688 c 0
 586.99609375 119.002929688 561.163085938 127.3359375 545.49609375 144.002929688 c 0
 529.829101562 160.669921875 521.99609375 186.336914062 521.99609375 221.00390625 c 1
 541.99609375 218.00390625 l 1
 529.99609375 184.670898438 510.49609375 159.837890625 483.49609375 143.504882812 c 0
 456.49609375 127.171875 428.99609375 119.004882812 400.99609375 119.004882812 c 0
 376.99609375 119.004882812 354.49609375 124.171875 333.49609375 134.504882812 c 0
 312.49609375 144.837890625 295.829101562 160.170898438 283.49609375 180.50390625 c 0
 271.163085938 200.836914062 264.99609375 226.00390625 264.99609375 256.00390625 c 0
 264.99609375 298.670898438 281.49609375 332.50390625 314.49609375 357.50390625 c 0
 347.49609375 382.50390625 394.663085938 395.00390625 455.99609375 395.00390625 c 0
 469.99609375 395.00390625 484.829101562 394.50390625 500.49609375 393.50390625 c 0
 516.163085938 392.50390625 530.330078125 391.336914062 542.997070312 390.00390625 c 1
 542.997070312 343.00390625 l 1
 529.6640625 345.00390625 515.831054688 346.50390625 501.498046875 347.50390625 c 0
 487.165039062 348.50390625 472.33203125 349.00390625 456.999023438 349.00390625 c 0
 425.666015625 349.00390625 401.166015625 345.00390625 383.499023438 337.00390625 c 0
 365.83203125 329.00390625 353.165039062 318.170898438 345.498046875 304.50390625 c 0
 337.831054688 290.836914062 333.998046875 275.00390625 333.998046875 257.00390625 c 0
 333.998046875 227.00390625 341.831054688 205.336914062 357.498046875 192.00390625 c 0
 373.165039062 178.670898438 391.33203125 172.00390625 411.999023438 172.00390625 c 0
 430.666015625 172.00390625 447.833007812 176.00390625 463.5 184.00390625 c 0
 479.166992188 192.00390625 491.833984375 204.336914062 501.500976562 221.00390625 c 0
 511.16796875 237.670898438 516.000976562 258.00390625 516.000976562 282.00390625 c 2
 516.000976562 451.00390625 l 2
 516.000976562 482.336914062 508.000976562 505.00390625 492.000976562 519.00390625 c 0
 476.000976562 533.00390625 455.000976562 540.00390625 429.000976562 540.00390625 c 0
 409.66796875 540.00390625 389.16796875 536.670898438 367.500976562 530.00390625 c 0
 345.833984375 523.336914062 325.333984375 514.00390625 306.000976562 502.00390625 c 1
 282.000976562 550.00390625 l 1
 305.333984375 564.00390625 331.000976562 574.836914062 359.000976562 582.50390625 c 0
 387.000976562 590.170898438 413.333984375 594.00390625 438.000976562 594.00390625 c 0
 478.000976562 594.00390625 512.000976562 582.670898438 540.000976562 560.00390625 c 0
 568.000976562 537.336914062 582.000976562 502.00390625 582.000976562 454.00390625 c 2
 582.000976562 231.00390625 l 2
 582.000976562 209.670898438 585.66796875 194.50390625 593.000976562 185.50390625 c 0
 600.333984375 176.50390625 612.666992188 172.00390625 630 172.00390625 c 0
 675.333007812 172.00390625 707 192.670898438 725 234.00390625 c 0
 743 275.336914062 752 332.00390625 752 404.00390625 c 0
 752 469.336914062 739.333007812 525.50390625 714 572.50390625 c 0
 688.666992188 619.50390625 653.833984375 655.670898438 609.500976562 681.00390625 c 0
 565.16796875 706.336914062 514.334960938 719.00390625 457.001953125 719.00390625 c 0
 407.668945312 719.00390625 363.3359375 710.170898438 324.002929688 692.50390625 c 0
 284.669921875 674.836914062 250.669921875 649.836914062 222.002929688 617.50390625 c 0
 193.3359375 585.170898438 171.3359375 547.170898438 156.002929688 503.50390625 c 0
 140.669921875 459.836914062 133.002929688 412.669921875 133.002929688 362.002929688 c 0
 133.002929688 305.3359375 139.669921875 254.168945312 153.002929688 208.501953125 c 0
 166.3359375 162.834960938 186.168945312 124.001953125 212.501953125 92.001953125 c 0
 238.834960938 60.001953125 271.66796875 35.501953125 311.000976562 18.501953125 c 0
 350.333984375 1.501953125 395.666992188 -6.998046875 447 -6.998046875 c 0
 475.666992188 -6.998046875 505.5 -4.3310546875 536.5 1.001953125 c 0
 567.5 6.3349609375 597 14.66796875 625 26.0009765625 c 1
 646 -24.9990234375 l 1
 614.666992188 -37.666015625 581.166992188 -47.3330078125 545.5 -54 c 0
 509.833007812 -60.6669921875 475.333007812 -64 442 -64 c 0
EndSplineSet
Validated: 37
EndChar

StartChar: A
Encoding: 36 65 36
Width: 1000
GlyphClass: 2
LayerCount: 2
Back
SplineSet
7 0 m 1
 248.999023438 767.999023438 l 1
 350.999023438 767.999023438 l 1
 589.999023438 -0.0009765625 l 1
 506.999023438 -0.0009765625 l 1
 339.999023438 549.999023438 l 2
 336.666015625 560.666015625 332.999023438 573.999023438 328.999023438 589.999023438 c 0
 324.999023438 605.999023438 320.666015625 622.666015625 315.999023438 639.999023438 c 0
 311.33203125 657.33203125 306.83203125 673.83203125 302.499023438 689.499023438 c 0
 298.166015625 705.166015625 294.333007812 718.333007812 291 729 c 1
 304 729 l 1
 294 689 l 2
 290 673 285.5 656.333007812 280.5 639 c 0
 275.5 621.666992188 270.833007812 605 266.5 589 c 0
 262.166992188 573 258 559.333007812 254 548 c 2
 87 0 l 1
 7 0 l 1
124.999023438 190.999023438 m 1
 124.999023438 251.999023438 l 1
 468.999023438 251.999023438 l 1
 468.999023438 190.999023438 l 1
 124.999023438 190.999023438 l 1
EndSplineSet
Fore
Validated: 513
Substitution2: "Single Substitution lookup 20 subtable" ordfeminine
Substitution2: "'aalt' Access All Alternates in Sinhala lookup 0 subtable" ordfeminine
EndChar

StartChar: B
Encoding: 37 66 37
Width: 1000
GlyphClass: 1
LayerCount: 2
Back
SplineSet
223 -4 m 0
 202.333007812 -4 181.001953125 -3.6640625 159.001953125 -2.9970703125 c 0
 137.001953125 -2.330078125 113.668945312 -1.330078125 89.001953125 0.0029296875 c 1
 89.001953125 768.002929688 l 1
 117.001953125 769.3359375 146.668945312 770.168945312 178.001953125 770.501953125 c 0
 209.334960938 770.834960938 240.66796875 771.001953125 272.000976562 771.001953125 c 0
 329.333984375 771.001953125 375.500976562 762.668945312 410.500976562 746.001953125 c 0
 445.500976562 729.334960938 471.16796875 707.001953125 487.500976562 679.001953125 c 0
 503.833984375 651.001953125 512.000976562 619.668945312 512.000976562 585.001953125 c 0
 512.000976562 551.001953125 503.66796875 519.834960938 487.000976562 491.501953125 c 0
 470.333984375 463.168945312 448.166992188 440.8359375 420.5 424.502929688 c 0
 392.833007812 408.169921875 362.666015625 400.002929688 329.999023438 400.002929688 c 1
 329.999023438 410.002929688 l 1
 373.999023438 410.002929688 411.33203125 401.169921875 441.999023438 383.502929688 c 0
 472.666015625 365.8359375 495.833007812 342.668945312 511.5 314.001953125 c 0
 527.166992188 285.334960938 535 254.66796875 535 222.000976562 c 0
 535 174.000976562 524.166992188 133.16796875 502.5 99.5009765625 c 0
 480.833007812 65.833984375 447 40.1669921875 401 22.5 c 0
 355 4.8330078125 295.666992188 -4 223 -4 c 0
165.001953125 51.0029296875 m 1
 150.001953125 67.0029296875 l 1
 168.668945312 65.0029296875 186.8359375 63.5029296875 204.502929688 62.5029296875 c 0
 222.169921875 61.5029296875 238.002929688 61.0029296875 252.002929688 61.0029296875 c 0
 291.3359375 61.0029296875 326.168945312 66.169921875 356.501953125 76.5029296875 c 0
 386.834960938 86.8359375 411.001953125 103.502929688 429.001953125 126.502929688 c 0
 447.001953125 149.502929688 456.001953125 180.669921875 456.001953125 220.002929688 c 0
 456.001953125 264.002929688 441.168945312 299.669921875 411.501953125 327.002929688 c 0
 381.834960938 354.3359375 335.334960938 368.002929688 272.001953125 368.002929688 c 2
 126.001953125 368.002929688 l 1
 126.001953125 429.002929688 l 1
 260.001953125 429.002929688 l 2
 317.334960938 429.002929688 360.501953125 442.669921875 389.501953125 470.002929688 c 0
 418.501953125 497.3359375 433.001953125 531.3359375 433.001953125 572.002929688 c 0
 433.001953125 614.002929688 419.501953125 646.8359375 392.501953125 670.502929688 c 0
 365.501953125 694.169921875 323.334960938 706.002929688 266.001953125 706.002929688 c 0
 247.334960938 706.002929688 228.334960938 705.669921875 209.001953125 705.002929688 c 0
 189.668945312 704.3359375 169.668945312 703.3359375 149.001953125 702.002929688 c 1
 165.001953125 719.002929688 l 1
 165.001953125 51.0029296875 l 1
EndSplineSet
Fore
Validated: 1
EndChar

StartChar: C
Encoding: 38 67 38
Width: 1000
GlyphClass: 2
LayerCount: 2
Back
SplineSet
532 123 m 1
 562.998046875 66.9990234375 l 1
 521.665039062 40.33203125 482.498046875 20.6650390625 445.498046875 7.998046875 c 0
 408.498046875 -4.6689453125 371.998046875 -11.001953125 335.998046875 -11.001953125 c 0
 276.665039062 -11.001953125 225.165039062 4.8310546875 181.498046875 36.498046875 c 0
 137.831054688 68.1650390625 103.831054688 113.33203125 79.498046875 171.999023438 c 0
 55.1650390625 230.666015625 42.998046875 300.666015625 42.998046875 381.999023438 c 0
 42.998046875 446.666015625 50.498046875 503.499023438 65.498046875 552.499023438 c 0
 80.498046875 601.499023438 101.331054688 642.83203125 127.998046875 676.499023438 c 0
 154.665039062 710.166015625 186.165039062 735.666015625 222.498046875 752.999023438 c 0
 258.831054688 770.33203125 298.331054688 778.999023438 340.998046875 778.999023438 c 0
 395.665039062 778.999023438 443.83203125 764.83203125 485.499023438 736.499023438 c 0
 527.166015625 708.166015625 558.333007812 664.999023438 579 606.999023438 c 1
 505 583.999023438 l 1
 487.666992188 628.666015625 464.5 660.833007812 435.5 680.5 c 0
 406.5 700.166992188 374.333007812 710 339 710 c 0
 272.333007812 710 220 681.333007812 182 624 c 0
 144 566.666992188 125 486 125 382 c 0
 125 279.333007812 144.5 200 183.5 144 c 0
 222.5 88 276.666992188 60 346 60 c 0
 375.333007812 60 404.833007812 65 434.5 75 c 0
 464.166992188 85 496.666992188 101 532 123 c 1
EndSplineSet
Fore
Validated: 1
EndChar

StartChar: D
Encoding: 39 68 39
Width: 1000
GlyphClass: 2
LayerCount: 2
Back
SplineSet
279 772 m 0
 338.333007812 772.666992188 388.499023438 762.83203125 429.499023438 742.499023438 c 0
 470.499023438 722.166015625 503.83203125 694.166015625 529.499023438 658.499023438 c 0
 555.166015625 622.83203125 573.666015625 581.33203125 584.999023438 533.999023438 c 0
 596.33203125 486.666015625 601.999023438 435.999023438 601.999023438 381.999023438 c 0
 601.999023438 328.666015625 595.499023438 278.499023438 582.499023438 231.499023438 c 0
 569.499023438 184.499023438 549.83203125 143.499023438 523.499023438 108.499023438 c 0
 497.166015625 73.4990234375 463.333007812 45.9990234375 422 25.9990234375 c 0
 380.666992188 5.9990234375 332 -3.66796875 276 -3.0009765625 c 0
 247.333007812 -3.0009765625 217.666015625 -2.66796875 186.999023438 -2.0009765625 c 0
 156.33203125 -1.333984375 123.665039062 -0.6669921875 88.998046875 0 c 1
 88.998046875 768 l 1
 123.665039062 768.666992188 156.83203125 769.5 188.499023438 770.5 c 0
 220.166015625 771.5 250.333007812 772 279 772 c 0
276.999023438 63.998046875 m 2
 335.666015625 63.998046875 382.666992188 78.166015625 418 106.499023438 c 0
 453.333007812 134.83203125 479.166015625 173.165039062 495.499023438 221.498046875 c 0
 511.83203125 269.831054688 519.999023438 323.331054688 519.999023438 381.998046875 c 0
 519.999023438 425.331054688 515.666015625 466.498046875 506.999023438 505.498046875 c 0
 498.33203125 544.498046875 484.499023438 578.998046875 465.499023438 608.998046875 c 0
 446.499023438 638.998046875 421.666015625 662.331054688 390.999023438 678.998046875 c 0
 360.33203125 695.665039062 322.999023438 703.998046875 278.999023438 703.998046875 c 2
 218.499023438 703.998046875 l 2
 195.499023438 703.998046875 172.33203125 703.665039062 148.999023438 702.998046875 c 1
 164.999023438 718.998046875 l 1
 164.999023438 48.998046875 l 1
 148.999023438 64.998046875 l 1
 172.33203125 64.3310546875 194.999023438 63.998046875 216.999023438 63.998046875 c 2
 276.999023438 63.998046875 l 2
EndSplineSet
Fore
Validated: 1
EndChar

StartChar: E
Encoding: 40 69 40
Width: 1000
GlyphClass: 2
LayerCount: 2
Back
SplineSet
148 65 m 1
 470 65 l 1
 470 0 l 1
 89 0 l 1
 89 768 l 1
 460 768 l 1
 460 703 l 1
 148 703 l 1
 165 721 l 1
 165 417 l 1
 148 432 l 1
 427 432 l 1
 427 368 l 1
 148 368 l 1
 165 385 l 1
 165 47 l 1
 148 65 l 1
EndSplineSet
Fore
Validated: 1
EndChar

StartChar: F
Encoding: 41 70 41
Width: 1000
GlyphClass: 1
LayerCount: 2
Back
SplineSet
461 703 m 1
 148 703 l 1
 165 719 l 1
 165 422 l 1
 148 438 l 1
 428 438 l 1
 428 373 l 1
 148 373 l 1
 165 388 l 1
 165 0 l 1
 89 0 l 1
 89 768 l 1
 461 768 l 1
 461 703 l 1
EndSplineSet
Fore
Validated: 1
EndChar

StartChar: G
Encoding: 42 71 42
Width: 1000
GlyphClass: 2
LayerCount: 2
Back
SplineSet
510 54 m 1
 510.001953125 320.999023438 l 1
 526.001953125 304.999023438 l 1
 337.001953125 304.999023438 l 1
 337.001953125 369.999023438 l 1
 586.001953125 369.999023438 l 1
 586.001953125 53.9990234375 l 1
 542.668945312 31.33203125 500.668945312 14.83203125 460.001953125 4.4990234375 c 0
 419.334960938 -5.833984375 382.334960938 -11.0009765625 349.001953125 -11.0009765625 c 0
 287.668945312 -11.0009765625 233.8359375 4.166015625 187.502929688 34.4990234375 c 0
 141.169921875 64.83203125 105.502929688 109.33203125 80.5029296875 167.999023438 c 0
 55.5029296875 226.666015625 43.0029296875 297.999023438 43.0029296875 381.999023438 c 0
 43.0029296875 466.666015625 56.3359375 538.333007812 83.0029296875 597 c 0
 109.669921875 655.666992188 146.002929688 700.666992188 192.002929688 732 c 0
 238.002929688 763.333007812 289.669921875 779 347.002929688 779 c 0
 400.3359375 779 448.002929688 764.833007812 490.002929688 736.5 c 0
 532.002929688 708.166992188 564.3359375 665 587.002929688 607 c 1
 514.002929688 583 l 1
 495.3359375 627.666992188 471.668945312 660 443.001953125 680 c 0
 414.334960938 700 381.66796875 710 345.000976562 710 c 0
 300.333984375 710 261.500976562 696.833007812 228.500976562 670.5 c 0
 195.500976562 644.166992188 170.000976562 606.5 152.000976562 557.5 c 0
 134.000976562 508.5 125.000976562 450 125.000976562 382 c 0
 125.000976562 312 134.500976562 252.833007812 153.500976562 204.5 c 0
 172.500976562 156.166992188 199.500976562 119.5 234.500976562 94.5 c 0
 269.500976562 69.5 310.66796875 57 358.000976562 57 c 0
 387.333984375 57 417.666992188 62 449 72 c 0
 480.333007812 82 514.333007812 96.6669921875 551 116 c 1
 510 54 l 1
EndSplineSet
Fore
Validated: 1
EndChar

StartChar: H
Encoding: 43 72 43
Width: 1000
GlyphClass: 1
LayerCount: 2
Back
SplineSet
520 768 m 1
 596 768 l 1
 596 0 l 1
 520 0 l 1
 520 381 l 1
 537 367 l 1
 148 367 l 1
 165 381 l 1
 165 0 l 1
 89 0 l 1
 89 768 l 1
 165 768 l 1
 165 417 l 1
 148 431 l 1
 537 431 l 1
 520 417 l 1
 520 768 l 1
EndSplineSet
Fore
Validated: 1
EndChar

StartChar: I
Encoding: 44 73 44
Width: 1000
GlyphClass: 2
LayerCount: 2
Back
SplineSet
169 768 m 1
 169 0 l 1
 92 0 l 1
 92 768 l 1
 169 768 l 1
EndSplineSet
Fore
Validated: 1
EndChar

StartChar: J
Encoding: 45 74 45
Width: 1000
GlyphClass: 1
LayerCount: 2
Back
SplineSet
109 -11 m 0
 92.3330078125 -11 75 -8.66796875 57 -4.0009765625 c 0
 39 0.666015625 20.6669921875 7.9990234375 2 17.9990234375 c 1
 23 79.9990234375 l 1
 52.3330078125 63.33203125 78.3330078125 54.9990234375 101 54.9990234375 c 0
 123 54.9990234375 140.166992188 63.83203125 152.5 81.4990234375 c 0
 164.833007812 99.166015625 171 125.333007812 171 160 c 2
 171 768 l 1
 247 768 l 1
 247 149 l 2
 247 97 234 57.3330078125 208 30 c 0
 182 2.6669921875 149 -11 109 -11 c 0
EndSplineSet
Fore
Validated: 1
EndChar

StartChar: K
Encoding: 46 75 46
Width: 1000
GlyphClass: 1
LayerCount: 2
Back
SplineSet
595 -7 m 1
 583 -9.6669921875 572 -11 562 -11 c 0
 542 -11 525.333007812 -5.8330078125 512 4.5 c 0
 498.666992188 14.8330078125 486.666992188 30.3330078125 476 51 c 2
 285 385 l 1
 309 373 l 1
 148 373 l 1
 165 387 l 1
 165 0 l 1
 89 0 l 1
 89 768 l 1
 165 768 l 1
 165 422 l 1
 148 437 l 1
 309 437 l 1
 289 427 l 1
 494 768 l 1
 572 768 l 1
 340 384 l 1
 343 428 l 1
 540 84 l 2
 547.333007812 70 555 60.5 563 55.5 c 0
 571 50.5 580.333007812 48.6669921875 591 50 c 1
 595 -7 l 1
EndSplineSet
Fore
Validated: 1
EndChar

StartChar: L
Encoding: 47 76 47
Width: 1000
GlyphClass: 2
LayerCount: 2
Back
SplineSet
147 65 m 1
 447 65 l 1
 447 0 l 1
 87 0 l 1
 87 768 l 1
 164 768 l 1
 164 49 l 1
 147 65 l 1
EndSplineSet
Fore
Validated: 1
EndChar

StartChar: M
Encoding: 48 77 48
Width: 1000
GlyphClass: 1
LayerCount: 2
Back
SplineSet
27 0 m 1
 132.001953125 768.002929688 l 1
 217.001953125 768.002929688 l 1
 370.001953125 257.002929688 l 2
 374.668945312 240.3359375 379.168945312 222.668945312 383.501953125 204.001953125 c 0
 387.834960938 185.334960938 392.16796875 166.834960938 396.500976562 148.501953125 c 0
 400.833984375 130.168945312 405.333984375 113.001953125 410.000976562 97.001953125 c 1
 392.000976562 97.001953125 l 1
 397.333984375 113.668945312 402.500976562 131.168945312 407.500976562 149.501953125 c 0
 412.500976562 167.834960938 417.500976562 186.501953125 422.500976562 205.501953125 c 0
 427.500976562 224.501953125 432.66796875 242.334960938 438.000976562 259.001953125 c 2
 599.000976562 768.001953125 l 1
 681.000976562 768.001953125 l 1
 774.000976562 0.001953125 l 1
 696.000976562 0.001953125 l 1
 644.000976562 470.001953125 l 2
 640.000976562 502.668945312 636.16796875 536.501953125 632.500976562 571.501953125 c 0
 628.833984375 606.501953125 625.666992188 639.668945312 623 671.001953125 c 1
 633 671.001953125 l 1
 623 639.668945312 613.166992188 606.168945312 603.5 570.501953125 c 0
 593.833007812 534.834960938 583.666015625 500.66796875 572.999023438 468.000976562 c 2
 430.999023438 29.0009765625 l 1
 361.999023438 26.0009765625 l 1
 227.999023438 471.000976562 l 2
 218.666015625 503.66796875 209.333007812 537.66796875 200 573.000976562 c 0
 190.666992188 608.333984375 181.666992188 641.666992188 173 673 c 1
 182 673 l 1
 178.666992188 641.666992188 174.666992188 608 170 572 c 0
 165.333007812 536 161 501.666992188 157 469 c 2
 98 0 l 1
 27 0 l 1
EndSplineSet
Fore
Validated: 1
EndChar

StartChar: N
Encoding: 49 78 49
Width: 1000
GlyphClass: 2
LayerCount: 2
Back
SplineSet
540 -9 m 1
 152 643 l 1
 161 643 l 1
 161 0 l 1
 89 0 l 1
 89 768 l 1
 158 777 l 1
 541 137 l 1
 535 137 l 1
 535 768 l 1
 607 768 l 1
 607 0 l 1
 540 -9 l 1
EndSplineSet
Fore
Validated: 1
EndChar

StartChar: O
Encoding: 50 79 50
Width: 1000
GlyphClass: 2
LayerCount: 2
Back
SplineSet
338 -11 m 0
 270.666992188 -11 215.166992188 6.1669921875 171.5 40.5 c 0
 127.833007812 74.8330078125 95.5 121.666015625 74.5 180.999023438 c 0
 53.5 240.33203125 43 307.33203125 43 381.999023438 c 0
 43 437.33203125 49.5 488.999023438 62.5 536.999023438 c 0
 75.5 584.999023438 94.8330078125 626.999023438 120.5 662.999023438 c 0
 146.166992188 698.999023438 177.5 727.33203125 214.5 747.999023438 c 0
 251.5 768.666015625 294 778.999023438 342 778.999023438 c 0
 408 778.999023438 462.666992188 761.499023438 506 726.499023438 c 0
 549.333007812 691.499023438 581.5 644.166015625 602.5 584.499023438 c 0
 623.5 524.83203125 634 457.33203125 634 381.999023438 c 0
 634 326.666015625 627.5 275.333007812 614.5 228 c 0
 601.5 180.666992188 582.5 139.166992188 557.5 103.5 c 0
 532.5 67.8330078125 501.666992188 39.8330078125 465 19.5 c 0
 428.333007812 -0.8330078125 386 -11 338 -11 c 0
338 58 m 0
 386 58 425.666992188 72.3310546875 457 100.998046875 c 0
 488.333007812 129.665039062 512 168.498046875 528 217.498046875 c 0
 544 266.498046875 552 321.331054688 552 381.998046875 c 0
 552 443.998046875 544.166992188 499.665039062 528.5 548.998046875 c 0
 512.833007812 598.331054688 489.5 637.498046875 458.5 666.498046875 c 0
 427.5 695.498046875 388.333007812 709.998046875 341 709.998046875 c 0
 293.666992188 709.998046875 254 695.331054688 222 665.998046875 c 0
 190 636.665039062 165.833007812 597.33203125 149.5 547.999023438 c 0
 133.166992188 498.666015625 125 443.333007812 125 382 c 0
 125 320.666992188 132.833007812 265.5 148.5 216.5 c 0
 164.166992188 167.5 187.666992188 128.833007812 219 100.5 c 0
 250.333007812 72.1669921875 290 58 338 58 c 0
EndSplineSet
Fore
Validated: 513
Substitution2: "Single Substitution lookup 20 subtable" ordmasculine
Substitution2: "'aalt' Access All Alternates in Sinhala lookup 0 subtable" ordmasculine
EndChar

StartChar: P
Encoding: 51 80 51
Width: 1000
GlyphClass: 1
LayerCount: 2
Back
SplineSet
91 0 m 1
 91 768.000976562 l 1
 119 769.333984375 147.666992188 770.166992188 177 770.5 c 0
 206.333007812 770.833007812 237.333007812 771 270 771 c 0
 332 771 382 762 420 744 c 0
 458 726 485.666992188 700.833007812 503 668.5 c 0
 520.333007812 636.166992188 529 599.333984375 529 558.000976562 c 0
 529 513.333984375 519.333007812 473.166992188 500 437.5 c 0
 480.666992188 401.833007812 452.5 373.333007812 415.5 352 c 0
 378.5 330.666992188 332.666992188 320 278 320 c 2
 127 320 l 1
 127 386 l 1
 258 386 l 2
 324 386 372.333007812 400.5 403 429.5 c 0
 433.666992188 458.5 449 497 449 545 c 0
 449 595.666992188 435.333007812 635.166992188 408 663.5 c 0
 380.666992188 691.833007812 333 706 265 706 c 0
 247 706 227.666992188 705.666992188 207 705 c 0
 186.333007812 704.333007812 167.333007812 703.333007812 150 702 c 1
 167 719 l 1
 167 0 l 1
 91 0 l 1
EndSplineSet
Fore
Validated: 1
EndChar

StartChar: Q
Encoding: 52 81 52
Width: 1000
GlyphClass: 1
LayerCount: 2
Back
SplineSet
338 -11 m 0
 270 -11 214.333984375 6.1669921875 171.000976562 40.5 c 0
 127.66796875 74.8330078125 95.5009765625 121.666015625 74.5009765625 180.999023438 c 0
 53.5009765625 240.33203125 43.0009765625 307.33203125 43.0009765625 381.999023438 c 0
 43.0009765625 437.33203125 49.5009765625 488.999023438 62.5009765625 536.999023438 c 0
 75.5009765625 584.999023438 94.66796875 626.999023438 120.000976562 662.999023438 c 0
 145.333984375 698.999023438 176.500976562 727.33203125 213.500976562 747.999023438 c 0
 250.500976562 768.666015625 293.000976562 778.999023438 341.000976562 778.999023438 c 0
 407.000976562 778.999023438 461.66796875 761.499023438 505.000976562 726.499023438 c 0
 548.333984375 691.499023438 580.666992188 644.166015625 602 584.499023438 c 0
 623.333007812 524.83203125 634 457.33203125 634 381.999023438 c 0
 634 326.666015625 627.5 275.333007812 614.5 228 c 0
 601.5 180.666992188 582.5 139.166992188 557.5 103.5 c 0
 532.5 67.8330078125 501.666992188 39.8330078125 465 19.5 c 0
 428.333007812 -0.8330078125 386 -11 338 -11 c 0
616.000976562 -119 m 1
 578.66796875 -131.666992188 542.999023438 -138.834960938 508.999023438 -140.501953125 c 0
 474.999023438 -142.168945312 445.499023438 -137.168945312 420.499023438 -125.501953125 c 0
 395.499023438 -113.834960938 376.666015625 -95.001953125 363.999023438 -69.001953125 c 0
 351.33203125 -43.001953125 347.665039062 -9.6689453125 352.998046875 30.998046875 c 1
 424.998046875 30.998046875 l 1
 420.331054688 0.998046875 422.331054688 -22.001953125 430.998046875 -38.001953125 c 0
 439.665039062 -54.001953125 452.83203125 -64.6689453125 470.499023438 -70.001953125 c 0
 488.166015625 -75.3349609375 508.333007812 -76.66796875 531 -74.0009765625 c 0
 553.666992188 -71.333984375 576.333984375 -65.6669921875 599.000976562 -57 c 1
 616.000976562 -119 l 1
337.999023438 57.9990234375 m 0
 385.999023438 57.9990234375 425.666015625 72.330078125 456.999023438 100.997070312 c 0
 488.33203125 129.6640625 511.999023438 168.497070312 527.999023438 217.497070312 c 0
 543.999023438 266.497070312 551.999023438 321.330078125 551.999023438 381.997070312 c 0
 551.999023438 443.997070312 544.166015625 499.6640625 528.499023438 548.997070312 c 0
 512.83203125 598.330078125 489.499023438 637.497070312 458.499023438 666.497070312 c 0
 427.499023438 695.497070312 388.33203125 709.997070312 340.999023438 709.997070312 c 0
 293.666015625 709.997070312 253.999023438 695.330078125 221.999023438 665.997070312 c 0
 189.999023438 636.6640625 165.83203125 597.331054688 149.499023438 547.998046875 c 0
 133.166015625 498.665039062 124.999023438 443.33203125 124.999023438 381.999023438 c 0
 124.999023438 320.666015625 132.83203125 265.499023438 148.499023438 216.499023438 c 0
 164.166015625 167.499023438 187.666015625 128.83203125 218.999023438 100.499023438 c 0
 250.33203125 72.166015625 289.999023438 57.9990234375 337.999023438 57.9990234375 c 0
EndSplineSet
Fore
Validated: 1
EndChar

StartChar: R
Encoding: 53 82 53
Width: 1000
GlyphClass: 2
LayerCount: 2
Back
SplineSet
91 0 m 1
 91.0029296875 768.002929688 l 1
 119.002929688 769.3359375 147.669921875 770.168945312 177.002929688 770.501953125 c 0
 206.3359375 770.834960938 237.002929688 771.001953125 269.002929688 771.001953125 c 0
 325.669921875 771.001953125 373.669921875 763.668945312 413.002929688 749.001953125 c 0
 452.3359375 734.334960938 482.168945312 711.66796875 502.501953125 681.000976562 c 0
 522.834960938 650.333984375 533.001953125 610.666992188 533.001953125 562 c 0
 533.001953125 518.666992188 523.334960938 479.5 504.001953125 444.5 c 0
 484.668945312 409.5 455.668945312 381.833007812 417.001953125 361.5 c 0
 378.334960938 341.166992188 329.66796875 331 271.000976562 331 c 2
 127.000976562 331 l 1
 127.000976562 396 l 1
 266.000976562 396 l 2
 327.333984375 396 373.666992188 409.5 405 436.5 c 0
 436.333007812 463.5 452 502 452 552 c 0
 452 604 438.333007812 642.666992188 411 668 c 0
 383.666992188 693.333007812 335 706 265 706 c 0
 247 706 227.666992188 705.666992188 207 705 c 0
 186.333007812 704.333007812 167.333007812 703.333007812 150 702 c 1
 167 719 l 1
 167 0 l 1
 91 0 l 1
283.002929688 366.002929688 m 1
 357.001953125 375.00390625 l 1
 504.001953125 82.00390625 l 2
 509.334960938 70.6708984375 515.334960938 62.50390625 522.001953125 57.50390625 c 0
 528.668945312 52.50390625 537.3359375 50.00390625 548.002929688 50.00390625 c 2
 552.002929688 50.00390625 l 1
 556.002929688 50.00390625 l 1
 560.002929688 -6.99609375 l 1
 554.669921875 -7.6630859375 548.836914062 -8.330078125 542.50390625 -8.9970703125 c 0
 536.170898438 -9.6640625 530.00390625 -9.9970703125 524.00390625 -9.9970703125 c 0
 504.670898438 -9.9970703125 488.170898438 -4.9970703125 474.50390625 5.0029296875 c 0
 460.836914062 15.0029296875 448.669921875 30.3359375 438.002929688 51.0029296875 c 2
 283.002929688 366.002929688 l 1
EndSplineSet
Fore
Validated: 1
EndChar

StartChar: S
Encoding: 54 83 54
Width: 1000
GlyphClass: 2
LayerCount: 2
Back
SplineSet
253 -11 m 0
 219.666992188 -11 185.334960938 -5.166015625 150.001953125 6.5009765625 c 0
 114.668945312 18.16796875 80.6689453125 35.3349609375 48.001953125 58.001953125 c 1
 82.001953125 115.001953125 l 1
 111.334960938 95.6689453125 141.001953125 81.001953125 171.001953125 71.001953125 c 0
 201.001953125 61.001953125 229.334960938 56.001953125 256.001953125 56.001953125 c 0
 296.001953125 56.001953125 329.501953125 68.1689453125 356.501953125 92.501953125 c 0
 383.501953125 116.834960938 397.001953125 151.334960938 397.001953125 196.001953125 c 0
 397.001953125 224.001953125 391.001953125 247.168945312 379.001953125 265.501953125 c 0
 367.001953125 283.834960938 351.001953125 299.66796875 331.001953125 313.000976562 c 0
 311.001953125 326.333984375 289.334960938 338.500976562 266.001953125 349.500976562 c 0
 242.668945312 360.500976562 219.001953125 372.000976562 195.001953125 384.000976562 c 0
 171.001953125 396.000976562 149.168945312 410.16796875 129.501953125 426.500976562 c 0
 109.834960938 442.833984375 93.8349609375 463.000976562 81.501953125 487.000976562 c 0
 69.1689453125 511.000976562 63.001953125 540.66796875 63.001953125 576.000976562 c 0
 63.001953125 620.000976562 74.001953125 657.000976562 96.001953125 687.000976562 c 0
 118.001953125 717.000976562 146.168945312 739.833984375 180.501953125 755.500976562 c 0
 214.834960938 771.16796875 249.66796875 779.000976562 285.000976562 779.000976562 c 0
 312.333984375 779.000976562 338.500976562 774.833984375 363.500976562 766.500976562 c 0
 388.500976562 758.16796875 410.833984375 745.500976562 430.500976562 728.500976562 c 0
 450.16796875 711.500976562 465.66796875 689.66796875 477.000976562 663.000976562 c 1
 416.000976562 632.000976562 l 1
 402.000976562 660.000976562 382.66796875 680.500976562 358.000976562 693.500976562 c 0
 333.333984375 706.500976562 307.666992188 713.000976562 281 713.000976562 c 0
 257.666992188 713.000976562 235.333984375 707.833984375 214.000976562 697.500976562 c 0
 192.66796875 687.16796875 175.16796875 672.16796875 161.500976562 652.500976562 c 0
 147.833984375 632.833984375 141.000976562 608.333984375 141.000976562 579.000976562 c 0
 141.000976562 553.000976562 147.16796875 531.16796875 159.500976562 513.500976562 c 0
 171.833984375 495.833984375 188.000976562 480.666992188 208.000976562 468 c 0
 228.000976562 455.333007812 249.66796875 443.666015625 273.000976562 432.999023438 c 0
 296.333984375 422.33203125 320.000976562 410.83203125 344.000976562 398.499023438 c 0
 368.000976562 386.166015625 389.833984375 371.499023438 409.500976562 354.499023438 c 0
 429.16796875 337.499023438 445.16796875 316.666015625 457.500976562 291.999023438 c 0
 469.833984375 267.33203125 476.000976562 236.999023438 476.000976562 200.999023438 c 0
 476.000976562 154.999023438 465.66796875 116.33203125 445.000976562 84.9990234375 c 0
 424.333984375 53.666015625 397.166992188 29.8330078125 363.5 13.5 c 0
 329.833007812 -2.8330078125 293 -11 253 -11 c 0
EndSplineSet
Fore
Validated: 1
EndChar

StartChar: T
Encoding: 55 84 55
Width: 1000
GlyphClass: 2
LayerCount: 2
Back
SplineSet
459 769 m 1
 459 703 l 1
 255 703 l 1
 271 720 l 1
 271 0 l 1
 195 0 l 1
 195 720 l 1
 211 703 l 1
 9 703 l 1
 9 769 l 1
 459 769 l 1
EndSplineSet
Fore
Validated: 1
EndChar

StartChar: U
Encoding: 56 85 56
Width: 1000
GlyphClass: 2
LayerCount: 2
Back
SplineSet
336 -11 m 0
 287.333007812 -11 243.999023438 -1.3330078125 205.999023438 18 c 0
 167.999023438 37.3330078125 138.166015625 69 116.499023438 113 c 0
 94.83203125 157 83.9990234375 214.666992188 83.9990234375 286 c 2
 83.9990234375 768 l 1
 160.999023438 768 l 1
 160.999023438 284 l 2
 160.999023438 226 168.83203125 180.5 184.499023438 147.5 c 0
 200.166015625 114.5 221.333007812 91.1669921875 248 77.5 c 0
 274.666992188 63.8330078125 304 57 336 57 c 0
 392 57 436.333007812 74.1669921875 469 108.5 c 0
 501.666992188 142.833007812 518 199 518 277 c 2
 518 768 l 1
 594 768 l 1
 594 275 l 2
 594 209.666992188 582.833007812 156 560.5 114 c 0
 538.166992188 72 507.666992188 40.6669921875 469 20 c 0
 430.333007812 -0.6669921875 386 -11 336 -11 c 0
EndSplineSet
Fore
Validated: 1
EndChar

StartChar: V
Encoding: 57 86 57
Width: 1000
GlyphClass: 1
LayerCount: 2
Back
SplineSet
247 0 m 1
 9.998046875 767.999023438 l 1
 93.998046875 767.999023438 l 1
 244.998046875 262.999023438 l 2
 250.331054688 245.666015625 255.831054688 227.499023438 261.498046875 208.499023438 c 0
 267.165039062 189.499023438 272.83203125 169.999023438 278.499023438 149.999023438 c 0
 284.166015625 129.999023438 289.499023438 110.499023438 294.499023438 91.4990234375 c 0
 299.499023438 72.4990234375 303.666015625 55.33203125 306.999023438 39.9990234375 c 1
 292.999023438 39.9990234375 l 1
 297.666015625 57.33203125 302.333007812 75.4990234375 307 94.4990234375 c 0
 311.666992188 113.499023438 316.5 132.83203125 321.5 152.499023438 c 0
 326.5 172.166015625 331.666992188 191.333007812 337 210 c 0
 342.333007812 228.666992188 347.333007812 246 352 262 c 2
 509 768 l 1
 588 768 l 1
 346 0 l 1
 247 0 l 1
EndSplineSet
Fore
Validated: 1
EndChar

StartChar: W
Encoding: 58 87 58
Width: 1000
GlyphClass: 1
LayerCount: 2
Back
SplineSet
194 0 m 1
 18.9970703125 768.001953125 l 1
 97.9970703125 768.001953125 l 1
 209.997070312 260.001953125 l 2
 213.997070312 242.668945312 217.830078125 222.001953125 221.497070312 198.001953125 c 0
 225.1640625 174.001953125 228.997070312 150.168945312 232.997070312 126.501953125 c 0
 236.997070312 102.834960938 240.330078125 81.66796875 242.997070312 63.0009765625 c 1
 229.997070312 63.0009765625 l 1
 233.997070312 81.66796875 238.330078125 102.834960938 242.997070312 126.501953125 c 0
 247.6640625 150.168945312 252.497070312 174.168945312 257.497070312 198.501953125 c 0
 262.497070312 222.834960938 267.6640625 244.66796875 272.997070312 264.000976562 c 2
 405.997070312 740.000976562 l 1
 475.997070312 743.000976562 l 1
 603.997070312 262.000976562 l 2
 608.6640625 244.000976562 613.331054688 223.000976562 617.998046875 199.000976562 c 2
 631.998046875 127.000976562 l 2
 636.665039062 103.000976562 640.33203125 82.0009765625 642.999023438 64.0009765625 c 1
 628.999023438 64.0009765625 l 1
 632.999023438 82.66796875 636.999023438 104.000976562 640.999023438 128.000976562 c 0
 644.999023438 152.000976562 649.166015625 176.16796875 653.499023438 200.500976562 c 0
 657.83203125 224.833984375 661.999023438 246.000976562 665.999023438 264.000976562 c 2
 781.999023438 768.000976562 l 1
 856.999023438 768.000976562 l 1
 669.999023438 0.0009765625 l 1
 597.999023438 0.0009765625 l 1
 470.999023438 480.000976562 l 2
 465.666015625 498.000976562 460.666015625 517.66796875 455.999023438 539.000976562 c 0
 451.33203125 560.333984375 446.999023438 581.666992188 442.999023438 603 c 0
 438.999023438 624.333007812 435.33203125 643.666015625 431.999023438 660.999023438 c 1
 445.999023438 660.999023438 l 1
 442.666015625 643.666015625 438.833007812 624.333007812 434.5 603 c 0
 430.166992188 581.666992188 425.5 560.166992188 420.5 538.5 c 0
 415.5 516.833007812 410.333007812 497 405 479 c 2
 269 0 l 1
 194 0 l 1
EndSplineSet
Fore
Validated: 1
EndChar

StartChar: X
Encoding: 59 88 59
Width: 1000
GlyphClass: 1
LayerCount: 2
Back
SplineSet
603 -5 m 1
 597.666992188 -7 592.33203125 -8.33203125 586.999023438 -8.9990234375 c 0
 581.666015625 -9.666015625 576.333007812 -9.9990234375 571 -9.9990234375 c 0
 554.333007812 -9.9990234375 539.333007812 -5.33203125 526 4.0009765625 c 0
 512.666992188 13.333984375 499 29.0009765625 485 51.0009765625 c 2
 280 369.000976562 l 1
 21 768.000976562 l 1
 109 768.000976562 l 1
 325 428.000976562 l 1
 551 85.0009765625 l 2
 558.333007812 72.333984375 565.333007812 63.6669921875 572 59 c 0
 578.666992188 54.3330078125 588 52.3330078125 600 53 c 1
 603 -5 l 1
6.998046875 0.0009765625 m 1
 270.998046875 418.000976562 l 1
 294.998046875 434.000976562 l 1
 499.998046875 768.000976562 l 1
 577.998046875 768.000976562 l 1
 338.998046875 377.000976562 l 1
 312.998046875 361.000976562 l 1
 90.998046875 0.0009765625 l 1
 6.998046875 0.0009765625 l 1
EndSplineSet
Fore
Validated: 1
EndChar

StartChar: Y
Encoding: 60 89 60
Width: 1000
GlyphClass: 2
LayerCount: 2
Back
SplineSet
230 0 m 1
 229.998046875 289.999023438 l 1
 0.998046875 767.999023438 l 1
 83.998046875 767.999023438 l 1
 206.998046875 504.999023438 l 2
 221.665039062 474.33203125 234.83203125 444.499023438 246.499023438 415.499023438 c 0
 258.166015625 386.499023438 269.666015625 357.999023438 280.999023438 329.999023438 c 1
 259.999023438 329.999023438 l 1
 271.999023438 359.999023438 283.83203125 388.83203125 295.499023438 416.499023438 c 0
 307.166015625 444.166015625 320.333007812 473.333007812 335 504 c 2
 461 768 l 1
 541 768 l 1
 306 289 l 1
 306 0 l 1
 230 0 l 1
EndSplineSet
Fore
Validated: 1
EndChar

StartChar: Z
Encoding: 61 90 61
Width: 1000
GlyphClass: 2
LayerCount: 2
Back
SplineSet
498 70 m 1
 498 0 l 1
 35 0 l 1
 35 64 l 1
 417 701 l 1
 45 701 l 1
 45 769 l 1
 502 769 l 1
 501 704 l 1
 122 70 l 1
 498 70 l 1
EndSplineSet
Fore
Validated: 1
EndChar

StartChar: bracketleft
Encoding: 62 91 62
Width: 322
GlyphClass: 1
Flags: HW
LayerCount: 2
Back
SplineSet
97 -200 m 1
 97 868 l 1
 290 868 l 1
 290 802 l 1
 168 802 l 1
 168 -134 l 1
 290 -134 l 1
 290 -200 l 1
 97 -200 l 1
EndSplineSet
Fore
SplineSet
97 -200 m 1
 97 868 l 1
 290 868 l 1
 290 802 l 1
 168 802 l 1
 168 -134 l 1
 290 -134 l 1
 290 -200 l 1
 97 -200 l 1
EndSplineSet
Validated: 1
EndChar

StartChar: backslash
Encoding: 63 92 63
Width: 445
GlyphClass: 1
Flags: HW
LayerCount: 2
Back
SplineSet
21 825 m 1
 89 825 l 1
 422 -79 l 1
 353 -80 l 1
 21 825 l 1
EndSplineSet
Fore
SplineSet
21 825 m 1
 89 825 l 1
 422 -79 l 1
 353 -80 l 1
 21 825 l 1
EndSplineSet
Validated: 1
EndChar

StartChar: bracketright
Encoding: 64 93 64
Width: 319
GlyphClass: 1
Flags: HW
LayerCount: 2
Back
SplineSet
222 875 m 1
 222 -193 l 1
 29 -193 l 1
 29 -127 l 1
 151 -127 l 1
 151 809 l 1
 29 809 l 1
 29 875 l 1
 222 875 l 1
EndSplineSet
Fore
SplineSet
222 875 m 1
 222 -193 l 1
 29 -193 l 1
 29 -127 l 1
 151 -127 l 1
 151 809 l 1
 29 809 l 1
 29 875 l 1
 222 875 l 1
EndSplineSet
Validated: 1
EndChar

StartChar: asciicircum
Encoding: 65 94 65
Width: 584
GlyphClass: 1
Flags: HW
LayerCount: 2
Back
SplineSet
522 449 m 1
 473 416 l 1
 280 700 l 1
 305 700 l 1
 109 415 l 1
 62 446 l 1
 293 779 l 1
 522 449 l 1
EndSplineSet
Fore
SplineSet
522 449 m 1
 473 416 l 1
 280 700 l 1
 305 700 l 1
 109 415 l 1
 62 446 l 1
 293 779 l 1
 522 449 l 1
EndSplineSet
Validated: 5
EndChar

StartChar: underscore
Encoding: 66 95 66
Width: 570
GlyphClass: 1
Flags: HW
LayerCount: 2
Back
SplineSet
570 -173 m 1
 570 -232 l 1
 -1 -232 l 1
 -1 -173 l 1
 570 -173 l 1
EndSplineSet
Fore
SplineSet
570 -173 m 1
 570 -232 l 1
 -1 -232 l 1
 -1 -173 l 1
 570 -173 l 1
EndSplineSet
Validated: 1
EndChar

StartChar: grave
Encoding: 67 96 67
Width: 387
GlyphClass: 1
Flags: HW
LayerCount: 2
Back
SplineSet
281 651 m 1
 97 769 l 1
 142 828 l 1
 314 699 l 1
 281 651 l 1
EndSplineSet
Fore
SplineSet
281 651 m 1
 97 769 l 1
 142 828 l 1
 314 699 l 1
 281 651 l 1
EndSplineSet
Validated: 1
EndChar

StartChar: a
Encoding: 68 97 68
Width: 1000
GlyphClass: 2
LayerCount: 2
Back
SplineSet
338 115 m 1
 360 109.999023438 l 1
 350 83.33203125 335.833007812 60.9990234375 317.5 42.9990234375 c 0
 299.166992188 24.9990234375 278.833984375 11.4990234375 256.500976562 2.4990234375 c 0
 234.16796875 -6.5009765625 212.000976562 -11.0009765625 190.000976562 -11.0009765625 c 0
 158.000976562 -11.0009765625 129.500976562 -4.333984375 104.500976562 8.9990234375 c 0
 79.5009765625 22.33203125 59.66796875 41.83203125 45.0009765625 67.4990234375 c 0
 30.333984375 93.166015625 23.0009765625 124.333007812 23.0009765625 161 c 0
 23.0009765625 210.333007812 44.0009765625 250.666015625 86.0009765625 281.999023438 c 0
 128.000976562 313.33203125 186.000976562 328.999023438 260.000976562 328.999023438 c 0
 278.000976562 328.999023438 295.333984375 328.499023438 312.000976562 327.499023438 c 0
 328.66796875 326.499023438 344.66796875 324.33203125 360.000976562 320.999023438 c 1
 360.000976562 267.999023438 l 1
 343.333984375 270.666015625 327.500976562 272.499023438 312.500976562 273.499023438 c 0
 297.500976562 274.499023438 280.333984375 274.999023438 261.000976562 274.999023438 c 0
 221.000976562 274.999023438 189.333984375 269.999023438 166.000976562 259.999023438 c 0
 142.66796875 249.999023438 125.834960938 236.33203125 115.501953125 218.999023438 c 0
 105.168945312 201.666015625 100.001953125 182.333007812 100.001953125 161 c 0
 100.001953125 125 109.334960938 97.6669921875 128.001953125 79 c 0
 146.668945312 60.3330078125 172.668945312 51 206.001953125 51 c 0
 224.001953125 51 242.668945312 55.8330078125 262.001953125 65.5 c 0
 281.334960938 75.1669921875 297.66796875 90.333984375 311.000976562 111.000976562 c 0
 324.333984375 131.66796875 331.000976562 158.334960938 331.000976562 191.001953125 c 2
 331.000976562 401.001953125 l 2
 331.000976562 441.001953125 320.833984375 470.168945312 300.500976562 488.501953125 c 0
 280.16796875 506.834960938 254.000976562 516.001953125 222.000976562 516.001953125 c 0
 199.333984375 516.001953125 175.333984375 511.668945312 150.000976562 503.001953125 c 0
 124.66796875 494.334960938 99.3349609375 482.334960938 74.001953125 467.001953125 c 1
 46.001953125 523.001953125 l 1
 74.6689453125 541.668945312 105.668945312 555.668945312 139.001953125 565.001953125 c 0
 172.334960938 574.334960938 203.66796875 579.001953125 233.000976562 579.001953125 c 0
 265.66796875 579.001953125 295.000976562 572.668945312 321.000976562 560.001953125 c 0
 347.000976562 547.334960938 367.66796875 528.16796875 383.000976562 502.500976562 c 0
 398.333984375 476.833984375 406.000976562 444.333984375 406.000976562 405.000976562 c 2
 406.000976562 127.000976562 l 2
 406.000976562 99.66796875 409.500976562 79.66796875 416.500976562 67.0009765625 c 0
 423.500976562 54.333984375 437.66796875 48.0009765625 459.000976562 48.0009765625 c 2
 467.000976562 48.0009765625 l 2
 469.66796875 48.0009765625 472.66796875 48.333984375 476.000976562 49.0009765625 c 1
 479.000976562 -6.9990234375 l 1
 472.333984375 -8.33203125 465.666992188 -9.33203125 459 -9.9990234375 c 0
 452.333007812 -10.666015625 446 -10.9990234375 440 -10.9990234375 c 0
 404 -10.9990234375 378 -0.83203125 362 19.5009765625 c 0
 346 39.833984375 338 71.6669921875 338 115 c 1
EndSplineSet
Fore
Validated: 513
Substitution2: "Single Substitution lookup 20 subtable" ordfeminine
Substitution2: "'aalt' Access All Alternates in Sinhala lookup 0 subtable" ordfeminine
EndChar

StartChar: b
Encoding: 69 98 69
Width: 1000
GlyphClass: 1
LayerCount: 2
Back
SplineSet
273 -11 m 0
 240.333007812 -11 207.500976562 -6.33203125 174.500976562 3.0009765625 c 0
 141.500976562 12.333984375 112.66796875 24.0009765625 88.0009765625 38.0009765625 c 1
 88.0009765625 825.000976562 l 1
 162.000976562 825.000976562 l 1
 163.000976562 423.000976562 l 1
 132.000976562 423.000976562 l 1
 150.000976562 477.000976562 175.000976562 516.66796875 207.000976562 542.000976562 c 0
 239.000976562 567.333984375 275.000976562 580.000976562 315.000976562 580.000976562 c 0
 353.000976562 580.000976562 387.16796875 569.333984375 417.500976562 548.000976562 c 0
 447.833984375 526.66796875 471.666992188 496.16796875 489 456.500976562 c 0
 506.333007812 416.833984375 515 368.666992188 515 312 c 0
 515 248 505 191.666992188 485 143 c 0
 465 94.3330078125 436.833007812 56.5 400.5 29.5 c 0
 364.166992188 2.5 321.666992188 -11 273 -11 c 0
270.000976562 52.0009765625 m 0
 306.000976562 52.0009765625 336.502929688 62.8330078125 361.502929688 84.5 c 0
 386.502929688 106.166992188 405.502929688 136.5 418.502929688 175.5 c 0
 431.502929688 214.5 438.002929688 259.666992188 438.002929688 311 c 0
 438.002929688 357.666992188 431.3359375 396.333984375 418.002929688 427.000976562 c 0
 404.669921875 457.66796875 387.502929688 480.66796875 366.502929688 496.000976562 c 0
 345.502929688 511.333984375 323.3359375 519.000976562 300.002929688 519.000976562 c 0
 275.3359375 519.000976562 252.668945312 511.833984375 232.001953125 497.500976562 c 0
 211.334960938 483.16796875 194.501953125 462.16796875 181.501953125 434.500976562 c 0
 168.501953125 406.833984375 162.001953125 372.666992188 162.001953125 332 c 2
 162.001953125 79 l 1
 180.001953125 69.6669921875 198.668945312 62.833984375 218.001953125 58.5009765625 c 0
 237.334960938 54.16796875 254.66796875 52.0009765625 270.000976562 52.0009765625 c 0
EndSplineSet
Fore
Validated: 1
EndChar

StartChar: c
Encoding: 70 99 70
Width: 1000
GlyphClass: 2
LayerCount: 2
Back
SplineSet
257 -11 m 0
 190.333007812 -11 137.671875 14.8310546875 99.0048828125 66.498046875 c 0
 60.337890625 118.165039062 41.0048828125 191.33203125 41.0048828125 285.999023438 c 0
 41.0048828125 346.666015625 50.171875 398.999023438 68.5048828125 442.999023438 c 0
 86.837890625 486.999023438 112.670898438 520.666015625 146.00390625 543.999023438 c 0
 179.336914062 567.33203125 217.669921875 578.999023438 261.002929688 578.999023438 c 0
 299.669921875 578.999023438 334.669921875 568.499023438 366.002929688 547.499023438 c 0
 397.3359375 526.499023438 422.668945312 495.33203125 442.001953125 453.999023438 c 1
 381.001953125 424.999023438 l 1
 368.334960938 452.999023438 351.16796875 475.33203125 329.500976562 491.999023438 c 0
 307.833984375 508.666015625 284.666992188 516.999023438 260 516.999023438 c 0
 214 516.999023438 178.833007812 495.999023438 154.5 453.999023438 c 0
 130.166992188 411.999023438 118 355.33203125 118 283.999023438 c 0
 118 207.999023438 131.833007812 150.499023438 159.5 111.499023438 c 0
 187.166992188 72.4990234375 225 52.9990234375 273 52.9990234375 c 0
 292.333007812 52.9990234375 313.333007812 56.166015625 336 62.4990234375 c 0
 358.666992188 68.83203125 383 78.9990234375 409 92.9990234375 c 1
 432 39.9990234375 l 1
 400 22.666015625 369.333007812 9.8330078125 340 1.5 c 0
 310.666992188 -6.8330078125 283 -11 257 -11 c 0
EndSplineSet
Fore
Validated: 1
EndChar

StartChar: d
Encoding: 71 100 71
Width: 1000
GlyphClass: 2
LayerCount: 2
Back
SplineSet
468 825 m 1
 467.99609375 108.999023438 l 2
 467.99609375 84.9990234375 471.329101562 68.33203125 477.99609375 58.9990234375 c 0
 484.663085938 49.666015625 497.663085938 46.3330078125 516.99609375 49 c 1
 519.99609375 -7 l 1
 492.663085938 -11.6669921875 469.830078125 -10.833984375 451.497070312 -4.5009765625 c 0
 433.1640625 1.83203125 419.6640625 13.6650390625 410.997070312 30.998046875 c 0
 402.330078125 48.3310546875 397.997070312 71.998046875 397.997070312 101.998046875 c 2
 397.997070312 146.998046875 l 1
 426.997070312 146.998046875 l 1
 410.997070312 93.6650390625 386.330078125 53.998046875 352.997070312 27.998046875 c 0
 319.6640625 1.998046875 282.331054688 -11.001953125 240.998046875 -11.001953125 c 0
 202.331054688 -11.001953125 167.831054688 0.3310546875 137.498046875 22.998046875 c 0
 107.165039062 45.6650390625 83.33203125 77.33203125 65.9990234375 117.999023438 c 0
 48.666015625 158.666015625 39.9990234375 206.333007812 39.9990234375 261 c 0
 39.9990234375 305.666992188 45.4990234375 347.5 56.4990234375 386.5 c 0
 67.4990234375 425.5 83.33203125 459.333007812 103.999023438 488 c 0
 124.666015625 516.666992188 149.833007812 539.166992188 179.5 555.5 c 0
 209.166992188 571.833007812 243 580 281 580 c 0
 311.666992188 580 341.166992188 575.666992188 369.5 567 c 0
 397.833007812 558.333007812 424 547 448 533 c 1
 398 490 l 1
 380 499.333007812 360.666992188 506.166015625 340 510.499023438 c 0
 319.333007812 514.83203125 301.333007812 516.999023438 286 516.999023438 c 0
 250 516.999023438 219.5 506.33203125 194.5 484.999023438 c 0
 169.5 463.666015625 150.5 433.833007812 137.5 395.5 c 0
 124.5 357.166992188 118 313.666992188 118 265 c 0
 118 219 124.5 180 137.5 148 c 0
 150.5 116 167.5 91.8330078125 188.5 75.5 c 0
 209.5 59.1669921875 232 51 256 51 c 0
 280.666992188 51 303.5 57.3330078125 324.5 70 c 0
 345.5 82.6669921875 362.5 102.166992188 375.5 128.5 c 0
 388.5 154.833007812 395 188.333007812 395 229 c 2
 395 825 l 1
 468 825 l 1
EndSplineSet
Fore
Validated: 1
EndChar

StartChar: e
Encoding: 72 101 72
Width: 1000
GlyphClass: 2
LayerCount: 2
Back
SplineSet
289 -11 m 0
 240.333007812 -11 197.666015625 0.5 160.999023438 23.5 c 0
 124.33203125 46.5 95.83203125 80.1669921875 75.4990234375 124.5 c 0
 55.166015625 168.833007812 44.9990234375 223 44.9990234375 287 c 0
 44.9990234375 346.333007812 54.33203125 397.833007812 72.9990234375 441.5 c 0
 91.666015625 485.166992188 117.999023438 519.166992188 151.999023438 543.5 c 0
 185.999023438 567.833007812 225.33203125 580 269.999023438 580 c 0
 319.33203125 580 359.165039062 568.333007812 389.498046875 545 c 0
 419.831054688 521.666992188 441.6640625 489.166992188 454.997070312 447.5 c 0
 468.330078125 405.833007812 474.997070312 357.333007812 474.997070312 302 c 2
 474.997070312 274 l 1
 85.9970703125 274 l 1
 86.9970703125 332 l 1
 399.997070312 334 l 1
 399.997070312 357.333007812 397.830078125 380 393.497070312 402 c 0
 389.1640625 424 381.831054688 443.833007812 371.498046875 461.5 c 0
 361.165039062 479.166992188 347.83203125 493.166992188 331.499023438 503.5 c 0
 315.166015625 513.833007812 294.333007812 519 269 519 c 0
 223 519 187 497.833007812 161 455.5 c 0
 135 413.166992188 122 356 122 284 c 0
 122 208.666992188 138.166992188 151.166992188 170.5 111.5 c 0
 202.833007812 71.8330078125 245.333007812 52 298 52 c 0
 322 52 345.5 55.1669921875 368.5 61.5 c 0
 391.5 67.8330078125 415.666992188 77.3330078125 441 90 c 1
 463 37 l 1
 433.666992188 21 404.166992188 9 374.5 1 c 0
 344.833007812 -7 316.333007812 -11 289 -11 c 0
EndSplineSet
Fore
Validated: 1
EndChar

StartChar: f
Encoding: 73 102 73
Width: 1000
GlyphClass: 1
LayerCount: 2
Back
SplineSet
116 0 m 1
 115.998046875 675 l 2
 115.998046875 727.666992188 129.331054688 767.666992188 155.998046875 795 c 0
 182.665039062 822.333007812 215.998046875 836 255.998046875 836 c 0
 273.998046875 836 292.331054688 833.333007812 310.998046875 828 c 0
 329.665039062 822.666992188 348.33203125 814 366.999023438 802 c 1
 339.999023438 750 l 1
 326.666015625 758 313.833007812 763.833007812 301.5 767.5 c 0
 289.166992188 771.166992188 277.666992188 773 267 773 c 0
 243 773 224.333007812 763.666992188 211 745 c 0
 197.666992188 726.333007812 191 698.333007812 191 661 c 2
 191 0 l 1
 116 0 l 1
35.998046875 510 m 1
 35.998046875 569 l 1
 336.998046875 569 l 1
 336.998046875 510 l 1
 35.998046875 510 l 1
EndSplineSet
Fore
Validated: 1
EndChar

StartChar: g
Encoding: 74 103 74
Width: 1000
GlyphClass: 2
LayerCount: 2
Back
SplineSet
379 374 m 0
 379 406 373.330078125 432.666015625 361.997070312 453.999023438 c 0
 350.6640625 475.33203125 335.997070312 491.33203125 317.997070312 501.999023438 c 0
 299.997070312 512.666015625 280.6640625 517.999023438 259.997070312 517.999023438 c 0
 240.6640625 517.999023438 221.831054688 512.666015625 203.498046875 501.999023438 c 0
 185.165039062 491.33203125 170.33203125 475.33203125 158.999023438 453.999023438 c 0
 147.666015625 432.666015625 141.999023438 405.999023438 141.999023438 373.999023438 c 0
 141.999023438 343.999023438 147.83203125 318.499023438 159.499023438 297.499023438 c 0
 171.166015625 276.499023438 185.999023438 260.83203125 203.999023438 250.499023438 c 0
 221.999023438 240.166015625 240.999023438 234.999023438 260.999023438 234.999023438 c 0
 281.666015625 234.999023438 300.833007812 240.166015625 318.5 250.499023438 c 0
 336.166992188 260.83203125 350.666992188 276.33203125 362 296.999023438 c 0
 373.333007812 317.666015625 379 343.333007812 379 374 c 0
450.997070312 373.999023438 m 0
 450.997070312 331.33203125 442.1640625 295.1640625 424.497070312 265.497070312 c 0
 406.830078125 235.830078125 383.497070312 213.330078125 354.497070312 197.997070312 c 0
 325.497070312 182.6640625 294.330078125 174.997070312 260.997070312 174.997070312 c 0
 226.997070312 174.997070312 195.497070312 182.497070312 166.497070312 197.497070312 c 0
 137.497070312 212.497070312 114.1640625 234.830078125 96.4970703125 264.497070312 c 0
 78.830078125 294.1640625 69.9970703125 330.331054688 69.9970703125 372.998046875 c 0
 69.9970703125 417.665039062 78.830078125 455.165039062 96.4970703125 485.498046875 c 0
 114.1640625 515.831054688 137.6640625 538.831054688 166.997070312 554.498046875 c 0
 196.330078125 570.165039062 227.663085938 577.998046875 260.99609375 577.998046875 c 0
 294.99609375 577.998046875 326.329101562 569.998046875 354.99609375 553.998046875 c 0
 383.663085938 537.998046875 406.830078125 514.831054688 424.497070312 484.498046875 c 0
 442.1640625 454.165039062 450.997070312 417.33203125 450.997070312 373.999023438 c 0
505.997070312 576.998046875 m 1
 505.997070312 516.998046875 l 1
 355.997070312 519.998046875 l 1
 260.997070312 567.998046875 l 1
 505.997070312 576.998046875 l 1
176.997070312 59.998046875 m 1
 205.995117188 30.9970703125 l 1
 175.995117188 15.6640625 153.162109375 -1.8359375 137.495117188 -21.5029296875 c 0
 121.828125 -41.169921875 113.995117188 -62.669921875 113.995117188 -86.0029296875 c 0
 113.995117188 -115.3359375 127.162109375 -138.502929688 153.495117188 -155.502929688 c 0
 179.828125 -172.502929688 214.328125 -181.002929688 256.995117188 -181.002929688 c 0
 308.328125 -181.002929688 349.495117188 -170.669921875 380.495117188 -150.002929688 c 0
 411.495117188 -129.3359375 426.995117188 -101.002929688 426.995117188 -65.0029296875 c 0
 426.995117188 -37.669921875 415.662109375 -15.8369140625 392.995117188 0.49609375 c 0
 370.328125 16.8291015625 338.995117188 24.662109375 298.995117188 23.9951171875 c 2
 201.995117188 21.9951171875 l 2
 175.995117188 21.328125 153.828125 25.4951171875 135.495117188 34.4951171875 c 0
 117.162109375 43.4951171875 103.329101562 55.328125 93.99609375 69.9951171875 c 0
 84.6630859375 84.662109375 79.99609375 100.329101562 79.99609375 116.99609375 c 0
 79.99609375 139.663085938 88.3291015625 161.49609375 104.99609375 182.49609375 c 0
 121.663085938 203.49609375 147.330078125 218.329101562 181.997070312 226.99609375 c 1
 199.997070312 188.99609375 l 1
 180.6640625 183.663085938 166.331054688 175.330078125 156.998046875 163.997070312 c 0
 147.665039062 152.6640625 142.998046875 141.331054688 142.998046875 129.998046875 c 0
 142.998046875 116.665039062 148.331054688 105.498046875 158.998046875 96.498046875 c 0
 169.665039062 87.498046875 183.998046875 82.998046875 201.998046875 82.998046875 c 2
 304.998046875 84.998046875 l 2
 366.998046875 85.6650390625 414.998046875 72.498046875 448.998046875 45.498046875 c 0
 482.998046875 18.498046875 499.998046875 -17.001953125 499.998046875 -61.001953125 c 0
 499.998046875 -95.6689453125 489.998046875 -126.668945312 469.998046875 -154.001953125 c 0
 449.998046875 -181.334960938 421.498046875 -202.834960938 384.498046875 -218.501953125 c 0
 347.498046875 -234.168945312 302.998046875 -242.001953125 250.998046875 -242.001953125 c 0
 210.331054688 -242.001953125 174.331054688 -236.001953125 142.998046875 -224.001953125 c 0
 111.665039062 -212.001953125 86.998046875 -195.168945312 68.998046875 -173.501953125 c 0
 50.998046875 -151.834960938 41.998046875 -126.001953125 41.998046875 -96.001953125 c 0
 41.998046875 -64.6689453125 53.6650390625 -36.001953125 76.998046875 -10.001953125 c 0
 100.331054688 15.998046875 133.6640625 39.3310546875 176.997070312 59.998046875 c 1
EndSplineSet
Fore
Validated: 1
EndChar

StartChar: h
Encoding: 75 104 75
Width: 1000
GlyphClass: 1
LayerCount: 2
Back
SplineSet
409 1 m 1
 408.999023438 382.000976562 l 2
 408.999023438 427.333984375 399.33203125 461.500976562 379.999023438 484.500976562 c 0
 360.666015625 507.500976562 334.666015625 519.000976562 301.999023438 519.000976562 c 0
 277.999023438 519.000976562 255.33203125 511.833984375 233.999023438 497.500976562 c 0
 212.666015625 483.16796875 195.333007812 461.500976562 182 432.500976562 c 0
 168.666992188 403.500976562 162 367.000976562 162 323.000976562 c 2
 162 0.0009765625 l 1
 88 0.0009765625 l 1
 88 825.000976562 l 1
 162 825.000976562 l 1
 161 415.000976562 l 1
 135 415.000976562 l 1
 149.666992188 470.333984375 173.666992188 511.666992188 207 539 c 0
 240.333007812 566.333007812 277.333007812 580 318 580 c 0
 352 580 381.333007812 572.666992188 406 558 c 0
 430.666992188 543.333007812 449.666992188 521.833007812 463 493.5 c 0
 476.333007812 465.166992188 483 430 483 388 c 2
 483 1 l 1
 409 1 l 1
EndSplineSet
Fore
Validated: 1
EndChar

StartChar: i
Encoding: 76 105 76
Width: 1000
GlyphClass: 1
LayerCount: 2
Back
SplineSet
88 0 m 1
 88 569 l 1
 161 569 l 1
 161 0 l 1
 88 0 l 1
125 675 m 0
 109.666992188 675 97 680.333007812 87 691 c 0
 77 701.666992188 72 716 72 734 c 0
 72 751.333007812 77.1669921875 765.333007812 87.5 776 c 0
 97.8330078125 786.666992188 110.333007812 792 125 792 c 0
 140.333007812 792 153 786.666992188 163 776 c 0
 173 765.333007812 178 751.333007812 178 734 c 0
 178 716.666992188 173 702.5 163 691.5 c 0
 153 680.5 140.333007812 675 125 675 c 0
EndSplineSet
Fore
Validated: 1
EndChar

StartChar: j
Encoding: 77 106 77
Width: 1000
GlyphClass: 1
LayerCount: 2
Back
SplineSet
28 -242 m 0
 12 -242 -5 -239.666992188 -23 -235 c 0
 -41 -230.333007812 -59.6669921875 -223 -79 -213 c 1
 -52 -156 l 1
 -39.3330078125 -163.333007812 -26.8330078125 -169.166015625 -14.5 -173.499023438 c 0
 -2.1669921875 -177.83203125 9.3330078125 -179.999023438 20 -179.999023438 c 0
 44 -179.999023438 62.1669921875 -170.83203125 74.5 -152.499023438 c 0
 86.8330078125 -134.166015625 93 -108.333007812 93 -75 c 2
 93 569 l 1
 168 569 l 1
 168 -73 l 2
 168 -126.333007812 155 -167.833007812 129 -197.5 c 0
 103 -227.166992188 69.3330078125 -242 28 -242 c 0
131 677 m 0
 115.666992188 677 103.166992188 682.333007812 93.5 693 c 0
 83.8330078125 703.666992188 79 718 79 736 c 0
 79 753.333007812 83.8330078125 767.166015625 93.5 777.499023438 c 0
 103.166992188 787.83203125 115.666992188 792.999023438 131 792.999023438 c 0
 146.333007812 792.999023438 159.166015625 787.83203125 169.499023438 777.499023438 c 0
 179.83203125 767.166015625 184.999023438 753.333007812 184.999023438 736 c 0
 184.999023438 718 179.83203125 703.666992188 169.499023438 693 c 0
 159.166015625 682.333007812 146.333007812 677 131 677 c 0
EndSplineSet
Fore
Validated: 1
EndChar

StartChar: k
Encoding: 78 107 78
Width: 1000
GlyphClass: 1
LayerCount: 2
Back
SplineSet
163 0 m 1
 89 0 l 1
 89 825 l 1
 163 825 l 1
 163 0 l 1
393 51 m 2
 252.000976562 301 l 1
 124.000976562 301 l 1
 124.000976562 362 l 1
 268.000976562 362 l 1
 406.000976562 569 l 1
 483.000976562 569 l 1
 305.000976562 306 l 1
 305.000976562 342 l 1
 453.000976562 81 l 2
 460.333984375 68.3330078125 466.500976562 59.5 471.500976562 54.5 c 0
 476.500976562 49.5 482.66796875 47 490.000976562 47 c 2
 497.000976562 47 l 2
 499.000976562 47 501.66796875 47.3330078125 505.000976562 48 c 1
 505.000976562 -7 l 1
 500.333984375 -8.3330078125 495.666992188 -9.3330078125 491 -10 c 0
 486.333007812 -10.6669921875 481.333007812 -11 476 -11 c 0
 457.333007812 -11 441.833007812 -6 429.5 4 c 0
 417.166992188 14 405 29.6669921875 393 51 c 2
EndSplineSet
Fore
Validated: 1
EndChar

StartChar: l
Encoding: 79 108 79
Width: 1000
GlyphClass: 2
LayerCount: 2
Back
SplineSet
88 109 m 2
 87.9990234375 825 l 1
 161.999023438 825 l 1
 161.999023438 117 l 2
 161.999023438 95 165.999023438 78.5 173.999023438 67.5 c 0
 181.999023438 56.5 193.999023438 51 209.999023438 51 c 0
 216.666015625 51 224.166015625 51.8330078125 232.499023438 53.5 c 0
 240.83203125 55.1669921875 249.33203125 57.6669921875 257.999023438 61 c 1
 258.999023438 2 l 1
 248.33203125 -2 237.83203125 -5 227.499023438 -7 c 0
 217.166015625 -9 206.333007812 -10 195 -10 c 0
 163 -10 137.166992188 0 117.5 20 c 0
 97.8330078125 40 88 69.6669921875 88 109 c 2
EndSplineSet
Fore
Validated: 1
EndChar

StartChar: m
Encoding: 80 109 80
Width: 1000
GlyphClass: 1
LayerCount: 2
Back
SplineSet
787 0 m 1
 713.999023438 0.0009765625 l 1
 713.999023438 381.000976562 l 2
 713.999023438 427.000976562 704.499023438 461.66796875 685.499023438 485.000976562 c 0
 666.499023438 508.333984375 642.33203125 520.000976562 612.999023438 520.000976562 c 0
 589.666015625 520.000976562 567.833007812 512.66796875 547.5 498.000976562 c 0
 527.166992188 483.333984375 510.666992188 461.166992188 498 431.5 c 0
 485.333007812 401.833007812 479 365 479 321 c 2
 479 0 l 1
 404 0 l 1
 404 381 l 2
 404 427 394.666992188 461.666992188 376 485 c 0
 357.333007812 508.333007812 332 520 300 520 c 0
 276 520 253.5 512.666992188 232.5 498 c 0
 211.5 483.333007812 194.333007812 461.166015625 181 431.499023438 c 0
 167.666992188 401.83203125 161 364.999023438 161 320.999023438 c 2
 161 -0.0009765625 l 1
 87 -0.0009765625 l 1
 87 568.999023438 l 1
 157 568.999023438 l 1
 160 415.999023438 l 1
 135 415.999023438 l 1
 144.333007812 452.666015625 158.166015625 482.999023438 176.499023438 506.999023438 c 0
 194.83203125 530.999023438 215.999023438 549.166015625 239.999023438 561.499023438 c 0
 263.999023438 573.83203125 288.999023438 579.999023438 314.999023438 579.999023438 c 0
 345.666015625 579.999023438 372.499023438 573.166015625 395.499023438 559.499023438 c 0
 418.499023438 545.83203125 437.166015625 526.33203125 451.499023438 500.999023438 c 0
 465.83203125 475.666015625 474.33203125 445.333007812 476.999023438 410 c 1
 450.999023438 410 l 1
 460.999023438 448.666992188 474.83203125 480.5 492.499023438 505.5 c 0
 510.166015625 530.5 530.833007812 549.166992188 554.5 561.5 c 0
 578.166992188 573.833007812 602.666992188 580 628 580 c 0
 660 580 688 572.666992188 712 558 c 0
 736 543.333007812 754.5 522 767.5 494 c 0
 780.5 466 787 431.333007812 787 390 c 2
 787 0 l 1
EndSplineSet
Fore
Validated: 1
EndChar

StartChar: n
Encoding: 81 110 81
Width: 1000
GlyphClass: 2
LayerCount: 2
Back
SplineSet
410 0 m 1
 410 380.999023438 l 2
 410 425.666015625 400.333007812 459.833007812 381 483.5 c 0
 361.666992188 507.166992188 335.666992188 519 303 519 c 0
 279 519 256.333007812 511.666992188 235 497 c 0
 213.666992188 482.333007812 196.333984375 460.333007812 183.000976562 431 c 0
 169.66796875 401.666992188 163.000976562 364.666992188 163.000976562 320 c 2
 163.000976562 0 l 1
 89.0009765625 0 l 1
 89.0009765625 569 l 1
 159.000976562 569 l 1
 161.000976562 416 l 1
 138.000976562 416 l 1
 152.66796875 472 176.16796875 513.333007812 208.500976562 540 c 0
 240.833984375 566.666992188 277.666992188 580 319 580 c 0
 352.333007812 580 381.5 572.666992188 406.5 558 c 0
 431.5 543.333007812 450.666992188 522 464 494 c 0
 477.333007812 466 484 431.333007812 484 390 c 2
 484 0 l 1
 410 0 l 1
EndSplineSet
Fore
Validated: 1
EndChar

StartChar: o
Encoding: 82 111 82
Width: 1000
GlyphClass: 2
LayerCount: 2
Back
SplineSet
436 283 m 0
 436 329.666992188 429.999023438 370.499023438 417.999023438 405.499023438 c 0
 405.999023438 440.499023438 388.499023438 467.83203125 365.499023438 487.499023438 c 0
 342.499023438 507.166015625 313.999023438 516.999023438 279.999023438 516.999023438 c 0
 245.999023438 516.999023438 216.999023438 507.166015625 192.999023438 487.499023438 c 0
 168.999023438 467.83203125 150.666015625 440.33203125 137.999023438 404.999023438 c 0
 125.33203125 369.666015625 118.999023438 329.333007812 118.999023438 284 c 0
 118.999023438 238 124.999023438 197.5 136.999023438 162.5 c 0
 148.999023438 127.5 166.999023438 100.333007812 190.999023438 81 c 0
 214.999023438 61.6669921875 243.666015625 52 276.999023438 52 c 0
 311.666015625 52 340.833007812 61.6669921875 364.5 81 c 0
 388.166992188 100.333007812 406 127.5 418 162.5 c 0
 430 197.5 436 237.666992188 436 283 c 0
513.999023438 283.999023438 m 0
 513.999023438 225.999023438 504.665039062 174.83203125 485.998046875 130.499023438 c 0
 467.331054688 86.166015625 440.331054688 51.4990234375 404.998046875 26.4990234375 c 0
 369.665039062 1.4990234375 326.33203125 -11.0009765625 274.999023438 -11.0009765625 c 0
 222.999023438 -11.0009765625 179.666015625 1.4990234375 144.999023438 26.4990234375 c 0
 110.33203125 51.4990234375 84.4990234375 86.166015625 67.4990234375 130.499023438 c 0
 50.4990234375 174.83203125 41.9990234375 225.665039062 41.9990234375 282.998046875 c 0
 41.9990234375 340.331054688 51.4990234375 391.331054688 70.4990234375 435.998046875 c 0
 89.4990234375 480.665039062 116.999023438 515.83203125 152.999023438 541.499023438 c 0
 188.999023438 567.166015625 231.999023438 579.999023438 281.999023438 579.999023438 c 0
 334.666015625 579.999023438 377.999023438 567.166015625 411.999023438 541.499023438 c 0
 445.999023438 515.83203125 471.499023438 480.999023438 488.499023438 436.999023438 c 0
 505.499023438 392.999023438 513.999023438 341.999023438 513.999023438 283.999023438 c 0
EndSplineSet
Fore
Validated: 513
Substitution2: "Single Substitution lookup 20 subtable" ordmasculine
Substitution2: "'aalt' Access All Alternates in Sinhala lookup 0 subtable" ordmasculine
EndChar

StartChar: p
Encoding: 83 112 83
Width: 1000
GlyphClass: 1
LayerCount: 2
Back
SplineSet
88 -232 m 1
 88.0009765625 569.001953125 l 1
 158.000976562 569.001953125 l 1
 162.000976562 421.001953125 l 1
 131.000976562 420.001953125 l 1
 149.000976562 474.001953125 174.000976562 514.168945312 206.000976562 540.501953125 c 0
 238.000976562 566.834960938 274.66796875 580.001953125 316.000976562 580.001953125 c 0
 352.66796875 580.001953125 386.16796875 569.334960938 416.500976562 548.001953125 c 0
 446.833984375 526.668945312 470.833984375 496.168945312 488.500976562 456.501953125 c 0
 506.16796875 416.834960938 515.000976562 368.66796875 515.000976562 312.000976562 c 0
 515.000976562 248.000976562 505.16796875 191.66796875 485.500976562 143.000976562 c 0
 465.833984375 94.333984375 437.833984375 56.5009765625 401.500976562 29.5009765625 c 0
 365.16796875 2.5009765625 322.66796875 -10.9990234375 274.000976562 -10.9990234375 c 0
 242.000976562 -10.9990234375 210.333984375 -6.166015625 179.000976562 3.5009765625 c 0
 147.66796875 13.16796875 120.000976562 25.0009765625 96.0009765625 39.0009765625 c 1
 159.000976562 81.0009765625 l 1
 177.000976562 72.333984375 196.16796875 65.333984375 216.500976562 60.0009765625 c 0
 236.833984375 54.66796875 254.666992188 52.0009765625 270 52.0009765625 c 0
 306 52.0009765625 336.5 62.833984375 361.5 84.5009765625 c 0
 386.5 106.16796875 405.5 136.66796875 418.5 176.000976562 c 0
 431.5 215.333984375 438 260.333984375 438 311.000976562 c 0
 438 358.333984375 431.333007812 397.166992188 418 427.5 c 0
 404.666992188 457.833007812 387.5 480.5 366.5 495.5 c 0
 345.5 510.5 323.333007812 518 300 518 c 0
 276.666992188 518 254.5 510.833007812 233.5 496.5 c 0
 212.5 482.166992188 195.333007812 461.166992188 182 433.5 c 0
 168.666992188 405.833007812 162 372 162 332 c 2
 162 -232 l 1
 88 -232 l 1
EndSplineSet
Fore
Validated: 1
EndChar

StartChar: q
Encoding: 84 113 84
Width: 1000
GlyphClass: 1
LayerCount: 2
Back
SplineSet
281 580 m 0
 315 580 348.666992188 575.333007812 382 566 c 0
 415.333007812 556.666992188 444 545 468 531 c 1
 468 -256 l 1
 394 -256 l 1
 393 148 l 1
 423 149 l 1
 405.666992188 95 381.166992188 54.8330078125 349.5 28.5 c 0
 317.833007812 2.1669921875 281.666015625 -11 240.999023438 -11 c 0
 203.666015625 -11 169.833007812 -0.3330078125 139.5 21 c 0
 109.166992188 42.3330078125 85.1669921875 73 67.5 113 c 0
 49.8330078125 153 41 201 41 257 c 0
 41 321.666992188 50.8330078125 378.166992188 70.5 426.5 c 0
 90.1669921875 474.833007812 118 512.5 154 539.5 c 0
 190 566.5 232.333007812 580 281 580 c 0
286 517 m 0
 250.666992188 517 220.498046875 506.333984375 195.498046875 485.000976562 c 0
 170.498046875 463.66796875 151.331054688 433.500976562 137.998046875 394.500976562 c 0
 124.665039062 355.500976562 117.998046875 310.000976562 117.998046875 258.000976562 c 0
 117.998046875 211.333984375 124.665039062 172.666992188 137.998046875 142 c 0
 151.331054688 111.333007812 168.498046875 88.5 189.498046875 73.5 c 0
 210.498046875 58.5 232.665039062 51 255.998046875 51 c 0
 280.665039062 51 303.33203125 58.1669921875 323.999023438 72.5 c 0
 344.666015625 86.8330078125 361.499023438 107.833007812 374.499023438 135.5 c 0
 387.499023438 163.166992188 393.999023438 197.333984375 393.999023438 238.000976562 c 2
 393.999023438 490.000976562 l 1
 375.999023438 499.333984375 357.33203125 506.166992188 337.999023438 510.5 c 0
 318.666015625 514.833007812 301.333007812 517 286 517 c 0
EndSplineSet
Fore
Validated: 1
EndChar

StartChar: r
Encoding: 85 114 85
Width: 1000
GlyphClass: 2
LayerCount: 2
Back
SplineSet
88 0 m 1
 87.9990234375 571 l 1
 156.999023438 571 l 1
 159.999023438 416 l 1
 140.999023438 416 l 1
 152.33203125 466.666992188 172.499023438 506.666992188 201.499023438 536 c 0
 230.499023438 565.333007812 264.999023438 580 304.999023438 580 c 0
 311.666015625 580 317.999023438 579.5 323.999023438 578.5 c 0
 329.999023438 577.5 335.999023438 576 341.999023438 574 c 1
 333.999023438 504 l 1
 318.666015625 508.666992188 303.999023438 511 289.999023438 511 c 0
 264.666015625 511 242.333007812 503.166992188 223 487.5 c 0
 203.666992188 471.833007812 188.666992188 450 178 422 c 0
 167.333007812 394 162 362 162 326 c 2
 162 0 l 1
 88 0 l 1
EndSplineSet
Fore
Validated: 1
EndChar

StartChar: s
Encoding: 86 115 86
Width: 1000
GlyphClass: 2
LayerCount: 2
Back
SplineSet
212 -11 m 0
 182.666992188 -11 153.00390625 -6.0009765625 123.00390625 3.9990234375 c 0
 93.00390625 13.9990234375 65.00390625 28.666015625 39.00390625 47.9990234375 c 1
 69.00390625 97.9990234375 l 1
 91.00390625 82.666015625 114.670898438 70.8330078125 140.00390625 62.5 c 0
 165.336914062 54.1669921875 189.00390625 50 211.00390625 50 c 0
 239.670898438 50 264.337890625 58.5 285.004882812 75.5 c 0
 305.671875 92.5 316.004882812 116.333007812 316.004882812 147 c 0
 316.004882812 169.666992188 309.671875 188.333984375 297.004882812 203.000976562 c 0
 284.337890625 217.66796875 268.170898438 230.334960938 248.50390625 241.001953125 c 0
 228.836914062 251.668945312 208.169921875 262.168945312 186.502929688 272.501953125 c 0
 164.8359375 282.834960938 144.002929688 294.501953125 124.002929688 307.501953125 c 0
 104.002929688 320.501953125 87.8359375 337.001953125 75.5029296875 357.001953125 c 0
 63.169921875 377.001953125 57.0029296875 402.001953125 57.0029296875 432.001953125 c 0
 57.0029296875 464.001953125 65.3359375 490.834960938 82.0029296875 512.501953125 c 0
 98.669921875 534.168945312 120.169921875 550.8359375 146.502929688 562.502929688 c 0
 172.8359375 574.169921875 200.3359375 580.002929688 229.002929688 580.002929688 c 0
 261.002929688 580.002929688 292.169921875 572.669921875 322.502929688 558.002929688 c 0
 352.8359375 543.3359375 376.002929688 520.668945312 392.002929688 490.001953125 c 1
 338.002929688 459.001953125 l 1
 326.669921875 480.334960938 310.669921875 495.834960938 290.002929688 505.501953125 c 0
 269.3359375 515.168945312 248.668945312 520.001953125 228.001953125 520.001953125 c 0
 211.334960938 520.001953125 195.66796875 516.668945312 181.000976562 510.001953125 c 0
 166.333984375 503.334960938 154.333984375 493.66796875 145.000976562 481.000976562 c 0
 135.66796875 468.333984375 131.000976562 452.333984375 131.000976562 433.000976562 c 0
 131.000976562 411.66796875 137.16796875 394.000976562 149.500976562 380.000976562 c 0
 161.833984375 366.000976562 177.833984375 353.66796875 197.500976562 343.000976562 c 0
 217.16796875 332.333984375 238.000976562 321.833984375 260.000976562 311.500976562 c 0
 282.000976562 301.16796875 302.833984375 289.16796875 322.500976562 275.500976562 c 0
 342.16796875 261.833984375 358.16796875 245.166992188 370.500976562 225.5 c 0
 382.833984375 205.833007812 389.000976562 181 389.000976562 151 c 0
 389.000976562 116.333007812 380.500976562 87 363.500976562 63 c 0
 346.500976562 39 324.66796875 20.6669921875 298.000976562 8 c 0
 271.333984375 -4.6669921875 242.666992188 -11 212 -11 c 0
EndSplineSet
Fore
Validated: 1
EndChar

StartChar: t
Encoding: 87 116 87
Width: 1000
GlyphClass: 1
LayerCount: 2
Back
SplineSet
244 -11 m 0
 205.333007812 -11 174.166015625 2.1689453125 150.499023438 28.501953125 c 0
 126.83203125 54.8349609375 114.999023438 93.66796875 114.999023438 145.000976562 c 2
 114.999023438 723.000976562 l 1
 188.999023438 723.000976562 l 1
 188.999023438 159.000976562 l 2
 188.999023438 123.66796875 195.83203125 97.0009765625 209.499023438 79.0009765625 c 0
 223.166015625 61.0009765625 241.333007812 52.0009765625 264 52.0009765625 c 0
 273.333007812 52.0009765625 283 53.5009765625 293 56.5009765625 c 0
 303 59.5009765625 314 64.0009765625 326 70.0009765625 c 1
 347 22.0009765625 l 1
 328.333007812 11.333984375 310.5 3.1669921875 293.5 -2.5 c 0
 276.5 -8.1669921875 260 -11 244 -11 c 0
24 510.001953125 m 1
 24 569.001953125 l 1
 326 569.001953125 l 1
 326 510.001953125 l 1
 24 510.001953125 l 1
EndSplineSet
Fore
Validated: 1
EndChar

StartChar: u
Encoding: 88 117 88
Width: 1000
GlyphClass: 2
LayerCount: 2
Back
SplineSet
419 120 m 1
 429.999023438 119.999023438 l 1
 413.33203125 75.9990234375 389.33203125 43.33203125 357.999023438 21.9990234375 c 0
 326.666015625 0.666015625 293.333007812 -10.0009765625 258 -10.0009765625 c 0
 203.333007812 -10.0009765625 161 6.4990234375 131 39.4990234375 c 0
 101 72.4990234375 86 118.999023438 86 178.999023438 c 2
 86 568.999023438 l 1
 160 568.999023438 l 1
 160 185.999023438 l 2
 160 141.999023438 170 107.999023438 190 83.9990234375 c 0
 210 59.9990234375 237 47.9990234375 271 47.9990234375 c 0
 296.333007812 47.9990234375 319.833007812 55.666015625 341.5 70.9990234375 c 0
 363.166992188 86.33203125 380.5 108.83203125 393.5 138.499023438 c 0
 406.5 168.166015625 413 204.333007812 413 247 c 2
 413 569 l 1
 487 569 l 1
 487 127 l 2
 487 99.6669921875 490.666992188 79.6669921875 498 67 c 0
 505.333007812 54.3330078125 519.333007812 48 540 48 c 2
 548.5 48 l 2
 551.5 48 554.666992188 48.3330078125 558 49 c 1
 560 -7 l 1
 553.333007812 -8.3330078125 546.833007812 -9.3330078125 540.5 -10 c 0
 534.166992188 -10.6669921875 528 -11 522 -11 c 0
 486 -11 459.833007812 -0.6669921875 443.5 20 c 0
 427.166992188 40.6669921875 419 74 419 120 c 1
EndSplineSet
Fore
Validated: 1
EndChar

StartChar: v
Encoding: 89 118 89
Width: 1000
GlyphClass: 1
LayerCount: 2
Back
SplineSet
408 569 m 1
 482 569 l 1
 273 0 l 1
 208 0 l 1
 4 569 l 1
 81 569 l 1
 254 78 l 1
 232 78 l 1
 408 569 l 1
EndSplineSet
Fore
Validated: 1
EndChar

StartChar: w
Encoding: 90 119 90
Width: 1000
GlyphClass: 1
LayerCount: 2
Back
SplineSet
185 0 m 1
 5 569 l 1
 80 569 l 1
 229 77 l 1
 206 77 l 1
 359 560 l 1
 429 564 l 1
 579 77 l 1
 557 77 l 1
 709 569 l 1
 778 569 l 1
 590 0 l 1
 535 0 l 1
 384 485 l 1
 400 485 l 1
 240 0 l 1
 185 0 l 1
EndSplineSet
Fore
Validated: 1
EndChar

StartChar: x
Encoding: 91 120 91
Width: 1000
GlyphClass: 1
LayerCount: 2
Back
SplineSet
474 -7 m 1
 468 -8.3330078125 462.33203125 -9.3330078125 456.999023438 -10 c 0
 451.666015625 -10.6669921875 446.333007812 -11 441 -11 c 0
 423.666992188 -11 408.5 -6.5 395.5 2.5 c 0
 382.5 11.5 369 27.3330078125 355 50 c 2
 216 266 l 1
 16 569 l 1
 101 569 l 1
 266 312 l 1
 422 77 l 2
 430 65 437 57.1669921875 443 53.5 c 0
 449 49.8330078125 456 48 464 48 c 2
 467 48 l 1
 470 48 l 1
 474 -7 l 1
6.9990234375 0 m 1
 212.999023438 305 l 1
 228.999023438 320 l 1
 390.999023438 569 l 1
 466.999023438 569 l 1
 266.999023438 271 l 1
 253.999023438 254 l 1
 83.9990234375 0 l 1
 6.9990234375 0 l 1
EndSplineSet
Fore
Validated: 1
EndChar

StartChar: y
Encoding: 92 121 92
Width: 1000
GlyphClass: 2
LayerCount: 2
Back
SplineSet
471 569 m 1
 246.000976562 -44.0009765625 l 2
 223.333984375 -106.000976562 197.000976562 -154.500976562 167.000976562 -189.500976562 c 0
 137.000976562 -224.500976562 99.0009765625 -242.000976562 53.0009765625 -242.000976562 c 0
 37.0009765625 -242.000976562 19.66796875 -239.66796875 1.0009765625 -235.000976562 c 0
 -17.666015625 -230.333984375 -38.3330078125 -223.000976562 -61 -213.000976562 c 1
 -36 -157.000976562 l 1
 -18.6669921875 -165.000976562 -3 -170.833984375 11 -174.500976562 c 0
 25 -178.16796875 38 -180.000976562 50 -180.000976562 c 0
 73.3330078125 -180.000976562 93.3330078125 -172.833984375 110 -158.500976562 c 0
 126.666992188 -144.16796875 142.166992188 -123.16796875 156.5 -95.5009765625 c 0
 170.833007812 -67.833984375 185.333007812 -33.6669921875 200 7 c 1
 -3 569 l 1
 75 569 l 1
 248 69 l 1
 226 69 l 1
 398 569 l 1
 471 569 l 1
EndSplineSet
Fore
Validated: 1
EndChar

StartChar: z
Encoding: 93 122 93
Width: 1000
GlyphClass: 2
LayerCount: 2
Back
SplineSet
422 58 m 1
 422 0 l 1
 37 0 l 1
 37 41 l 1
 330 511 l 1
 47 511 l 1
 47 569 l 1
 421 569 l 1
 421 527 l 1
 129 58 l 1
 422 58 l 1
EndSplineSet
Fore
Validated: 1
EndChar

StartChar: braceleft
Encoding: 94 123 94
Width: 326
GlyphClass: 1
Flags: HW
LayerCount: 2
Back
SplineSet
244 -211 m 0
 203.333007812 -211 174.500976562 -199.669921875 157.500976562 -177.002929688 c 0
 140.500976562 -154.3359375 132.000976562 -119.3359375 132.000976562 -72.0029296875 c 2
 132.000976562 224.997070312 l 2
 132.000976562 253.6640625 125.16796875 274.997070312 111.500976562 288.997070312 c 0
 97.833984375 302.997070312 76.333984375 309.997070312 47.0009765625 309.997070312 c 1
 47.0009765625 364.997070312 l 1
 75.66796875 365.6640625 96.8349609375 372.831054688 110.501953125 386.498046875 c 0
 124.168945312 400.165039062 131.001953125 421.665039062 131.001953125 450.998046875 c 2
 131.001953125 739.998046875 l 2
 131.001953125 787.998046875 139.668945312 823.165039062 157.001953125 845.498046875 c 0
 174.334960938 867.831054688 203.334960938 878.998046875 244.001953125 878.998046875 c 0
 253.334960938 878.998046875 262.834960938 878.498046875 272.501953125 877.498046875 c 0
 282.168945312 876.498046875 291.668945312 874.998046875 301.001953125 872.998046875 c 1
 298.001953125 813.998046875 l 1
 293.334960938 814.665039062 289.001953125 814.998046875 285.001953125 814.998046875 c 2
 268.001953125 814.998046875 l 2
 242.001953125 814.998046875 224.501953125 808.165039062 215.501953125 794.498046875 c 0
 206.501953125 780.831054688 202.001953125 758.998046875 202.001953125 728.998046875 c 2
 202.001953125 442.998046875 l 2
 202.001953125 403.665039062 191.168945312 375.165039062 169.501953125 357.498046875 c 0
 147.834960938 339.831054688 117.334960938 330.998046875 78.001953125 330.998046875 c 1
 78.001953125 344.998046875 l 1
 117.334960938 344.998046875 147.834960938 335.998046875 169.501953125 317.998046875 c 0
 191.168945312 299.998046875 202.001953125 271.665039062 202.001953125 232.998046875 c 2
 202.001953125 -60.001953125 l 2
 202.001953125 -89.3349609375 206.668945312 -111.16796875 216.001953125 -125.500976562 c 0
 225.334960938 -139.833984375 242.66796875 -147.000976562 268.000976562 -147.000976562 c 0
 275.333984375 -147.000976562 281.166992188 -146.833984375 285.5 -146.500976562 c 0
 289.833007812 -146.16796875 294 -145.66796875 298 -145.000976562 c 1
 301 -205.000976562 l 1
 291.666992188 -206.333984375 282.166992188 -207.666992188 272.5 -209 c 0
 262.833007812 -210.333007812 253.333007812 -211 244 -211 c 0
EndSplineSet
Fore
SplineSet
244 -211 m 0
 203.333007812 -211 174.500976562 -199.669921875 157.500976562 -177.002929688 c 0
 140.500976562 -154.3359375 132.000976562 -119.3359375 132.000976562 -72.0029296875 c 2
 132.000976562 224.997070312 l 2
 132.000976562 253.6640625 125.16796875 274.997070312 111.500976562 288.997070312 c 0
 97.833984375 302.997070312 76.333984375 309.997070312 47.0009765625 309.997070312 c 1
 47.0009765625 364.997070312 l 1
 75.66796875 365.6640625 96.8349609375 372.831054688 110.501953125 386.498046875 c 0
 124.168945312 400.165039062 131.001953125 421.665039062 131.001953125 450.998046875 c 2
 131.001953125 739.998046875 l 2
 131.001953125 787.998046875 139.668945312 823.165039062 157.001953125 845.498046875 c 0
 174.334960938 867.831054688 203.334960938 878.998046875 244.001953125 878.998046875 c 0
 253.334960938 878.998046875 262.834960938 878.498046875 272.501953125 877.498046875 c 0
 282.168945312 876.498046875 291.668945312 874.998046875 301.001953125 872.998046875 c 1
 298.001953125 813.998046875 l 1
 293.334960938 814.665039062 289.001953125 814.998046875 285.001953125 814.998046875 c 2
 268.001953125 814.998046875 l 2
 242.001953125 814.998046875 224.501953125 808.165039062 215.501953125 794.498046875 c 0
 206.501953125 780.831054688 202.001953125 758.998046875 202.001953125 728.998046875 c 2
 202.001953125 442.998046875 l 2
 202.001953125 403.665039062 191.168945312 375.165039062 169.501953125 357.498046875 c 0
 147.834960938 339.831054688 117.334960938 330.998046875 78.001953125 330.998046875 c 1
 78.001953125 344.998046875 l 1
 117.334960938 344.998046875 147.834960938 335.998046875 169.501953125 317.998046875 c 0
 191.168945312 299.998046875 202.001953125 271.665039062 202.001953125 232.998046875 c 2
 202.001953125 -60.001953125 l 2
 202.001953125 -89.3349609375 206.668945312 -111.16796875 216.001953125 -125.500976562 c 0
 225.334960938 -139.833984375 242.66796875 -147.000976562 268.000976562 -147.000976562 c 0
 275.333984375 -147.000976562 281.166992188 -146.833984375 285.5 -146.500976562 c 0
 289.833007812 -146.16796875 294 -145.66796875 298 -145.000976562 c 1
 301 -205.000976562 l 1
 291.666992188 -206.333984375 282.166992188 -207.666992188 272.5 -209 c 0
 262.833007812 -210.333007812 253.333007812 -211 244 -211 c 0
EndSplineSet
Validated: 5
EndChar

StartChar: bar
Encoding: 95 124 95
Width: 343
GlyphClass: 1
Flags: HW
LayerCount: 2
Back
SplineSet
203 825 m 1
 203 -80 l 1
 140 -80 l 1
 143 825 l 1
 203 825 l 1
EndSplineSet
Fore
SplineSet
203 825 m 1
 203 -80 l 1
 140 -80 l 1
 143 825 l 1
 203 825 l 1
EndSplineSet
Validated: 1
EndChar

StartChar: braceright
Encoding: 96 125 96
Width: 323
GlyphClass: 1
Flags: HW
LayerCount: 2
Back
SplineSet
79 878 m 0
 119.666992188 878 148.666992188 866.66796875 166 844.000976562 c 0
 183.333007812 821.333984375 192 786.333984375 192 739.000976562 c 2
 192 442.000976562 l 2
 192 413.333984375 198.833007812 392.000976562 212.5 378.000976562 c 0
 226.166992188 364.000976562 247.333984375 357.000976562 276.000976562 357.000976562 c 1
 276.000976562 302.000976562 l 1
 247.333984375 301.333984375 226.166992188 294.166992188 212.5 280.5 c 0
 198.833007812 266.833007812 192 245.333007812 192 216 c 2
 192 -73 l 2
 192 -121 183.5 -156.166992188 166.5 -178.5 c 0
 149.5 -200.833007812 120.333007812 -212 79 -212 c 0
 70.3330078125 -212 61 -211.5 51 -210.5 c 0
 41 -209.5 31.6669921875 -208 23 -206 c 1
 26 -147 l 1
 30 -147.666992188 34.1669921875 -148 38.5 -148 c 2
 55 -148 l 2
 81 -148 98.5 -141 107.5 -127 c 0
 116.5 -113 121 -91.3330078125 121 -62 c 2
 121 224 l 2
 121 263.333007812 132 291.833007812 154 309.5 c 0
 176 327.166992188 206.333007812 336 245 336 c 1
 245 322 l 1
 206.333007812 322 176 331 154 349 c 0
 132 367 121 395.333007812 121 434 c 2
 121 727 l 2
 121 757 116.5 779 107.5 793 c 0
 98.5 807 81.3330078125 814 56 814 c 2
 38.5 814 l 2
 34.1669921875 814 29.6669921875 813.333007812 25 812 c 1
 22 872 l 1
 31.3330078125 874 40.8330078125 875.5 50.5 876.5 c 0
 60.1669921875 877.5 69.6669921875 878 79 878 c 0
EndSplineSet
Fore
SplineSet
79 878 m 0
 119.666992188 878 148.666992188 866.66796875 166 844.000976562 c 0
 183.333007812 821.333984375 192 786.333984375 192 739.000976562 c 2
 192 442.000976562 l 2
 192 413.333984375 198.833007812 392.000976562 212.5 378.000976562 c 0
 226.166992188 364.000976562 247.333984375 357.000976562 276.000976562 357.000976562 c 1
 276.000976562 302.000976562 l 1
 247.333984375 301.333984375 226.166992188 294.166992188 212.5 280.5 c 0
 198.833007812 266.833007812 192 245.333007812 192 216 c 2
 192 -73 l 2
 192 -121 183.5 -156.166992188 166.5 -178.5 c 0
 149.5 -200.833007812 120.333007812 -212 79 -212 c 0
 70.3330078125 -212 61 -211.5 51 -210.5 c 0
 41 -209.5 31.6669921875 -208 23 -206 c 1
 26 -147 l 1
 30 -147.666992188 34.1669921875 -148 38.5 -148 c 2
 55 -148 l 2
 81 -148 98.5 -141 107.5 -127 c 0
 116.5 -113 121 -91.3330078125 121 -62 c 2
 121 224 l 2
 121 263.333007812 132 291.833007812 154 309.5 c 0
 176 327.166992188 206.333007812 336 245 336 c 1
 245 322 l 1
 206.333007812 322 176 331 154 349 c 0
 132 367 121 395.333007812 121 434 c 2
 121 727 l 2
 121 757 116.5 779 107.5 793 c 0
 98.5 807 81.3330078125 814 56 814 c 2
 38.5 814 l 2
 34.1669921875 814 29.6669921875 813.333007812 25 812 c 1
 22 872 l 1
 31.3330078125 874 40.8330078125 875.5 50.5 876.5 c 0
 60.1669921875 877.5 69.6669921875 878 79 878 c 0
EndSplineSet
Validated: 5
EndChar

StartChar: asciitilde
Encoding: 97 126 97
Width: 587
GlyphClass: 1
Flags: HW
LayerCount: 2
Back
SplineSet
404 235 m 0
 382.666992188 235 363.002929688 238.166015625 345.002929688 244.499023438 c 0
 327.002929688 250.83203125 309.502929688 257.999023438 292.502929688 265.999023438 c 0
 275.502929688 273.999023438 258.502929688 280.999023438 241.502929688 286.999023438 c 0
 224.502929688 292.999023438 206.3359375 295.999023438 187.002929688 295.999023438 c 0
 169.002929688 295.999023438 152.002929688 292.83203125 136.002929688 286.499023438 c 0
 120.002929688 280.166015625 104.002929688 269.999023438 88.0029296875 255.999023438 c 1
 49.0029296875 299.999023438 l 1
 71.0029296875 322.666015625 93.169921875 339.499023438 115.502929688 350.499023438 c 0
 137.8359375 361.499023438 161.668945312 366.999023438 187.001953125 366.999023438 c 0
 208.334960938 366.999023438 228.334960938 363.999023438 247.001953125 357.999023438 c 0
 265.668945312 351.999023438 283.668945312 344.83203125 301.001953125 336.499023438 c 0
 318.334960938 328.166015625 335.501953125 320.999023438 352.501953125 314.999023438 c 0
 369.501953125 308.999023438 386.668945312 305.999023438 404.001953125 305.999023438 c 0
 421.334960938 305.999023438 437.66796875 309.33203125 453.000976562 315.999023438 c 0
 468.333984375 322.666015625 483.333984375 333.333007812 498.000976562 348 c 1
 538.000976562 305 l 1
 516.66796875 280.333007812 495.16796875 262.5 473.500976562 251.5 c 0
 451.833984375 240.5 428.666992188 235 404 235 c 0
EndSplineSet
Fore
SplineSet
404 235 m 0
 382.666992188 235 363.002929688 238.166015625 345.002929688 244.499023438 c 0
 327.002929688 250.83203125 309.502929688 257.999023438 292.502929688 265.999023438 c 0
 275.502929688 273.999023438 258.502929688 280.999023438 241.502929688 286.999023438 c 0
 224.502929688 292.999023438 206.3359375 295.999023438 187.002929688 295.999023438 c 0
 169.002929688 295.999023438 152.002929688 292.83203125 136.002929688 286.499023438 c 0
 120.002929688 280.166015625 104.002929688 269.999023438 88.0029296875 255.999023438 c 1
 49.0029296875 299.999023438 l 1
 71.0029296875 322.666015625 93.169921875 339.499023438 115.502929688 350.499023438 c 0
 137.8359375 361.499023438 161.668945312 366.999023438 187.001953125 366.999023438 c 0
 208.334960938 366.999023438 228.334960938 363.999023438 247.001953125 357.999023438 c 0
 265.668945312 351.999023438 283.668945312 344.83203125 301.001953125 336.499023438 c 0
 318.334960938 328.166015625 335.501953125 320.999023438 352.501953125 314.999023438 c 0
 369.501953125 308.999023438 386.668945312 305.999023438 404.001953125 305.999023438 c 0
 421.334960938 305.999023438 437.66796875 309.33203125 453.000976562 315.999023438 c 0
 468.333984375 322.666015625 483.333984375 333.333007812 498.000976562 348 c 1
 538.000976562 305 l 1
 516.66796875 280.333007812 495.16796875 262.5 473.500976562 251.5 c 0
 451.833984375 240.5 428.666992188 235 404 235 c 0
EndSplineSet
Validated: 1
EndChar

StartChar: exclamdown
Encoding: 98 161 98
Width: 277
GlyphClass: 1
Flags: HW
LayerCount: 2
Back
SplineSet
111 379 m 1
 172 379 l 1
 185 -226 l 1
 97 -226 l 1
 111 379 l 1
141 581 m 0
 156.333007812 581 169 575.666992188 179 565 c 0
 189 554.333007812 194 539.333007812 194 520 c 0
 194 501.333007812 189 486.833007812 179 476.5 c 0
 169 466.166992188 156.333007812 461 141 461 c 0
 125.666992188 461 112.833984375 466.166992188 102.500976562 476.5 c 0
 92.16796875 486.833007812 87.0009765625 501.333007812 87.0009765625 520 c 0
 87.0009765625 539.333007812 92.16796875 554.333007812 102.500976562 565 c 0
 112.833984375 575.666992188 125.666992188 581 141 581 c 0
EndSplineSet
Fore
SplineSet
111 379 m 1
 172 379 l 1
 185 -226 l 1
 97 -226 l 1
 111 379 l 1
141 581 m 0
 156.333007812 581 169 575.666992188 179 565 c 0
 189 554.333007812 194 539.333007812 194 520 c 0
 194 501.333007812 189 486.833007812 179 476.5 c 0
 169 466.166992188 156.333007812 461 141 461 c 0
 125.666992188 461 112.833984375 466.166992188 102.500976562 476.5 c 0
 92.16796875 486.833007812 87.0009765625 501.333007812 87.0009765625 520 c 0
 87.0009765625 539.333007812 92.16796875 554.333007812 102.500976562 565 c 0
 112.833984375 575.666992188 125.666992188 581 141 581 c 0
EndSplineSet
Validated: 1
EndChar

StartChar: cent
Encoding: 99 162 99
Width: 491
GlyphClass: 1
Flags: HW
LayerCount: 2
Back
SplineSet
261 12 m 0
 194.333007812 12 141.331054688 37.3310546875 101.998046875 87.998046875 c 0
 62.6650390625 138.665039062 42.998046875 208.33203125 42.998046875 296.999023438 c 0
 42.998046875 353.666015625 52.3310546875 403.333007812 70.998046875 446 c 0
 89.6650390625 488.666992188 115.498046875 521.5 148.498046875 544.5 c 0
 181.498046875 567.5 220.331054688 579 264.998046875 579 c 0
 303.665039062 579 338.498046875 568.5 369.498046875 547.5 c 0
 400.498046875 526.5 425.665039062 495.333007812 444.998046875 454 c 1
 384.998046875 425 l 1
 371.665039062 453 354.33203125 475.333007812 332.999023438 492 c 0
 311.666015625 508.666992188 287.999023438 517 261.999023438 517 c 0
 231.999023438 517 206.499023438 507.5 185.499023438 488.5 c 0
 164.499023438 469.5 148.499023438 443.5 137.499023438 410.5 c 0
 126.499023438 377.5 120.999023438 339.333007812 120.999023438 296 c 0
 120.999023438 226 134.83203125 171.833007812 162.499023438 133.5 c 0
 190.166015625 95.1669921875 227.999023438 76 275.999023438 76 c 0
 295.33203125 76 316.33203125 79.1669921875 338.999023438 85.5 c 0
 361.666015625 91.8330078125 385.999023438 102 411.999023438 116 c 1
 434.999023438 63 l 1
 402.999023438 45 372.33203125 32 342.999023438 24 c 0
 313.666015625 16 286.333007812 12 261 12 c 0
285.998046875 41.998046875 m 1
 285.998046875 -78.001953125 l 1
 230.998046875 -78.001953125 l 1
 230.998046875 41.998046875 l 1
 285.998046875 41.998046875 l 1
285.998046875 663.998046875 m 1
 285.998046875 547.998046875 l 1
 230.998046875 547.998046875 l 1
 230.998046875 663.998046875 l 1
 285.998046875 663.998046875 l 1
EndSplineSet
Fore
SplineSet
261 12 m 0
 194.333007812 12 141.331054688 37.3310546875 101.998046875 87.998046875 c 0
 62.6650390625 138.665039062 42.998046875 208.33203125 42.998046875 296.999023438 c 0
 42.998046875 353.666015625 52.3310546875 403.333007812 70.998046875 446 c 0
 89.6650390625 488.666992188 115.498046875 521.5 148.498046875 544.5 c 0
 181.498046875 567.5 220.331054688 579 264.998046875 579 c 0
 303.665039062 579 338.498046875 568.5 369.498046875 547.5 c 0
 400.498046875 526.5 425.665039062 495.333007812 444.998046875 454 c 1
 384.998046875 425 l 1
 371.665039062 453 354.33203125 475.333007812 332.999023438 492 c 0
 311.666015625 508.666992188 287.999023438 517 261.999023438 517 c 0
 231.999023438 517 206.499023438 507.5 185.499023438 488.5 c 0
 164.499023438 469.5 148.499023438 443.5 137.499023438 410.5 c 0
 126.499023438 377.5 120.999023438 339.333007812 120.999023438 296 c 0
 120.999023438 226 134.83203125 171.833007812 162.499023438 133.5 c 0
 190.166015625 95.1669921875 227.999023438 76 275.999023438 76 c 0
 295.33203125 76 316.33203125 79.1669921875 338.999023438 85.5 c 0
 361.666015625 91.8330078125 385.999023438 102 411.999023438 116 c 1
 434.999023438 63 l 1
 402.999023438 45 372.33203125 32 342.999023438 24 c 0
 313.666015625 16 286.333007812 12 261 12 c 0
285.998046875 41.998046875 m 1
 285.998046875 -78.001953125 l 1
 230.998046875 -78.001953125 l 1
 230.998046875 41.998046875 l 1
 285.998046875 41.998046875 l 1
285.998046875 663.998046875 m 1
 285.998046875 547.998046875 l 1
 230.998046875 547.998046875 l 1
 230.998046875 663.998046875 l 1
 285.998046875 663.998046875 l 1
EndSplineSet
Validated: 5
EndChar

StartChar: sterling
Encoding: 100 163 100
Width: 523
GlyphClass: 1
Flags: HW
LayerCount: 2
Back
SplineSet
27 0 m 1
 26.9990234375 65 l 1
 112.999023438 65 l 1
 103.999023438 54 l 1
 103.999023438 534 l 2
 103.999023438 591.333007812 113.499023438 638 132.499023438 674 c 0
 151.499023438 710 176.83203125 736.333007812 208.499023438 753 c 0
 240.166015625 769.666992188 274.666015625 778 311.999023438 778 c 0
 340.666015625 778 369.833007812 773.5 399.5 764.5 c 0
 429.166992188 755.5 457 741.666992188 483 723 c 1
 451 667 l 1
 429 681 406.666992188 691.833007812 384 699.5 c 0
 361.333007812 707.166992188 339.333007812 711 318 711 c 0
 292.666992188 711 269.5 704.5 248.5 691.5 c 0
 227.5 678.5 210.833007812 658 198.5 630 c 0
 186.166992188 602 180 565.333007812 180 520 c 2
 180 54 l 1
 170 65 l 1
 474 65 l 1
 474 0 l 1
 27 0 l 1
25.9990234375 360 m 1
 25.9990234375 424 l 1
 395.999023438 424 l 1
 395.999023438 360 l 1
 25.9990234375 360 l 1
EndSplineSet
Fore
SplineSet
27 0 m 1
 26.9990234375 65 l 1
 112.999023438 65 l 1
 103.999023438 54 l 1
 103.999023438 534 l 2
 103.999023438 591.333007812 113.499023438 638 132.499023438 674 c 0
 151.499023438 710 176.83203125 736.333007812 208.499023438 753 c 0
 240.166015625 769.666992188 274.666015625 778 311.999023438 778 c 0
 340.666015625 778 369.833007812 773.5 399.5 764.5 c 0
 429.166992188 755.5 457 741.666992188 483 723 c 1
 451 667 l 1
 429 681 406.666992188 691.833007812 384 699.5 c 0
 361.333007812 707.166992188 339.333007812 711 318 711 c 0
 292.666992188 711 269.5 704.5 248.5 691.5 c 0
 227.5 678.5 210.833007812 658 198.5 630 c 0
 186.166992188 602 180 565.333007812 180 520 c 2
 180 54 l 1
 170 65 l 1
 474 65 l 1
 474 0 l 1
 27 0 l 1
25.9990234375 360 m 1
 25.9990234375 424 l 1
 395.999023438 424 l 1
 395.999023438 360 l 1
 25.9990234375 360 l 1
EndSplineSet
Validated: 5
EndChar

StartChar: currency
Encoding: 101 164 101
Width: 608
GlyphClass: 1
Flags: HW
LayerCount: 2
Back
SplineSet
297 23 m 0
 245 23 201.5 35.0009765625 166.5 59.0009765625 c 0
 131.5 83.0009765625 105.666992188 114.833984375 89 154.500976562 c 0
 72.3330078125 194.16796875 64 237.000976562 64 283.000976562 c 0
 64 329.000976562 73.5 372.000976562 92.5 412.000976562 c 0
 111.5 452.000976562 138.833007812 484.333984375 174.5 509.000976562 c 0
 210.166992188 533.66796875 253.333984375 546.000976562 304.000976562 546.000976562 c 0
 356.000976562 546.000976562 399.16796875 533.66796875 433.500976562 509.000976562 c 0
 467.833984375 484.333984375 493.333984375 452.333984375 510.000976562 413.000976562 c 0
 526.66796875 373.66796875 535.000976562 330.66796875 535.000976562 284.000976562 c 0
 535.000976562 237.333984375 525.833984375 194.166992188 507.500976562 154.5 c 0
 489.16796875 114.833007812 462.16796875 83 426.500976562 59 c 0
 390.833984375 35 347.666992188 23 297 23 c 0
89 -16.9990234375 m 1
 46 18.0009765625 l 1
 142 137.000976562 l 1
 183 101.000976562 l 1
 89 -16.9990234375 l 1
515 -14.9990234375 m 1
 415 109.000976562 l 1
 453 147.000976562 l 1
 557 19.0009765625 l 1
 515 -14.9990234375 l 1
299 86.0009765625 m 0
 333.666992188 86.0009765625 362.833007812 95.333984375 386.5 114.000976562 c 0
 410.166992188 132.66796875 428 157.000976562 440 187.000976562 c 0
 452 217.000976562 458 249.000976562 458 283.000976562 c 0
 458 318.333984375 452 351.166992188 440 381.5 c 0
 428 411.833007812 410.5 436.333007812 387.5 455 c 0
 364.5 473.666992188 336 483 302 483 c 0
 268 483 239 473.5 215 454.5 c 0
 191 435.5 172.666992188 410.833007812 160 380.5 c 0
 147.333007812 350.166992188 141 318 141 284 c 0
 141 249.333007812 147 216.833007812 159 186.5 c 0
 171 156.166992188 188.833007812 131.833984375 212.5 113.500976562 c 0
 236.166992188 95.16796875 265 86.0009765625 299 86.0009765625 c 0
144.999023438 434.000976562 m 1
 46.9990234375 555.000976562 l 1
 89.9990234375 589.000976562 l 1
 187.999023438 468.000976562 l 1
 144.999023438 434.000976562 l 1
457.999023438 433.000976562 m 1
 417.999023438 471.000976562 l 1
 513.999023438 589.000976562 l 1
 556.999023438 554.000976562 l 1
 457.999023438 433.000976562 l 1
EndSplineSet
Fore
SplineSet
297 23 m 0
 245 23 201.5 35.0009765625 166.5 59.0009765625 c 0
 131.5 83.0009765625 105.666992188 114.833984375 89 154.500976562 c 0
 72.3330078125 194.16796875 64 237.000976562 64 283.000976562 c 0
 64 329.000976562 73.5 372.000976562 92.5 412.000976562 c 0
 111.5 452.000976562 138.833007812 484.333984375 174.5 509.000976562 c 0
 210.166992188 533.66796875 253.333984375 546.000976562 304.000976562 546.000976562 c 0
 356.000976562 546.000976562 399.16796875 533.66796875 433.500976562 509.000976562 c 0
 467.833984375 484.333984375 493.333984375 452.333984375 510.000976562 413.000976562 c 0
 526.66796875 373.66796875 535.000976562 330.66796875 535.000976562 284.000976562 c 0
 535.000976562 237.333984375 525.833984375 194.166992188 507.500976562 154.5 c 0
 489.16796875 114.833007812 462.16796875 83 426.500976562 59 c 0
 390.833984375 35 347.666992188 23 297 23 c 0
89 -16.9990234375 m 1
 46 18.0009765625 l 1
 142 137.000976562 l 1
 183 101.000976562 l 1
 89 -16.9990234375 l 1
515 -14.9990234375 m 1
 415 109.000976562 l 1
 453 147.000976562 l 1
 557 19.0009765625 l 1
 515 -14.9990234375 l 1
299 86.0009765625 m 0
 333.666992188 86.0009765625 362.833007812 95.333984375 386.5 114.000976562 c 0
 410.166992188 132.66796875 428 157.000976562 440 187.000976562 c 0
 452 217.000976562 458 249.000976562 458 283.000976562 c 0
 458 318.333984375 452 351.166992188 440 381.5 c 0
 428 411.833007812 410.5 436.333007812 387.5 455 c 0
 364.5 473.666992188 336 483 302 483 c 0
 268 483 239 473.5 215 454.5 c 0
 191 435.5 172.666992188 410.833007812 160 380.5 c 0
 147.333007812 350.166992188 141 318 141 284 c 0
 141 249.333007812 147 216.833007812 159 186.5 c 0
 171 156.166992188 188.833007812 131.833984375 212.5 113.500976562 c 0
 236.166992188 95.16796875 265 86.0009765625 299 86.0009765625 c 0
144.999023438 434.000976562 m 1
 46.9990234375 555.000976562 l 1
 89.9990234375 589.000976562 l 1
 187.999023438 468.000976562 l 1
 144.999023438 434.000976562 l 1
457.999023438 433.000976562 m 1
 417.999023438 471.000976562 l 1
 513.999023438 589.000976562 l 1
 556.999023438 554.000976562 l 1
 457.999023438 433.000976562 l 1
EndSplineSet
Validated: 5
EndChar

StartChar: yen
Encoding: 102 165 102
Width: 603
GlyphClass: 1
Flags: HW
LayerCount: 2
Back
SplineSet
252 0 m 1
 252 289.999023438 l 1
 24 767.999023438 l 1
 107 767.999023438 l 1
 229 504.999023438 l 2
 243.666992188 474.33203125 257 444.499023438 269 415.499023438 c 0
 281 386.499023438 292.333007812 357.999023438 303 329.999023438 c 1
 282 329.999023438 l 1
 294 359.999023438 306 388.83203125 318 416.499023438 c 0
 330 444.166015625 343 473.333007812 357 504 c 2
 481 768 l 1
 562 768 l 1
 328 289 l 1
 328 0 l 1
 252 0 l 1
78 153.999023438 m 1
 78 211.999023438 l 1
 502 211.999023438 l 1
 502 153.999023438 l 1
 78 153.999023438 l 1
78 288.999023438 m 1
 78 346.999023438 l 1
 502 346.999023438 l 1
 502 288.999023438 l 1
 78 288.999023438 l 1
EndSplineSet
Fore
SplineSet
252 0 m 1
 252 289.999023438 l 1
 24 767.999023438 l 1
 107 767.999023438 l 1
 229 504.999023438 l 2
 243.666992188 474.33203125 257 444.499023438 269 415.499023438 c 0
 281 386.499023438 292.333007812 357.999023438 303 329.999023438 c 1
 282 329.999023438 l 1
 294 359.999023438 306 388.83203125 318 416.499023438 c 0
 330 444.166015625 343 473.333007812 357 504 c 2
 481 768 l 1
 562 768 l 1
 328 289 l 1
 328 0 l 1
 252 0 l 1
78 153.999023438 m 1
 78 211.999023438 l 1
 502 211.999023438 l 1
 502 153.999023438 l 1
 78 153.999023438 l 1
78 288.999023438 m 1
 78 346.999023438 l 1
 502 346.999023438 l 1
 502 288.999023438 l 1
 78 288.999023438 l 1
EndSplineSet
Validated: 5
EndChar

StartChar: brokenbar
Encoding: 103 166 103
Width: 343
GlyphClass: 1
Flags: HW
LayerCount: 2
Back
SplineSet
203 264 m 1
 203 -80 l 1
 140 -80 l 1
 143 264 l 1
 203 264 l 1
203 825 m 1
 203 482 l 1
 140 482 l 1
 143 825 l 1
 203 825 l 1
EndSplineSet
Fore
SplineSet
203 264 m 1
 203 -80 l 1
 140 -80 l 1
 143 264 l 1
 203 264 l 1
203 825 m 1
 203 482 l 1
 140 482 l 1
 143 825 l 1
 203 825 l 1
EndSplineSet
Validated: 1
EndChar

StartChar: section
Encoding: 104 167 104
Width: 446
GlyphClass: 1
Flags: HW
LayerCount: 2
Back
SplineSet
300 142 m 1
 284 185.001953125 l 1
 297.333007812 195.668945312 307.166015625 208.8359375 313.499023438 224.502929688 c 0
 319.83203125 240.169921875 323.33203125 256.669921875 323.999023438 274.002929688 c 0
 323.999023438 297.3359375 317.999023438 318.168945312 305.999023438 336.501953125 c 0
 293.999023438 354.834960938 278.33203125 372.16796875 258.999023438 388.500976562 c 0
 239.666015625 404.833984375 219.333007812 421.166992188 198 437.5 c 0
 176.666992188 453.833007812 156.333984375 471.333007812 137.000976562 490 c 0
 117.66796875 508.666992188 102.000976562 529.5 90.0009765625 552.5 c 0
 78.0009765625 575.5 72.0009765625 601.666992188 72.0009765625 631 c 0
 72.0009765625 662.333007812 80.16796875 689 96.5009765625 711 c 0
 112.833984375 733 134.000976562 749.666992188 160.000976562 761 c 0
 186.000976562 772.333007812 213.333984375 778 242.000976562 778 c 0
 264.000976562 778 285.66796875 774.666992188 307.000976562 768 c 0
 328.333984375 761.333007812 348.000976562 750 366.000976562 734 c 1
 325.000976562 690 l 1
 313.66796875 700 300.66796875 707.333007812 286.000976562 712 c 0
 271.333984375 716.666992188 256.666992188 719 242 719 c 0
 218 719 196 711.833007812 176 697.5 c 0
 156 683.166992188 146 661.333984375 146 632.000976562 c 0
 146 611.333984375 152 592.333984375 164 575.000976562 c 0
 176 557.66796875 191.5 541.000976562 210.5 525.000976562 c 0
 229.5 509.000976562 249.666992188 492.833984375 271 476.500976562 c 0
 292.333007812 460.16796875 312.5 442.66796875 331.5 424.000976562 c 0
 350.5 405.333984375 366.166992188 384.666992188 378.5 362 c 0
 390.833007812 339.333007812 397 313.333007812 397 284 c 0
 397 249.333007812 388 219.5 370 194.5 c 0
 352 169.5 328.666992188 152 300 142 c 1
196 -91.998046875 m 0
 153.333007812 -91.998046875 110 -80.6650390625 66 -57.998046875 c 1
 91 -2.998046875 l 1
 108.333007812 -11.6650390625 126 -18.498046875 144 -23.498046875 c 0
 162 -28.498046875 179.333007812 -30.998046875 196 -30.998046875 c 0
 224 -30.998046875 248.166992188 -22.6650390625 268.5 -5.998046875 c 0
 288.833007812 10.6689453125 299 34.6689453125 299 66.001953125 c 0
 299 88.001953125 293 107.668945312 281 125.001953125 c 0
 269 142.334960938 253.5 158.66796875 234.5 174.000976562 c 0
 215.5 189.333984375 195.5 204.666992188 174.5 220 c 0
 153.5 235.333007812 133.5 251.833007812 114.5 269.5 c 0
 95.5 287.166992188 80 307.333984375 68 330.000976562 c 0
 56 352.66796875 50 378.66796875 50 408.000976562 c 0
 50 432.000976562 55 453.000976562 65 471.000976562 c 0
 75 489.000976562 88.3330078125 504.000976562 105 516.000976562 c 0
 121.666992188 528.000976562 140.333984375 536.333984375 161.000976562 541.000976562 c 1
 178.000976562 504.000976562 l 1
 162.000976562 497.333984375 148.66796875 486.000976562 138.000976562 470.000976562 c 0
 127.333984375 454.000976562 122.000976562 436.000976562 122.000976562 416.000976562 c 0
 122.000976562 394.000976562 128.000976562 374.000976562 140.000976562 356.000976562 c 0
 152.000976562 338.000976562 167.500976562 321.333984375 186.500976562 306.000976562 c 0
 205.500976562 290.66796875 225.833984375 275.000976562 247.500976562 259.000976562 c 0
 269.16796875 243.000976562 289.500976562 226.000976562 308.500976562 208.000976562 c 0
 327.500976562 190.000976562 343.000976562 169.833984375 355.000976562 147.500976562 c 0
 367.000976562 125.16796875 373.000976562 99.3349609375 373.000976562 70.001953125 c 0
 373.000976562 35.3349609375 365.000976562 6.001953125 349.000976562 -17.998046875 c 0
 333.000976562 -41.998046875 311.66796875 -60.3310546875 285.000976562 -72.998046875 c 0
 258.333984375 -85.6650390625 228.666992188 -91.998046875 196 -91.998046875 c 0
EndSplineSet
Fore
SplineSet
300 142 m 1
 284 185.001953125 l 1
 297.333007812 195.668945312 307.166015625 208.8359375 313.499023438 224.502929688 c 0
 319.83203125 240.169921875 323.33203125 256.669921875 323.999023438 274.002929688 c 0
 323.999023438 297.3359375 317.999023438 318.168945312 305.999023438 336.501953125 c 0
 293.999023438 354.834960938 278.33203125 372.16796875 258.999023438 388.500976562 c 0
 239.666015625 404.833984375 219.333007812 421.166992188 198 437.5 c 0
 176.666992188 453.833007812 156.333984375 471.333007812 137.000976562 490 c 0
 117.66796875 508.666992188 102.000976562 529.5 90.0009765625 552.5 c 0
 78.0009765625 575.5 72.0009765625 601.666992188 72.0009765625 631 c 0
 72.0009765625 662.333007812 80.16796875 689 96.5009765625 711 c 0
 112.833984375 733 134.000976562 749.666992188 160.000976562 761 c 0
 186.000976562 772.333007812 213.333984375 778 242.000976562 778 c 0
 264.000976562 778 285.66796875 774.666992188 307.000976562 768 c 0
 328.333984375 761.333007812 348.000976562 750 366.000976562 734 c 1
 325.000976562 690 l 1
 313.66796875 700 300.66796875 707.333007812 286.000976562 712 c 0
 271.333984375 716.666992188 256.666992188 719 242 719 c 0
 218 719 196 711.833007812 176 697.5 c 0
 156 683.166992188 146 661.333984375 146 632.000976562 c 0
 146 611.333984375 152 592.333984375 164 575.000976562 c 0
 176 557.66796875 191.5 541.000976562 210.5 525.000976562 c 0
 229.5 509.000976562 249.666992188 492.833984375 271 476.500976562 c 0
 292.333007812 460.16796875 312.5 442.66796875 331.5 424.000976562 c 0
 350.5 405.333984375 366.166992188 384.666992188 378.5 362 c 0
 390.833007812 339.333007812 397 313.333007812 397 284 c 0
 397 249.333007812 388 219.5 370 194.5 c 0
 352 169.5 328.666992188 152 300 142 c 1
196 -91.998046875 m 0
 153.333007812 -91.998046875 110 -80.6650390625 66 -57.998046875 c 1
 91 -2.998046875 l 1
 108.333007812 -11.6650390625 126 -18.498046875 144 -23.498046875 c 0
 162 -28.498046875 179.333007812 -30.998046875 196 -30.998046875 c 0
 224 -30.998046875 248.166992188 -22.6650390625 268.5 -5.998046875 c 0
 288.833007812 10.6689453125 299 34.6689453125 299 66.001953125 c 0
 299 88.001953125 293 107.668945312 281 125.001953125 c 0
 269 142.334960938 253.5 158.66796875 234.5 174.000976562 c 0
 215.5 189.333984375 195.5 204.666992188 174.5 220 c 0
 153.5 235.333007812 133.5 251.833007812 114.5 269.5 c 0
 95.5 287.166992188 80 307.333984375 68 330.000976562 c 0
 56 352.66796875 50 378.66796875 50 408.000976562 c 0
 50 432.000976562 55 453.000976562 65 471.000976562 c 0
 75 489.000976562 88.3330078125 504.000976562 105 516.000976562 c 0
 121.666992188 528.000976562 140.333984375 536.333984375 161.000976562 541.000976562 c 1
 178.000976562 504.000976562 l 1
 162.000976562 497.333984375 148.66796875 486.000976562 138.000976562 470.000976562 c 0
 127.333984375 454.000976562 122.000976562 436.000976562 122.000976562 416.000976562 c 0
 122.000976562 394.000976562 128.000976562 374.000976562 140.000976562 356.000976562 c 0
 152.000976562 338.000976562 167.500976562 321.333984375 186.500976562 306.000976562 c 0
 205.500976562 290.66796875 225.833984375 275.000976562 247.500976562 259.000976562 c 0
 269.16796875 243.000976562 289.500976562 226.000976562 308.500976562 208.000976562 c 0
 327.500976562 190.000976562 343.000976562 169.833984375 355.000976562 147.500976562 c 0
 367.000976562 125.16796875 373.000976562 99.3349609375 373.000976562 70.001953125 c 0
 373.000976562 35.3349609375 365.000976562 6.001953125 349.000976562 -17.998046875 c 0
 333.000976562 -41.998046875 311.66796875 -60.3310546875 285.000976562 -72.998046875 c 0
 258.333984375 -85.6650390625 228.666992188 -91.998046875 196 -91.998046875 c 0
EndSplineSet
Validated: 5
EndChar

StartChar: dieresis
Encoding: 105 168 105
Width: 467
GlyphClass: 1
Flags: HW
LayerCount: 2
Back
SplineSet
132 680 m 0
 118 680 106.5 684.833007812 97.5 694.5 c 0
 88.5 704.166992188 84 717 84 733 c 0
 84 749.666992188 88.5 762.833984375 97.5 772.500976562 c 0
 106.5 782.16796875 118 787.000976562 132 787.000976562 c 0
 145.333007812 787.000976562 156.666015625 782.16796875 165.999023438 772.500976562 c 0
 175.33203125 762.833984375 179.999023438 749.666992188 179.999023438 733 c 0
 179.999023438 717 175.33203125 704.166992188 165.999023438 694.5 c 0
 156.666015625 684.833007812 145.333007812 680 132 680 c 0
334 680 m 0
 320.666992188 680 309.5 684.833007812 300.5 694.5 c 0
 291.5 704.166992188 287 717 287 733 c 0
 287 749.666992188 291.5 762.833984375 300.5 772.500976562 c 0
 309.5 782.16796875 320.666992188 787.000976562 334 787.000976562 c 0
 348 787.000976562 359.666992188 782.16796875 369 772.500976562 c 0
 378.333007812 762.833984375 383 749.666992188 383 733 c 0
 383 717 378.333007812 704.166992188 369 694.5 c 0
 359.666992188 684.833007812 348 680 334 680 c 0
EndSplineSet
Fore
SplineSet
132 680 m 0
 118 680 106.5 684.833007812 97.5 694.5 c 0
 88.5 704.166992188 84 717 84 733 c 0
 84 749.666992188 88.5 762.833984375 97.5 772.500976562 c 0
 106.5 782.16796875 118 787.000976562 132 787.000976562 c 0
 145.333007812 787.000976562 156.666015625 782.16796875 165.999023438 772.500976562 c 0
 175.33203125 762.833984375 179.999023438 749.666992188 179.999023438 733 c 0
 179.999023438 717 175.33203125 704.166992188 165.999023438 694.5 c 0
 156.666015625 684.833007812 145.333007812 680 132 680 c 0
334 680 m 0
 320.666992188 680 309.5 684.833007812 300.5 694.5 c 0
 291.5 704.166992188 287 717 287 733 c 0
 287 749.666992188 291.5 762.833984375 300.5 772.500976562 c 0
 309.5 782.16796875 320.666992188 787.000976562 334 787.000976562 c 0
 348 787.000976562 359.666992188 782.16796875 369 772.500976562 c 0
 378.333007812 762.833984375 383 749.666992188 383 733 c 0
 383 717 378.333007812 704.166992188 369 694.5 c 0
 359.666992188 684.833007812 348 680 334 680 c 0
EndSplineSet
Validated: 1
EndChar

StartChar: copyright
Encoding: 106 169 106
Width: 867
GlyphClass: 1
Flags: HW
LayerCount: 2
Back
SplineSet
436 -5 m 0
 382.666992188 -5 332.500976562 4.5009765625 285.500976562 23.5009765625 c 0
 238.500976562 42.5009765625 197.333984375 69.5009765625 162.000976562 104.500976562 c 0
 126.66796875 139.500976562 99.0009765625 181.16796875 79.0009765625 229.500976562 c 0
 59.0009765625 277.833984375 49.0009765625 331.666992188 49.0009765625 391 c 0
 49.0009765625 449 59.0009765625 502.333007812 79.0009765625 551 c 0
 99.0009765625 599.666992188 127.000976562 641.333984375 163.000976562 676.000976562 c 0
 199.000976562 710.66796875 240.500976562 737.500976562 287.500976562 756.500976562 c 0
 334.500976562 775.500976562 384.66796875 785.000976562 438.000976562 785.000976562 c 0
 491.333984375 785.000976562 541.166992188 775.66796875 587.5 757.000976562 c 0
 633.833007812 738.333984375 674.666015625 711.500976562 709.999023438 676.500976562 c 0
 745.33203125 641.500976562 772.999023438 600.000976562 792.999023438 552.000976562 c 0
 812.999023438 504.000976562 822.999023438 450.66796875 822.999023438 392.000976562 c 0
 822.999023438 333.333984375 812.83203125 279.666992188 792.499023438 231 c 0
 772.166015625 182.333007812 744.333007812 140.333007812 709 105 c 0
 673.666992188 69.6669921875 632.666992188 42.5 586 23.5 c 0
 539.333007812 4.5 489.333007812 -5 436 -5 c 0
439.000976562 132.000976562 m 0
 398.333984375 132.000976562 362.502929688 142.000976562 331.502929688 162.000976562 c 0
 300.502929688 182.000976562 276.3359375 210.833984375 259.002929688 248.500976562 c 0
 241.669921875 286.16796875 233.002929688 331.334960938 233.002929688 384.001953125 c 0
 233.002929688 439.334960938 242.002929688 486.501953125 260.002929688 525.501953125 c 0
 278.002929688 564.501953125 302.669921875 594.501953125 334.002929688 615.501953125 c 0
 365.3359375 636.501953125 400.668945312 647.001953125 440.001953125 647.001953125 c 0
 475.334960938 647.001953125 507.834960938 637.001953125 537.501953125 617.001953125 c 0
 567.168945312 597.001953125 590.668945312 567.668945312 608.001953125 529.001953125 c 1
 554.001953125 504.001953125 l 1
 541.334960938 532.001953125 524.501953125 553.668945312 503.501953125 569.001953125 c 0
 482.501953125 584.334960938 460.668945312 592.001953125 438.001953125 592.001953125 c 0
 394.668945312 592.001953125 361.168945312 573.501953125 337.501953125 536.501953125 c 0
 313.834960938 499.501953125 302.001953125 448.668945312 302.001953125 384.001953125 c 0
 302.001953125 321.334960938 315.001953125 273.001953125 341.001953125 239.001953125 c 0
 367.001953125 205.001953125 402.334960938 188.001953125 447.001953125 188.001953125 c 0
 464.334960938 188.001953125 483.834960938 191.168945312 505.501953125 197.501953125 c 0
 527.168945312 203.834960938 550.001953125 213.66796875 574.001953125 227.000976562 c 1
 598.001953125 179.000976562 l 1
 569.334960938 162.333984375 541.16796875 150.333984375 513.500976562 143.000976562 c 0
 485.833984375 135.66796875 461.000976562 132.000976562 439.000976562 132.000976562 c 0
438.002929688 50.0009765625 m 0
 482.669921875 50.0009765625 524.172851562 58.1669921875 562.505859375 74.5 c 0
 600.838867188 90.8330078125 634.338867188 114 663.005859375 144 c 0
 691.672851562 174 714.172851562 210 730.505859375 252 c 0
 746.838867188 294 755.005859375 340.333007812 755.005859375 391 c 0
 755.005859375 441 746.672851562 486.833007812 730.005859375 528.5 c 0
 713.338867188 570.166992188 690.671875 606.166992188 662.004882812 636.5 c 0
 633.337890625 666.833007812 599.670898438 690 561.00390625 706 c 0
 522.336914062 722 481.00390625 730 437.00390625 730 c 0
 392.336914062 730 350.50390625 722 311.50390625 706 c 0
 272.50390625 690 238.50390625 666.833007812 209.50390625 636.5 c 0
 180.50390625 606.166992188 157.836914062 570.333984375 141.50390625 529.000976562 c 0
 125.170898438 487.66796875 117.00390625 442.000976562 117.00390625 392.000976562 c 0
 117.00390625 341.333984375 125.170898438 295.000976562 141.50390625 253.000976562 c 0
 157.836914062 211.000976562 180.669921875 175.000976562 210.002929688 145.000976562 c 0
 239.3359375 115.000976562 273.502929688 91.66796875 312.502929688 75.0009765625 c 0
 351.502929688 58.333984375 393.3359375 50.0009765625 438.002929688 50.0009765625 c 0
EndSplineSet
Fore
SplineSet
436 -5 m 0
 382.666992188 -5 332.500976562 4.5009765625 285.500976562 23.5009765625 c 0
 238.500976562 42.5009765625 197.333984375 69.5009765625 162.000976562 104.500976562 c 0
 126.66796875 139.500976562 99.0009765625 181.16796875 79.0009765625 229.500976562 c 0
 59.0009765625 277.833984375 49.0009765625 331.666992188 49.0009765625 391 c 0
 49.0009765625 449 59.0009765625 502.333007812 79.0009765625 551 c 0
 99.0009765625 599.666992188 127.000976562 641.333984375 163.000976562 676.000976562 c 0
 199.000976562 710.66796875 240.500976562 737.500976562 287.500976562 756.500976562 c 0
 334.500976562 775.500976562 384.66796875 785.000976562 438.000976562 785.000976562 c 0
 491.333984375 785.000976562 541.166992188 775.66796875 587.5 757.000976562 c 0
 633.833007812 738.333984375 674.666015625 711.500976562 709.999023438 676.500976562 c 0
 745.33203125 641.500976562 772.999023438 600.000976562 792.999023438 552.000976562 c 0
 812.999023438 504.000976562 822.999023438 450.66796875 822.999023438 392.000976562 c 0
 822.999023438 333.333984375 812.83203125 279.666992188 792.499023438 231 c 0
 772.166015625 182.333007812 744.333007812 140.333007812 709 105 c 0
 673.666992188 69.6669921875 632.666992188 42.5 586 23.5 c 0
 539.333007812 4.5 489.333007812 -5 436 -5 c 0
439.000976562 132.000976562 m 0
 398.333984375 132.000976562 362.502929688 142.000976562 331.502929688 162.000976562 c 0
 300.502929688 182.000976562 276.3359375 210.833984375 259.002929688 248.500976562 c 0
 241.669921875 286.16796875 233.002929688 331.334960938 233.002929688 384.001953125 c 0
 233.002929688 439.334960938 242.002929688 486.501953125 260.002929688 525.501953125 c 0
 278.002929688 564.501953125 302.669921875 594.501953125 334.002929688 615.501953125 c 0
 365.3359375 636.501953125 400.668945312 647.001953125 440.001953125 647.001953125 c 0
 475.334960938 647.001953125 507.834960938 637.001953125 537.501953125 617.001953125 c 0
 567.168945312 597.001953125 590.668945312 567.668945312 608.001953125 529.001953125 c 1
 554.001953125 504.001953125 l 1
 541.334960938 532.001953125 524.501953125 553.668945312 503.501953125 569.001953125 c 0
 482.501953125 584.334960938 460.668945312 592.001953125 438.001953125 592.001953125 c 0
 394.668945312 592.001953125 361.168945312 573.501953125 337.501953125 536.501953125 c 0
 313.834960938 499.501953125 302.001953125 448.668945312 302.001953125 384.001953125 c 0
 302.001953125 321.334960938 315.001953125 273.001953125 341.001953125 239.001953125 c 0
 367.001953125 205.001953125 402.334960938 188.001953125 447.001953125 188.001953125 c 0
 464.334960938 188.001953125 483.834960938 191.168945312 505.501953125 197.501953125 c 0
 527.168945312 203.834960938 550.001953125 213.66796875 574.001953125 227.000976562 c 1
 598.001953125 179.000976562 l 1
 569.334960938 162.333984375 541.16796875 150.333984375 513.500976562 143.000976562 c 0
 485.833984375 135.66796875 461.000976562 132.000976562 439.000976562 132.000976562 c 0
438.002929688 50.0009765625 m 0
 482.669921875 50.0009765625 524.172851562 58.1669921875 562.505859375 74.5 c 0
 600.838867188 90.8330078125 634.338867188 114 663.005859375 144 c 0
 691.672851562 174 714.172851562 210 730.505859375 252 c 0
 746.838867188 294 755.005859375 340.333007812 755.005859375 391 c 0
 755.005859375 441 746.672851562 486.833007812 730.005859375 528.5 c 0
 713.338867188 570.166992188 690.671875 606.166992188 662.004882812 636.5 c 0
 633.337890625 666.833007812 599.670898438 690 561.00390625 706 c 0
 522.336914062 722 481.00390625 730 437.00390625 730 c 0
 392.336914062 730 350.50390625 722 311.50390625 706 c 0
 272.50390625 690 238.50390625 666.833007812 209.50390625 636.5 c 0
 180.50390625 606.166992188 157.836914062 570.333984375 141.50390625 529.000976562 c 0
 125.170898438 487.66796875 117.00390625 442.000976562 117.00390625 392.000976562 c 0
 117.00390625 341.333984375 125.170898438 295.000976562 141.50390625 253.000976562 c 0
 157.836914062 211.000976562 180.669921875 175.000976562 210.002929688 145.000976562 c 0
 239.3359375 115.000976562 273.502929688 91.66796875 312.502929688 75.0009765625 c 0
 351.502929688 58.333984375 393.3359375 50.0009765625 438.002929688 50.0009765625 c 0
EndSplineSet
Validated: 1
EndChar

StartChar: ordfeminine
Encoding: 107 170 107
Width: 376
GlyphClass: 1
Flags: HW
LayerCount: 2
Back
SplineSet
256 439 m 1
 271.00390625 436.001953125 l 1
 260.336914062 406.001953125 243.00390625 383.501953125 219.00390625 368.501953125 c 0
 195.00390625 353.501953125 171.336914062 346.001953125 148.00390625 346.001953125 c 0
 112.00390625 346.001953125 82.50390625 357.001953125 59.50390625 379.001953125 c 0
 36.50390625 401.001953125 25.00390625 432.001953125 25.00390625 472.001953125 c 0
 25.00390625 509.334960938 40.3369140625 539.66796875 71.00390625 563.000976562 c 0
 101.670898438 586.333984375 144.670898438 598.000976562 200.00390625 598.000976562 c 0
 212.00390625 598.000976562 224.336914062 597.66796875 237.00390625 597.000976562 c 0
 249.670898438 596.333984375 261.670898438 594.666992188 273.00390625 592 c 1
 273.00390625 546 l 1
 261.00390625 548.666992188 249.00390625 550.333984375 237.00390625 551.000976562 c 0
 225.00390625 551.66796875 212.00390625 552.000976562 198.00390625 552.000976562 c 0
 158.670898438 552.000976562 131.170898438 544.000976562 115.50390625 528.000976562 c 0
 99.8369140625 512.000976562 92.00390625 494.000976562 92.00390625 474.000976562 c 0
 92.00390625 450.66796875 98.1708984375 432.500976562 110.50390625 419.500976562 c 0
 122.836914062 406.500976562 139.336914062 400.000976562 160.00390625 400.000976562 c 0
 172.670898438 400.000976562 185.670898438 403.333984375 199.00390625 410.000976562 c 0
 212.336914062 416.66796875 223.50390625 427.000976562 232.50390625 441.000976562 c 0
 241.50390625 455.000976562 246.00390625 472.66796875 246.00390625 494.000976562 c 2
 246.00390625 647.000976562 l 2
 246.00390625 674.333984375 238.670898438 694.166992188 224.00390625 706.5 c 0
 209.336914062 718.833007812 191.336914062 725 170.00390625 725 c 0
 153.336914062 725 135.836914062 721.833007812 117.50390625 715.5 c 0
 99.1708984375 709.166992188 81.00390625 701 63.00390625 691 c 1
 38.00390625 738 l 1
 62.00390625 752.666992188 86.1708984375 763.166992188 110.50390625 769.5 c 0
 134.836914062 775.833007812 157.669921875 779 179.002929688 779 c 0
 216.3359375 779 247.668945312 768.333007812 273.001953125 747 c 0
 298.334960938 725.666992188 311.001953125 693.666992188 311.001953125 651 c 2
 311.001953125 449 l 2
 311.001953125 432.333007812 313.501953125 419.666015625 318.501953125 410.999023438 c 0
 323.501953125 402.33203125 332.668945312 397.999023438 346.001953125 397.999023438 c 2
 351.501953125 397.999023438 l 2
 353.834960938 397.999023438 356.001953125 398.33203125 358.001953125 398.999023438 c 1
 360.001953125 348.999023438 l 1
 354.668945312 347.666015625 349.668945312 346.833007812 345.001953125 346.5 c 0
 340.334960938 346.166992188 335.66796875 346 331.000976562 346 c 0
 304.333984375 346 285.166992188 353.5 273.5 368.5 c 0
 261.833007812 383.5 256 407 256 439 c 1
EndSplineSet
Fore
SplineSet
256 439 m 1
 271.00390625 436.001953125 l 1
 260.336914062 406.001953125 243.00390625 383.501953125 219.00390625 368.501953125 c 0
 195.00390625 353.501953125 171.336914062 346.001953125 148.00390625 346.001953125 c 0
 112.00390625 346.001953125 82.50390625 357.001953125 59.50390625 379.001953125 c 0
 36.50390625 401.001953125 25.00390625 432.001953125 25.00390625 472.001953125 c 0
 25.00390625 509.334960938 40.3369140625 539.66796875 71.00390625 563.000976562 c 0
 101.670898438 586.333984375 144.670898438 598.000976562 200.00390625 598.000976562 c 0
 212.00390625 598.000976562 224.336914062 597.66796875 237.00390625 597.000976562 c 0
 249.670898438 596.333984375 261.670898438 594.666992188 273.00390625 592 c 1
 273.00390625 546 l 1
 261.00390625 548.666992188 249.00390625 550.333984375 237.00390625 551.000976562 c 0
 225.00390625 551.66796875 212.00390625 552.000976562 198.00390625 552.000976562 c 0
 158.670898438 552.000976562 131.170898438 544.000976562 115.50390625 528.000976562 c 0
 99.8369140625 512.000976562 92.00390625 494.000976562 92.00390625 474.000976562 c 0
 92.00390625 450.66796875 98.1708984375 432.500976562 110.50390625 419.500976562 c 0
 122.836914062 406.500976562 139.336914062 400.000976562 160.00390625 400.000976562 c 0
 172.670898438 400.000976562 185.670898438 403.333984375 199.00390625 410.000976562 c 0
 212.336914062 416.66796875 223.50390625 427.000976562 232.50390625 441.000976562 c 0
 241.50390625 455.000976562 246.00390625 472.66796875 246.00390625 494.000976562 c 2
 246.00390625 647.000976562 l 2
 246.00390625 674.333984375 238.670898438 694.166992188 224.00390625 706.5 c 0
 209.336914062 718.833007812 191.336914062 725 170.00390625 725 c 0
 153.336914062 725 135.836914062 721.833007812 117.50390625 715.5 c 0
 99.1708984375 709.166992188 81.00390625 701 63.00390625 691 c 1
 38.00390625 738 l 1
 62.00390625 752.666992188 86.1708984375 763.166992188 110.50390625 769.5 c 0
 134.836914062 775.833007812 157.669921875 779 179.002929688 779 c 0
 216.3359375 779 247.668945312 768.333007812 273.001953125 747 c 0
 298.334960938 725.666992188 311.001953125 693.666992188 311.001953125 651 c 2
 311.001953125 449 l 2
 311.001953125 432.333007812 313.501953125 419.666015625 318.501953125 410.999023438 c 0
 323.501953125 402.33203125 332.668945312 397.999023438 346.001953125 397.999023438 c 2
 351.501953125 397.999023438 l 2
 353.834960938 397.999023438 356.001953125 398.33203125 358.001953125 398.999023438 c 1
 360.001953125 348.999023438 l 1
 354.668945312 347.666015625 349.668945312 346.833007812 345.001953125 346.5 c 0
 340.334960938 346.166992188 335.66796875 346 331.000976562 346 c 0
 304.333984375 346 285.166992188 353.5 273.5 368.5 c 0
 261.833007812 383.5 256 407 256 439 c 1
EndSplineSet
Validated: 5
EndChar

StartChar: guillemotleft
Encoding: 108 171 108
Width: 544
GlyphClass: 1
Flags: HW
LayerCount: 2
Back
SplineSet
134 301 m 1
 267 131 l 1
 216 89 l 1
 53 300 l 1
 219 510 l 1
 270 470 l 1
 134 301 l 1
328 301 m 1
 467 132 l 1
 416 89 l 1
 246 300 l 1
 419 510 l 1
 469 469 l 1
 328 301 l 1
EndSplineSet
Fore
SplineSet
134 301 m 1
 267 131 l 1
 216 89 l 1
 53 300 l 1
 219 510 l 1
 270 470 l 1
 134 301 l 1
328 301 m 1
 467 132 l 1
 416 89 l 1
 246 300 l 1
 419 510 l 1
 469 469 l 1
 328 301 l 1
EndSplineSet
Validated: 1
EndChar

StartChar: logicalnot
Encoding: 109 172 109
Width: 550
GlyphClass: 1
Flags: HW
LayerCount: 2
Back
SplineSet
38 266 m 1
 38 329 l 1
 499 329 l 1
 499 266 l 1
 38 266 l 1
426 128 m 1
 426 329 l 1
 499 329 l 1
 499 128 l 1
 426 128 l 1
EndSplineSet
Fore
SplineSet
38 266 m 1
 38 329 l 1
 499 329 l 1
 499 266 l 1
 38 266 l 1
426 128 m 1
 426 329 l 1
 499 329 l 1
 499 128 l 1
 426 128 l 1
EndSplineSet
Validated: 5
EndChar

StartChar: uni00AD
Encoding: 110 173 110
Width: 682
GlyphClass: 1
Flags: HW
LayerCount: 2
Back
SplineSet
320 335 m 1
 320 275 l 1
 51 275 l 1
 51 335 l 1
 320 335 l 1
EndSplineSet
Fore
SplineSet
320 335 m 1
 320 275 l 1
 51 275 l 1
 51 335 l 1
 320 335 l 1
EndSplineSet
Validated: 1
EndChar

